ISO-10303-21;
HEADER;
/* Generated by software containing ST-Developer
 * from STEP Tools, Inc. (www.steptools.com) 
 */
/* OPTION: using custom renumber hook */

FILE_DESCRIPTION(
/* description */ ('STEP AP242 Edition 2',
'CAx-IF Rec.Pracs.---Representation and Presentation of Product Manufa
cturing Information (PMI)---4.0---2014-10-13',
'CAx-IF Rec.Pracs.---3D Tessellated Geometry---0.4---2014-09-14','2;1',
'CAx-IF Rec.Pracs.---User Defined Attributes---1.5---2016-08-15'),
/* implementation_level */ '2;1');

FILE_NAME(
/* name */ 'MAIN - myRoller (18)',
/* time_stamp */ '2025-12-27T00:10:35Z',
/* author */ (''),
/* organization */ (''),
/* preprocessor_version */ 'ST-DEVELOPER v20',
/* originating_system */ 'ONSHAPE BY PTC INC, 1.208',
/* authorisation */ '  ');

FILE_SCHEMA (('AP242_MANAGED_MODEL_BASED_3D_ENGINEERING_MIM_LF { 1 0 10303 442 3 1 4 }'));
ENDSEC;

DATA;
#10=SHAPE_REPRESENTATION_RELATIONSHIP('','',#67,#11);
#11=ADVANCED_BREP_SHAPE_REPRESENTATION('',(#65),#275);
#12=CYLINDRICAL_SURFACE('',#75,0.0026);
#13=PLANE('',#71);
#14=PLANE('',#73);
#15=ORIENTED_EDGE('',*,*,#23,.F.);
#16=ORIENTED_EDGE('',*,*,#24,.T.);
#17=ORIENTED_EDGE('',*,*,#25,.F.);
#18=ORIENTED_EDGE('',*,*,#23,.T.);
#19=ORIENTED_EDGE('',*,*,#26,.F.);
#20=ORIENTED_EDGE('',*,*,#24,.F.);
#21=ORIENTED_EDGE('',*,*,#26,.T.);
#22=ORIENTED_EDGE('',*,*,#25,.T.);
#23=EDGE_CURVE('',#27,#27,#31,.F.);
#24=EDGE_CURVE('',#28,#28,#32,.F.);
#25=EDGE_CURVE('',#29,#29,#33,.T.);
#26=EDGE_CURVE('',#30,#30,#34,.T.);
#27=VERTEX_POINT('',#264);
#28=VERTEX_POINT('',#266);
#29=VERTEX_POINT('',#269);
#30=VERTEX_POINT('',#272);
#31=CIRCLE('',#69,0.005);
#32=CIRCLE('',#70,0.005);
#33=CIRCLE('',#72,0.0026);
#34=CIRCLE('',#74,0.0026);
#35=EDGE_LOOP('',(#15));
#36=EDGE_LOOP('',(#16));
#37=EDGE_LOOP('',(#17));
#38=EDGE_LOOP('',(#18));
#39=EDGE_LOOP('',(#19));
#40=EDGE_LOOP('',(#20));
#41=EDGE_LOOP('',(#21));
#42=EDGE_LOOP('',(#22));
#43=FACE_BOUND('',#35,.T.);
#44=FACE_BOUND('',#36,.T.);
#45=FACE_BOUND('',#37,.T.);
#46=FACE_BOUND('',#38,.T.);
#47=FACE_BOUND('',#39,.T.);
#48=FACE_BOUND('',#40,.T.);
#49=FACE_BOUND('',#41,.T.);
#50=FACE_BOUND('',#42,.T.);
#51=B_SPLINE_SURFACE_WITH_KNOTS('',3,3,((#93,#94,#95,#96,#97),(#98,#99,
#100,#101,#102),(#103,#104,#105,#106,#107),(#108,#109,#110,#111,#112),(#113,
#114,#115,#116,#117),(#118,#119,#120,#121,#122),(#123,#124,#125,#126,#127),
(#128,#129,#130,#131,#132),(#133,#134,#135,#136,#137),(#138,#139,#140,#141,
#142),(#143,#144,#145,#146,#147),(#148,#149,#150,#151,#152),(#153,#154,
#155,#156,#157),(#158,#159,#160,#161,#162),(#163,#164,#165,#166,#167),(#168,
#169,#170,#171,#172),(#173,#174,#175,#176,#177),(#178,#179,#180,#181,#182),
(#183,#184,#185,#186,#187),(#188,#189,#190,#191,#192),(#193,#194,#195,#196,
#197),(#198,#199,#200,#201,#202),(#203,#204,#205,#206,#207),(#208,#209,
#210,#211,#212),(#213,#214,#215,#216,#217),(#218,#219,#220,#221,#222),(#223,
#224,#225,#226,#227),(#228,#229,#230,#231,#232),(#233,#234,#235,#236,#237),
(#238,#239,#240,#241,#242),(#243,#244,#245,#246,#247),(#248,#249,#250,#251,
#252),(#253,#254,#255,#256,#257),(#258,#259,#260,#261,#262)),
 .UNSPECIFIED.,.T.,.F.,.F.,(2,2,2,2,2,2,2,2,2,2,2,2,2,2,2,2,2,2,2),(4,1,
4),(-0.0625,0.,0.0625,0.125,0.1875,0.25,0.3125,0.375,0.4375,0.5,0.5625,
0.625,0.6875,0.75,0.8125,0.875,0.9375,1.,1.0625),(0.,0.5,1.),
 .UNSPECIFIED.);
#52=ADVANCED_FACE('',(#43,#44),#51,.T.);
#53=ADVANCED_FACE('',(#45,#46),#13,.F.);
#54=ADVANCED_FACE('',(#47,#48),#14,.T.);
#55=ADVANCED_FACE('',(#49,#50),#12,.F.);
#56=CLOSED_SHELL('',(#52,#53,#54,#55));
#57=STYLED_ITEM('',(#58),#65);
#58=PRESENTATION_STYLE_ASSIGNMENT((#59));
#59=SURFACE_STYLE_USAGE(.BOTH.,#60);
#60=SURFACE_SIDE_STYLE('',(#61));
#61=SURFACE_STYLE_FILL_AREA(#62);
#62=FILL_AREA_STYLE('',(#63));
#63=FILL_AREA_STYLE_COLOUR('',#64);
#64=COLOUR_RGB('',0.952941176470588,0.282352941176471,0.282352941176471);
#65=MANIFOLD_SOLID_BREP('myRoller',#56);
#66=SHAPE_DEFINITION_REPRESENTATION(#280,#67);
#67=SHAPE_REPRESENTATION('myRoller',(#68),#275);
#68=AXIS2_PLACEMENT_3D('',#92,#76,#77);
#69=AXIS2_PLACEMENT_3D('',#263,#78,#79);
#70=AXIS2_PLACEMENT_3D('',#265,#80,#81);
#71=AXIS2_PLACEMENT_3D('',#267,#82,#83);
#72=AXIS2_PLACEMENT_3D('',#268,#84,#85);
#73=AXIS2_PLACEMENT_3D('',#270,#86,#87);
#74=AXIS2_PLACEMENT_3D('',#271,#88,#89);
#75=AXIS2_PLACEMENT_3D('',#273,#90,#91);
#76=DIRECTION('',(0.,0.,1.));
#77=DIRECTION('',(1.,0.,0.));
#78=DIRECTION('',(0.,0.,1.));
#79=DIRECTION('',(1.,0.,0.));
#80=DIRECTION('',(0.,0.,1.));
#81=DIRECTION('',(1.,0.,0.));
#82=DIRECTION('',(0.,0.,1.));
#83=DIRECTION('',(1.,0.,0.));
#84=DIRECTION('',(0.,0.,-1.));
#85=DIRECTION('',(-1.,0.,0.));
#86=DIRECTION('',(0.,0.,1.));
#87=DIRECTION('',(1.,0.,0.));
#88=DIRECTION('',(0.,0.,1.));
#89=DIRECTION('',(1.,0.,0.));
#90=DIRECTION('',(0.,0.,-1.));
#91=DIRECTION('',(-1.,0.,0.));
#92=CARTESIAN_POINT('',(0.,0.,0.));
#93=CARTESIAN_POINT('',(0.005,0.000654498469497874,0.0162));
#94=CARTESIAN_POINT('',(0.0052625,0.000687310969497874,0.0162));
#95=CARTESIAN_POINT('',(0.0082375,0.00107983489814639,0.0081));
#96=CARTESIAN_POINT('',(0.0052625,0.000687310969497874,0.));
#97=CARTESIAN_POINT('',(0.005,0.000654498469497874,0.));
#98=CARTESIAN_POINT('',(0.005,-0.000654498469497873,0.0162));
#99=CARTESIAN_POINT('',(0.0052625,-0.000687310969497873,0.0162));
#100=CARTESIAN_POINT('',(0.0082375,-0.00107983489814638,0.0081));
#101=CARTESIAN_POINT('',(0.0052625,-0.000687310969497873,0.));
#102=CARTESIAN_POINT('',(0.005,-0.000654498469497873,0.));
#103=CARTESIAN_POINT('',(0.00486986338334158,-0.0013087394217964,0.0162));
#104=CARTESIAN_POINT('',(0.00512416025834158,-0.0013743644217964,0.0162));
#105=CARTESIAN_POINT('',(0.00802447087668068,-0.00215923201705388,0.0081));
#106=CARTESIAN_POINT('',(0.00512416025834158,-0.0013743644217964,0.));
#107=CARTESIAN_POINT('',(0.00486986338334158,-0.0013087394217964,0.));
#108=CARTESIAN_POINT('',(0.00436893194177129,-0.0025180949018545,0.0162));
#109=CARTESIAN_POINT('',(0.00459451787927129,-0.0026452433393545,0.0162));
#110=CARTESIAN_POINT('',(0.00720159836351119,-0.00415361289565265,0.0081));
#111=CARTESIAN_POINT('',(0.00459451787927129,-0.0026452433393545,0.));
#112=CARTESIAN_POINT('',(0.00436893194177129,-0.0025180949018545,0.));
#113=CARTESIAN_POINT('',(0.0039983342119909,-0.00307273359987458,0.0162));
#114=CARTESIAN_POINT('',(0.0042034123369909,-0.00322859297487458,0.0162));
#115=CARTESIAN_POINT('',(0.00659209003538453,-0.00506778774478678,0.0081));
#116=CARTESIAN_POINT('',(0.0042034123369909,-0.00322859297487458,0.));
#117=CARTESIAN_POINT('',(0.0039983342119909,-0.00307273359987458,0.));
#118=CARTESIAN_POINT('',(0.00307273359987458,-0.0039983342119909,0.0162));
#119=CARTESIAN_POINT('',(0.00322859297487458,-0.0042034123369909,0.0162));
#120=CARTESIAN_POINT('',(0.00506778774478678,-0.00659209003538453,0.0081));
#121=CARTESIAN_POINT('',(0.00322859297487458,-0.0042034123369909,0.));
#122=CARTESIAN_POINT('',(0.00307273359987458,-0.0039983342119909,0.));
#123=CARTESIAN_POINT('',(0.0025180949018545,-0.00436893194177129,0.0162));
#124=CARTESIAN_POINT('',(0.0026452433393545,-0.00459451787927129,0.0162));
#125=CARTESIAN_POINT('',(0.00415361289565265,-0.00720159836351119,0.0081));
#126=CARTESIAN_POINT('',(0.0026452433393545,-0.00459451787927129,0.));
#127=CARTESIAN_POINT('',(0.0025180949018545,-0.00436893194177129,0.));
#128=CARTESIAN_POINT('',(0.0013087394217964,-0.00486986338334158,0.0162));
#129=CARTESIAN_POINT('',(0.0013743644217964,-0.00512416025834158,0.0162));
#130=CARTESIAN_POINT('',(0.00215923201705388,-0.00802447087668068,0.0081));
#131=CARTESIAN_POINT('',(0.0013743644217964,-0.00512416025834158,0.));
#132=CARTESIAN_POINT('',(0.0013087394217964,-0.00486986338334158,0.));
#133=CARTESIAN_POINT('',(0.000654498469497873,-0.005,0.0162));
#134=CARTESIAN_POINT('',(0.000687310969497873,-0.0052625,0.0162));
#135=CARTESIAN_POINT('',(0.00107983489814638,-0.0082375,0.0081));
#136=CARTESIAN_POINT('',(0.000687310969497873,-0.0052625,0.));
#137=CARTESIAN_POINT('',(0.000654498469497873,-0.005,0.));
#138=CARTESIAN_POINT('',(-0.000654498469497875,-0.005,0.0162));
#139=CARTESIAN_POINT('',(-0.000687310969497875,-0.0052625,0.0162));
#140=CARTESIAN_POINT('',(-0.00107983489814639,-0.0082375,0.0081));
#141=CARTESIAN_POINT('',(-0.000687310969497875,-0.0052625,0.));
#142=CARTESIAN_POINT('',(-0.000654498469497875,-0.005,0.));
#143=CARTESIAN_POINT('',(-0.0013087394217964,-0.00486986338334158,0.0162));
#144=CARTESIAN_POINT('',(-0.0013743644217964,-0.00512416025834158,0.0162));
#145=CARTESIAN_POINT('',(-0.00215923201705388,-0.00802447087668068,0.0081));
#146=CARTESIAN_POINT('',(-0.0013743644217964,-0.00512416025834158,0.));
#147=CARTESIAN_POINT('',(-0.0013087394217964,-0.00486986338334158,0.));
#148=CARTESIAN_POINT('',(-0.0025180949018545,-0.00436893194177129,0.0162));
#149=CARTESIAN_POINT('',(-0.0026452433393545,-0.00459451787927129,0.0162));
#150=CARTESIAN_POINT('',(-0.00415361289565265,-0.00720159836351119,0.0081));
#151=CARTESIAN_POINT('',(-0.0026452433393545,-0.00459451787927129,0.));
#152=CARTESIAN_POINT('',(-0.0025180949018545,-0.00436893194177129,0.));
#153=CARTESIAN_POINT('',(-0.00307273359987458,-0.0039983342119909,0.0162));
#154=CARTESIAN_POINT('',(-0.00322859297487458,-0.0042034123369909,0.0162));
#155=CARTESIAN_POINT('',(-0.00506778774478678,-0.00659209003538453,0.0081));
#156=CARTESIAN_POINT('',(-0.00322859297487458,-0.0042034123369909,0.));
#157=CARTESIAN_POINT('',(-0.00307273359987458,-0.0039983342119909,0.));
#158=CARTESIAN_POINT('',(-0.0039983342119909,-0.00307273359987457,0.0162));
#159=CARTESIAN_POINT('',(-0.0042034123369909,-0.00322859297487457,0.0162));
#160=CARTESIAN_POINT('',(-0.00659209003538453,-0.00506778774478677,0.0081));
#161=CARTESIAN_POINT('',(-0.0042034123369909,-0.00322859297487457,0.));
#162=CARTESIAN_POINT('',(-0.0039983342119909,-0.00307273359987457,0.));
#163=CARTESIAN_POINT('',(-0.00436893194177129,-0.0025180949018545,0.0162));
#164=CARTESIAN_POINT('',(-0.00459451787927129,-0.0026452433393545,0.0162));
#165=CARTESIAN_POINT('',(-0.00720159836351119,-0.00415361289565265,0.0081));
#166=CARTESIAN_POINT('',(-0.00459451787927129,-0.0026452433393545,0.));
#167=CARTESIAN_POINT('',(-0.00436893194177129,-0.0025180949018545,0.));
#168=CARTESIAN_POINT('',(-0.00486986338334158,-0.0013087394217964,0.0162));
#169=CARTESIAN_POINT('',(-0.00512416025834158,-0.0013743644217964,0.0162));
#170=CARTESIAN_POINT('',(-0.00802447087668068,-0.00215923201705388,0.0081));
#171=CARTESIAN_POINT('',(-0.00512416025834158,-0.0013743644217964,0.));
#172=CARTESIAN_POINT('',(-0.00486986338334158,-0.0013087394217964,0.));
#173=CARTESIAN_POINT('',(-0.005,-0.000654498469497872,0.0162));
#174=CARTESIAN_POINT('',(-0.0052625,-0.000687310969497873,0.0162));
#175=CARTESIAN_POINT('',(-0.0082375,-0.00107983489814638,0.0081));
#176=CARTESIAN_POINT('',(-0.0052625,-0.000687310969497873,0.));
#177=CARTESIAN_POINT('',(-0.005,-0.000654498469497872,0.));
#178=CARTESIAN_POINT('',(-0.005,0.000654498469497874,0.0162));
#179=CARTESIAN_POINT('',(-0.0052625,0.000687310969497874,0.0162));
#180=CARTESIAN_POINT('',(-0.0082375,0.00107983489814639,0.0081));
#181=CARTESIAN_POINT('',(-0.0052625,0.000687310969497874,0.));
#182=CARTESIAN_POINT('',(-0.005,0.000654498469497874,0.));
#183=CARTESIAN_POINT('',(-0.00486986338334158,0.0013087394217964,0.0162));
#184=CARTESIAN_POINT('',(-0.00512416025834158,0.0013743644217964,0.0162));
#185=CARTESIAN_POINT('',(-0.00802447087668069,0.00215923201705388,0.0081));
#186=CARTESIAN_POINT('',(-0.00512416025834158,0.0013743644217964,0.));
#187=CARTESIAN_POINT('',(-0.00486986338334158,0.0013087394217964,0.));
#188=CARTESIAN_POINT('',(-0.00436893194177129,0.00251809490185449,0.0162));
#189=CARTESIAN_POINT('',(-0.00459451787927129,0.00264524333935449,0.0162));
#190=CARTESIAN_POINT('',(-0.00720159836351119,0.00415361289565265,0.0081));
#191=CARTESIAN_POINT('',(-0.00459451787927129,0.00264524333935449,0.));
#192=CARTESIAN_POINT('',(-0.00436893194177129,0.00251809490185449,0.));
#193=CARTESIAN_POINT('',(-0.0039983342119909,0.00307273359987458,0.0162));
#194=CARTESIAN_POINT('',(-0.0042034123369909,0.00322859297487458,0.0162));
#195=CARTESIAN_POINT('',(-0.00659209003538453,0.00506778774478678,0.0081));
#196=CARTESIAN_POINT('',(-0.0042034123369909,0.00322859297487458,0.));
#197=CARTESIAN_POINT('',(-0.0039983342119909,0.00307273359987458,0.));
#198=CARTESIAN_POINT('',(-0.00307273359987458,0.0039983342119909,0.0162));
#199=CARTESIAN_POINT('',(-0.00322859297487458,0.0042034123369909,0.0162));
#200=CARTESIAN_POINT('',(-0.00506778774478678,0.00659209003538453,0.0081));
#201=CARTESIAN_POINT('',(-0.00322859297487458,0.0042034123369909,0.));
#202=CARTESIAN_POINT('',(-0.00307273359987458,0.0039983342119909,0.));
#203=CARTESIAN_POINT('',(-0.00251809490185449,0.00436893194177129,0.0162));
#204=CARTESIAN_POINT('',(-0.00264524333935449,0.00459451787927129,0.0162));
#205=CARTESIAN_POINT('',(-0.00415361289565264,0.0072015983635112,0.0081));
#206=CARTESIAN_POINT('',(-0.00264524333935449,0.00459451787927129,0.));
#207=CARTESIAN_POINT('',(-0.00251809490185449,0.00436893194177129,0.));
#208=CARTESIAN_POINT('',(-0.0013087394217964,0.00486986338334158,0.0162));
#209=CARTESIAN_POINT('',(-0.0013743644217964,0.00512416025834158,0.0162));
#210=CARTESIAN_POINT('',(-0.00215923201705387,0.00802447087668068,0.0081));
#211=CARTESIAN_POINT('',(-0.0013743644217964,0.00512416025834158,0.));
#212=CARTESIAN_POINT('',(-0.0013087394217964,0.00486986338334158,0.));
#213=CARTESIAN_POINT('',(-0.000654498469497873,0.005,0.0162));
#214=CARTESIAN_POINT('',(-0.000687310969497873,0.0052625,0.0162));
#215=CARTESIAN_POINT('',(-0.00107983489814638,0.0082375,0.0081));
#216=CARTESIAN_POINT('',(-0.000687310969497873,0.0052625,0.));
#217=CARTESIAN_POINT('',(-0.000654498469497873,0.005,0.));
#218=CARTESIAN_POINT('',(0.000654498469497874,0.005,0.0162));
#219=CARTESIAN_POINT('',(0.000687310969497874,0.0052625,0.0162));
#220=CARTESIAN_POINT('',(0.00107983489814639,0.0082375,0.0081));
#221=CARTESIAN_POINT('',(0.000687310969497874,0.0052625,0.));
#222=CARTESIAN_POINT('',(0.000654498469497874,0.005,0.));
#223=CARTESIAN_POINT('',(0.0013087394217964,0.00486986338334158,0.0162));
#224=CARTESIAN_POINT('',(0.0013743644217964,0.00512416025834158,0.0162));
#225=CARTESIAN_POINT('',(0.00215923201705388,0.00802447087668068,0.0081));
#226=CARTESIAN_POINT('',(0.0013743644217964,0.00512416025834158,0.));
#227=CARTESIAN_POINT('',(0.0013087394217964,0.00486986338334158,0.));
#228=CARTESIAN_POINT('',(0.00251809490185449,0.00436893194177129,0.0162));
#229=CARTESIAN_POINT('',(0.00264524333935449,0.00459451787927129,0.0162));
#230=CARTESIAN_POINT('',(0.00415361289565265,0.00720159836351119,0.0081));
#231=CARTESIAN_POINT('',(0.00264524333935449,0.00459451787927129,0.));
#232=CARTESIAN_POINT('',(0.00251809490185449,0.00436893194177129,0.));
#233=CARTESIAN_POINT('',(0.00307273359987458,0.0039983342119909,0.0162));
#234=CARTESIAN_POINT('',(0.00322859297487458,0.0042034123369909,0.0162));
#235=CARTESIAN_POINT('',(0.00506778774478678,0.00659209003538453,0.0081));
#236=CARTESIAN_POINT('',(0.00322859297487458,0.0042034123369909,0.));
#237=CARTESIAN_POINT('',(0.00307273359987458,0.0039983342119909,0.));
#238=CARTESIAN_POINT('',(0.0039983342119909,0.00307273359987458,0.0162));
#239=CARTESIAN_POINT('',(0.0042034123369909,0.00322859297487458,0.0162));
#240=CARTESIAN_POINT('',(0.00659209003538453,0.00506778774478678,0.0081));
#241=CARTESIAN_POINT('',(0.0042034123369909,0.00322859297487458,0.));
#242=CARTESIAN_POINT('',(0.0039983342119909,0.00307273359987458,0.));
#243=CARTESIAN_POINT('',(0.00436893194177129,0.00251809490185449,0.0162));
#244=CARTESIAN_POINT('',(0.00459451787927129,0.00264524333935449,0.0162));
#245=CARTESIAN_POINT('',(0.00720159836351119,0.00415361289565265,0.0081));
#246=CARTESIAN_POINT('',(0.00459451787927129,0.00264524333935449,0.));
#247=CARTESIAN_POINT('',(0.00436893194177129,0.00251809490185449,0.));
#248=CARTESIAN_POINT('',(0.00486986338334158,0.0013087394217964,0.0162));
#249=CARTESIAN_POINT('',(0.00512416025834158,0.0013743644217964,0.0162));
#250=CARTESIAN_POINT('',(0.00802447087668068,0.00215923201705388,0.0081));
#251=CARTESIAN_POINT('',(0.00512416025834158,0.0013743644217964,0.));
#252=CARTESIAN_POINT('',(0.00486986338334158,0.0013087394217964,0.));
#253=CARTESIAN_POINT('',(0.005,0.000654498469497874,0.0162));
#254=CARTESIAN_POINT('',(0.0052625,0.000687310969497874,0.0162));
#255=CARTESIAN_POINT('',(0.0082375,0.00107983489814639,0.0081));
#256=CARTESIAN_POINT('',(0.0052625,0.000687310969497874,0.));
#257=CARTESIAN_POINT('',(0.005,0.000654498469497874,0.));
#258=CARTESIAN_POINT('',(0.005,-0.000654498469497873,0.0162));
#259=CARTESIAN_POINT('',(0.0052625,-0.000687310969497873,0.0162));
#260=CARTESIAN_POINT('',(0.0082375,-0.00107983489814638,0.0081));
#261=CARTESIAN_POINT('',(0.0052625,-0.000687310969497873,0.));
#262=CARTESIAN_POINT('',(0.005,-0.000654498469497873,0.));
#263=CARTESIAN_POINT('',(0.,3.06161699786838E-19,0.));
#264=CARTESIAN_POINT('',(0.005,3.06161699786838E-19,0.));
#265=CARTESIAN_POINT('',(0.,3.06161699786838E-19,0.0162));
#266=CARTESIAN_POINT('',(0.005,3.25260651745652E-19,0.0162));
#267=CARTESIAN_POINT('',(0.,0.,0.));
#268=CARTESIAN_POINT('',(0.,-1.59204083889156E-19,0.));
#269=CARTESIAN_POINT('',(-0.0026,-1.59204083889156E-19,0.));
#270=CARTESIAN_POINT('',(0.,0.,0.0162));
#271=CARTESIAN_POINT('',(0.,-1.59204083889156E-19,0.0162));
#272=CARTESIAN_POINT('',(0.0026,-1.59204083889156E-19,0.0162));
#273=CARTESIAN_POINT('',(0.,-1.59204083889156E-19,0.0349304163689553));
#274=MECHANICAL_DESIGN_GEOMETRIC_PRESENTATION_REPRESENTATION('',(#57),#275);
#275=(
GEOMETRIC_REPRESENTATION_CONTEXT(3)
GLOBAL_UNCERTAINTY_ASSIGNED_CONTEXT((#276))
GLOBAL_UNIT_ASSIGNED_CONTEXT((#279,#278,#277))
REPRESENTATION_CONTEXT('myRoller','TOP_LEVEL_ASSEMBLY_PART')
);
#276=UNCERTAINTY_MEASURE_WITH_UNIT(LENGTH_MEASURE(9.26580311386468E-7),
#279,'DISTANCE_ACCURACY_VALUE','Maximum Tolerance applied to model');
#277=(
NAMED_UNIT(*)
SI_UNIT($,.STERADIAN.)
SOLID_ANGLE_UNIT()
);
#278=(
NAMED_UNIT(*)
PLANE_ANGLE_UNIT()
SI_UNIT($,.RADIAN.)
);
#279=(
LENGTH_UNIT()
NAMED_UNIT(*)
SI_UNIT($,.METRE.)
);
#280=PRODUCT_DEFINITION_SHAPE('','',#281);
#281=PRODUCT_DEFINITION('','',#283,#282);
#282=PRODUCT_DEFINITION_CONTEXT('',#289,'design');
#283=PRODUCT_DEFINITION_FORMATION_WITH_SPECIFIED_SOURCE('','',#285,
 .NOT_KNOWN.);
#284=PRODUCT_RELATED_PRODUCT_CATEGORY('','',(#285));
#285=PRODUCT('myRoller','myRoller','myRoller',(#287));
#286=PRODUCT_CATEGORY('','');
#287=PRODUCT_CONTEXT('',#289,'mechanical');
#288=APPLICATION_PROTOCOL_DEFINITION('international standard',
'ap242_managed_model_based_3d_engineering',2020,#289);
#289=APPLICATION_CONTEXT('managed model based 3d engineering');
ENDSEC;
END-ISO-10303-21;
