ISO-10303-21;
HEADER;
/* Generated by software containing ST-Developer
 * from STEP Tools, Inc. (www.steptools.com) 
 */
/* OPTION: using custom renumber hook */

FILE_DESCRIPTION(
/* description */ ('STEP AP242 Edition 2',
'CAx-IF Rec.Pracs.---Representation and Presentation of Product Manufa
cturing Information (PMI)---4.0---2014-10-13',
'CAx-IF Rec.Pracs.---3D Tessellated Geometry---0.4---2014-09-14','2;1',
'CAx-IF Rec.Pracs.---User Defined Attributes---1.5---2016-08-15'),
/* implementation_level */ '2;1');

FILE_NAME(
/* name */ 'MAIN - Part 1',
/* time_stamp */ '2025-12-27T00:10:35Z',
/* author */ (''),
/* organization */ (''),
/* preprocessor_version */ 'ST-DEVELOPER v20',
/* originating_system */ 'ONSHAPE BY PTC INC, 1.208',
/* authorisation */ '  ');

FILE_SCHEMA (('AP242_MANAGED_MODEL_BASED_3D_ENGINEERING_MIM_LF { 1 0 10303 442 3 1 4 }'));
ENDSEC;

DATA;
#10=SHAPE_REPRESENTATION_RELATIONSHIP('','',#157,#11);
#11=ADVANCED_BREP_SHAPE_REPRESENTATION('',(#155),#275);
#12=PLANE('',#162);
#13=PLANE('',#167);
#14=PLANE('',#171);
#15=PLANE('',#174);
#16=PLANE('',#177);
#17=PLANE('',#180);
#18=PLANE('',#183);
#19=ORIENTED_EDGE('',*,*,#43,.T.);
#20=ORIENTED_EDGE('',*,*,#44,.F.);
#21=ORIENTED_EDGE('',*,*,#45,.F.);
#22=ORIENTED_EDGE('',*,*,#46,.F.);
#23=ORIENTED_EDGE('',*,*,#47,.F.);
#24=ORIENTED_EDGE('',*,*,#48,.F.);
#25=ORIENTED_EDGE('',*,*,#43,.F.);
#26=ORIENTED_EDGE('',*,*,#49,.F.);
#27=ORIENTED_EDGE('',*,*,#44,.T.);
#28=ORIENTED_EDGE('',*,*,#50,.F.);
#29=ORIENTED_EDGE('',*,*,#49,.T.);
#30=ORIENTED_EDGE('',*,*,#50,.T.);
#31=ORIENTED_EDGE('',*,*,#51,.F.);
#32=ORIENTED_EDGE('',*,*,#48,.T.);
#33=ORIENTED_EDGE('',*,*,#51,.T.);
#34=ORIENTED_EDGE('',*,*,#52,.F.);
#35=ORIENTED_EDGE('',*,*,#47,.T.);
#36=ORIENTED_EDGE('',*,*,#52,.T.);
#37=ORIENTED_EDGE('',*,*,#53,.F.);
#38=ORIENTED_EDGE('',*,*,#46,.T.);
#39=ORIENTED_EDGE('',*,*,#53,.T.);
#40=ORIENTED_EDGE('',*,*,#54,.F.);
#41=ORIENTED_EDGE('',*,*,#45,.T.);
#42=ORIENTED_EDGE('',*,*,#54,.T.);
#43=EDGE_CURVE('',#55,#55,#67,.T.);
#44=EDGE_CURVE('',#56,#56,#68,.T.);
#45=EDGE_CURVE('',#57,#57,#69,.T.);
#46=EDGE_CURVE('',#58,#58,#70,.T.);
#47=EDGE_CURVE('',#59,#59,#71,.T.);
#48=EDGE_CURVE('',#60,#60,#72,.T.);
#49=EDGE_CURVE('',#61,#61,#73,.T.);
#50=EDGE_CURVE('',#62,#62,#74,.T.);
#51=EDGE_CURVE('',#63,#63,#75,.T.);
#52=EDGE_CURVE('',#64,#64,#76,.T.);
#53=EDGE_CURVE('',#65,#65,#77,.T.);
#54=EDGE_CURVE('',#66,#66,#78,.T.);
#55=VERTEX_POINT('',#239);
#56=VERTEX_POINT('',#241);
#57=VERTEX_POINT('',#244);
#58=VERTEX_POINT('',#246);
#59=VERTEX_POINT('',#248);
#60=VERTEX_POINT('',#250);
#61=VERTEX_POINT('',#253);
#62=VERTEX_POINT('',#256);
#63=VERTEX_POINT('',#260);
#64=VERTEX_POINT('',#264);
#65=VERTEX_POINT('',#268);
#66=VERTEX_POINT('',#272);
#67=CIRCLE('',#160,0.01395);
#68=CIRCLE('',#161,0.01395);
#69=CIRCLE('',#163,0.0016);
#70=CIRCLE('',#164,0.0016);
#71=CIRCLE('',#165,0.0016);
#72=CIRCLE('',#166,0.0016);
#73=CIRCLE('',#168,0.002);
#74=CIRCLE('',#170,0.002);
#75=CIRCLE('',#173,0.0016);
#76=CIRCLE('',#176,0.0016);
#77=CIRCLE('',#179,0.0016);
#78=CIRCLE('',#182,0.0016);
#79=EDGE_LOOP('',(#19));
#80=EDGE_LOOP('',(#20));
#81=EDGE_LOOP('',(#21));
#82=EDGE_LOOP('',(#22));
#83=EDGE_LOOP('',(#23));
#84=EDGE_LOOP('',(#24));
#85=EDGE_LOOP('',(#25));
#86=EDGE_LOOP('',(#26));
#87=EDGE_LOOP('',(#27));
#88=EDGE_LOOP('',(#28));
#89=EDGE_LOOP('',(#29));
#90=EDGE_LOOP('',(#30));
#91=EDGE_LOOP('',(#31));
#92=EDGE_LOOP('',(#32));
#93=EDGE_LOOP('',(#33));
#94=EDGE_LOOP('',(#34));
#95=EDGE_LOOP('',(#35));
#96=EDGE_LOOP('',(#36));
#97=EDGE_LOOP('',(#37));
#98=EDGE_LOOP('',(#38));
#99=EDGE_LOOP('',(#39));
#100=EDGE_LOOP('',(#40));
#101=EDGE_LOOP('',(#41));
#102=EDGE_LOOP('',(#42));
#103=FACE_BOUND('',#79,.T.);
#104=FACE_BOUND('',#80,.T.);
#105=FACE_BOUND('',#81,.T.);
#106=FACE_BOUND('',#82,.T.);
#107=FACE_BOUND('',#83,.T.);
#108=FACE_BOUND('',#84,.T.);
#109=FACE_BOUND('',#85,.T.);
#110=FACE_BOUND('',#86,.T.);
#111=FACE_BOUND('',#87,.T.);
#112=FACE_BOUND('',#88,.T.);
#113=FACE_BOUND('',#89,.T.);
#114=FACE_BOUND('',#90,.T.);
#115=FACE_BOUND('',#91,.T.);
#116=FACE_BOUND('',#92,.T.);
#117=FACE_BOUND('',#93,.T.);
#118=FACE_BOUND('',#94,.T.);
#119=FACE_BOUND('',#95,.T.);
#120=FACE_BOUND('',#96,.T.);
#121=FACE_BOUND('',#97,.T.);
#122=FACE_BOUND('',#98,.T.);
#123=FACE_BOUND('',#99,.T.);
#124=FACE_BOUND('',#100,.T.);
#125=FACE_BOUND('',#101,.T.);
#126=FACE_BOUND('',#102,.T.);
#127=CYLINDRICAL_SURFACE('',#159,0.01395);
#128=CYLINDRICAL_SURFACE('',#169,0.002);
#129=CYLINDRICAL_SURFACE('',#172,0.0016);
#130=CYLINDRICAL_SURFACE('',#175,0.0016);
#131=CYLINDRICAL_SURFACE('',#178,0.0016);
#132=CYLINDRICAL_SURFACE('',#181,0.0016);
#133=ADVANCED_FACE('',(#103,#104),#127,.T.);
#134=ADVANCED_FACE('',(#105,#106,#107,#108,#109),#12,.F.);
#135=ADVANCED_FACE('',(#110,#111),#13,.T.);
#136=ADVANCED_FACE('',(#112,#113),#128,.T.);
#137=ADVANCED_FACE('',(#114),#14,.T.);
#138=ADVANCED_FACE('',(#115,#116),#129,.F.);
#139=ADVANCED_FACE('',(#117),#15,.T.);
#140=ADVANCED_FACE('',(#118,#119),#130,.F.);
#141=ADVANCED_FACE('',(#120),#16,.T.);
#142=ADVANCED_FACE('',(#121,#122),#131,.F.);
#143=ADVANCED_FACE('',(#123),#17,.T.);
#144=ADVANCED_FACE('',(#124,#125),#132,.F.);
#145=ADVANCED_FACE('',(#126),#18,.T.);
#146=CLOSED_SHELL('',(#133,#134,#135,#136,#137,#138,#139,#140,#141,#142,
#143,#144,#145));
#147=STYLED_ITEM('',(#148),#155);
#148=PRESENTATION_STYLE_ASSIGNMENT((#149));
#149=SURFACE_STYLE_USAGE(.BOTH.,#150);
#150=SURFACE_SIDE_STYLE('',(#151));
#151=SURFACE_STYLE_FILL_AREA(#152);
#152=FILL_AREA_STYLE('',(#153));
#153=FILL_AREA_STYLE_COLOUR('',#154);
#154=COLOUR_RGB('',0.490196078431373,0.898039215686275,0.203921568627451);
#155=MANIFOLD_SOLID_BREP('Part 1',#146);
#156=SHAPE_DEFINITION_REPRESENTATION(#280,#157);
#157=SHAPE_REPRESENTATION('Part 1',(#158),#275);
#158=AXIS2_PLACEMENT_3D('',#236,#184,#185);
#159=AXIS2_PLACEMENT_3D('',#237,#186,#187);
#160=AXIS2_PLACEMENT_3D('',#238,#188,#189);
#161=AXIS2_PLACEMENT_3D('',#240,#190,#191);
#162=AXIS2_PLACEMENT_3D('',#242,#192,#193);
#163=AXIS2_PLACEMENT_3D('',#243,#194,#195);
#164=AXIS2_PLACEMENT_3D('',#245,#196,#197);
#165=AXIS2_PLACEMENT_3D('',#247,#198,#199);
#166=AXIS2_PLACEMENT_3D('',#249,#200,#201);
#167=AXIS2_PLACEMENT_3D('',#251,#202,#203);
#168=AXIS2_PLACEMENT_3D('',#252,#204,#205);
#169=AXIS2_PLACEMENT_3D('',#254,#206,#207);
#170=AXIS2_PLACEMENT_3D('',#255,#208,#209);
#171=AXIS2_PLACEMENT_3D('',#257,#210,#211);
#172=AXIS2_PLACEMENT_3D('',#258,#212,#213);
#173=AXIS2_PLACEMENT_3D('',#259,#214,#215);
#174=AXIS2_PLACEMENT_3D('',#261,#216,#217);
#175=AXIS2_PLACEMENT_3D('',#262,#218,#219);
#176=AXIS2_PLACEMENT_3D('',#263,#220,#221);
#177=AXIS2_PLACEMENT_3D('',#265,#222,#223);
#178=AXIS2_PLACEMENT_3D('',#266,#224,#225);
#179=AXIS2_PLACEMENT_3D('',#267,#226,#227);
#180=AXIS2_PLACEMENT_3D('',#269,#228,#229);
#181=AXIS2_PLACEMENT_3D('',#270,#230,#231);
#182=AXIS2_PLACEMENT_3D('',#271,#232,#233);
#183=AXIS2_PLACEMENT_3D('',#273,#234,#235);
#184=DIRECTION('',(0.,0.,1.));
#185=DIRECTION('',(1.,0.,0.));
#186=DIRECTION('',(0.,-1.,0.));
#187=DIRECTION('',(0.,0.,-1.));
#188=DIRECTION('',(0.,-1.,0.));
#189=DIRECTION('',(0.,0.,-1.));
#190=DIRECTION('',(0.,-1.,0.));
#191=DIRECTION('',(0.,0.,-1.));
#192=DIRECTION('',(0.,-1.,0.));
#193=DIRECTION('',(1.,0.,0.));
#194=DIRECTION('',(0.,1.,0.));
#195=DIRECTION('',(0.,0.,1.));
#196=DIRECTION('',(0.,1.,0.));
#197=DIRECTION('',(0.,0.,1.));
#198=DIRECTION('',(0.,1.,0.));
#199=DIRECTION('',(0.,0.,1.));
#200=DIRECTION('',(0.,1.,0.));
#201=DIRECTION('',(0.,0.,1.));
#202=DIRECTION('',(0.,-1.,0.));
#203=DIRECTION('',(1.,0.,0.));
#204=DIRECTION('',(0.,-1.,0.));
#205=DIRECTION('',(0.,0.,-1.));
#206=DIRECTION('',(0.,1.,0.));
#207=DIRECTION('',(0.,0.,1.));
#208=DIRECTION('',(0.,-1.,0.));
#209=DIRECTION('',(0.,0.,-1.));
#210=DIRECTION('',(0.,-1.,0.));
#211=DIRECTION('',(1.,0.,0.));
#212=DIRECTION('',(0.,1.,0.));
#213=DIRECTION('',(0.,0.,1.));
#214=DIRECTION('',(0.,1.,0.));
#215=DIRECTION('',(0.,0.,1.));
#216=DIRECTION('',(0.,1.,0.));
#217=DIRECTION('',(-1.,0.,0.));
#218=DIRECTION('',(0.,1.,0.));
#219=DIRECTION('',(0.,0.,1.));
#220=DIRECTION('',(0.,1.,0.));
#221=DIRECTION('',(0.,0.,1.));
#222=DIRECTION('',(0.,1.,0.));
#223=DIRECTION('',(-1.,0.,0.));
#224=DIRECTION('',(0.,1.,0.));
#225=DIRECTION('',(0.,0.,1.));
#226=DIRECTION('',(0.,1.,0.));
#227=DIRECTION('',(0.,0.,1.));
#228=DIRECTION('',(0.,1.,0.));
#229=DIRECTION('',(-1.,0.,0.));
#230=DIRECTION('',(0.,1.,0.));
#231=DIRECTION('',(0.,0.,1.));
#232=DIRECTION('',(0.,1.,0.));
#233=DIRECTION('',(0.,0.,1.));
#234=DIRECTION('',(0.,1.,0.));
#235=DIRECTION('',(-1.,0.,0.));
#236=CARTESIAN_POINT('',(0.,0.,0.));
#237=CARTESIAN_POINT('',(0.,0.022,8.54191142405279E-19));
#238=CARTESIAN_POINT('',(0.,0.022,8.54191142405279E-19));
#239=CARTESIAN_POINT('',(0.,0.022,-0.01395));
#240=CARTESIAN_POINT('',(0.,0.,8.54191142405279E-19));
#241=CARTESIAN_POINT('',(0.,0.,-0.01395));
#242=CARTESIAN_POINT('',(0.,0.022,0.));
#243=CARTESIAN_POINT('',(0.,0.022,-0.008));
#244=CARTESIAN_POINT('',(0.,0.022,-0.0064));
#245=CARTESIAN_POINT('',(-0.008,0.022,-4.33680868994202E-19));
#246=CARTESIAN_POINT('',(-0.008,0.022,0.0016));
#247=CARTESIAN_POINT('',(-1.0842021724855E-18,0.022,0.008));
#248=CARTESIAN_POINT('',(-1.0842021724855E-18,0.022,0.0096));
#249=CARTESIAN_POINT('',(0.008,0.022,-4.33680868994202E-19));
#250=CARTESIAN_POINT('',(0.008,0.022,0.0016));
#251=CARTESIAN_POINT('',(0.,0.,0.));
#252=CARTESIAN_POINT('',(0.,0.,1.22464679914735E-19));
#253=CARTESIAN_POINT('',(0.,0.,-0.002));
#254=CARTESIAN_POINT('',(0.,-0.01,1.22464679914735E-19));
#255=CARTESIAN_POINT('',(0.,-0.01,1.22464679914735E-19));
#256=CARTESIAN_POINT('',(0.,-0.01,-0.002));
#257=CARTESIAN_POINT('',(0.,-0.01,0.));
#258=CARTESIAN_POINT('',(0.008,0.02,-4.33680868994202E-19));
#259=CARTESIAN_POINT('',(0.008,0.02,-4.33680868994202E-19));
#260=CARTESIAN_POINT('',(0.008,0.02,0.0016));
#261=CARTESIAN_POINT('',(0.,0.02,0.));
#262=CARTESIAN_POINT('',(-1.0842021724855E-18,0.02,0.008));
#263=CARTESIAN_POINT('',(-1.0842021724855E-18,0.02,0.008));
#264=CARTESIAN_POINT('',(-1.0842021724855E-18,0.02,0.0096));
#265=CARTESIAN_POINT('',(0.,0.02,0.));
#266=CARTESIAN_POINT('',(-0.008,0.02,-4.33680868994202E-19));
#267=CARTESIAN_POINT('',(-0.008,0.02,-4.33680868994202E-19));
#268=CARTESIAN_POINT('',(-0.008,0.02,0.0016));
#269=CARTESIAN_POINT('',(0.,0.02,0.));
#270=CARTESIAN_POINT('',(0.,0.02,-0.008));
#271=CARTESIAN_POINT('',(0.,0.02,-0.008));
#272=CARTESIAN_POINT('',(0.,0.02,-0.0064));
#273=CARTESIAN_POINT('',(0.,0.02,0.));
#274=MECHANICAL_DESIGN_GEOMETRIC_PRESENTATION_REPRESENTATION('',(#147),
#275);
#275=(
GEOMETRIC_REPRESENTATION_CONTEXT(3)
GLOBAL_UNCERTAINTY_ASSIGNED_CONTEXT((#276))
GLOBAL_UNIT_ASSIGNED_CONTEXT((#279,#278,#277))
REPRESENTATION_CONTEXT('Part 1','TOP_LEVEL_ASSEMBLY_PART')
);
#276=UNCERTAINTY_MEASURE_WITH_UNIT(LENGTH_MEASURE(1.E-8),#279,
'DISTANCE_ACCURACY_VALUE','Maximum Tolerance applied to model');
#277=(
NAMED_UNIT(*)
SI_UNIT($,.STERADIAN.)
SOLID_ANGLE_UNIT()
);
#278=(
NAMED_UNIT(*)
PLANE_ANGLE_UNIT()
SI_UNIT($,.RADIAN.)
);
#279=(
LENGTH_UNIT()
NAMED_UNIT(*)
SI_UNIT($,.METRE.)
);
#280=PRODUCT_DEFINITION_SHAPE('','',#281);
#281=PRODUCT_DEFINITION('','',#283,#282);
#282=PRODUCT_DEFINITION_CONTEXT('',#289,'design');
#283=PRODUCT_DEFINITION_FORMATION_WITH_SPECIFIED_SOURCE('','',#285,
 .NOT_KNOWN.);
#284=PRODUCT_RELATED_PRODUCT_CATEGORY('','',(#285));
#285=PRODUCT('Part 1','Part 1','Part 1',(#287));
#286=PRODUCT_CATEGORY('','');
#287=PRODUCT_CONTEXT('',#289,'mechanical');
#288=APPLICATION_PROTOCOL_DEFINITION('international standard',
'ap242_managed_model_based_3d_engineering',2020,#289);
#289=APPLICATION_CONTEXT('managed model based 3d engineering');
ENDSEC;
END-ISO-10303-21;
