ISO-10303-21;
HEADER;
/* Generated by software containing ST-Developer
 * from STEP Tools, Inc. (www.steptools.com) 
 */
/* OPTION: using custom renumber hook */

FILE_DESCRIPTION(
/* description */ ('STEP AP242 Edition 2',
'CAx-IF Rec.Pracs.---Representation and Presentation of Product Manufa
cturing Information (PMI)---4.0---2014-10-13',
'CAx-IF Rec.Pracs.---3D Tessellated Geometry---0.4---2014-09-14','2;1',
'CAx-IF Rec.Pracs.---User Defined Attributes---1.5---2016-08-15'),
/* implementation_level */ '2;1');

FILE_NAME(
/* name */ 'MAIN - carrier',
/* time_stamp */ '2025-12-27T00:10:34Z',
/* author */ (''),
/* organization */ (''),
/* preprocessor_version */ 'ST-DEVELOPER v20',
/* originating_system */ 'ONSHAPE BY PTC INC, 1.208',
/* authorisation */ '  ');

FILE_SCHEMA (('AP242_MANAGED_MODEL_BASED_3D_ENGINEERING_MIM_LF { 1 0 10303 442 3 1 4 }'));
ENDSEC;

DATA;
#10=SHAPE_REPRESENTATION_RELATIONSHIP('','',#761,#11);
#11=ADVANCED_BREP_SHAPE_REPRESENTATION('',(#759),#1327);
#12=PLANE('',#765);
#13=PLANE('',#769);
#14=PLANE('',#773);
#15=PLANE('',#777);
#16=PLANE('',#782);
#17=PLANE('',#788);
#18=PLANE('',#792);
#19=PLANE('',#798);
#20=PLANE('',#802);
#21=PLANE('',#842);
#22=PLANE('',#843);
#23=PLANE('',#844);
#24=PLANE('',#845);
#25=PLANE('',#848);
#26=B_SPLINE_CURVE_WITH_KNOTS('',3,(#1074,#1075,#1076,#1077,#1078,#1079,
#1080,#1081,#1082,#1083),.UNSPECIFIED.,.F.,.F.,(4,1,1,1,1,1,1,4),(6.2546344413855E-18,
0.00381859895319542,0.00572789842979313,0.00763719790639083,0.00954649738298854,
0.0114557968595862,0.013365096336184,0.0152743958127817),.UNSPECIFIED.);
#27=B_SPLINE_CURVE_WITH_KNOTS('',3,(#1095,#1096,#1097,#1098,#1099,#1100,
#1101,#1102,#1103,#1104),.UNSPECIFIED.,.F.,.F.,(4,1,1,1,1,1,1,4),(0.,0.0038185989531954,
0.0057278984297931,0.00763719790639081,0.00954649738298851,0.0114557968595862,
0.0133650963361839,0.0152743958127816),.UNSPECIFIED.);
#28=B_SPLINE_CURVE_WITH_KNOTS('',3,(#1116,#1117,#1118,#1119,#1120,#1121,
#1122,#1123,#1124,#1125),.UNSPECIFIED.,.F.,.F.,(4,1,1,1,1,1,1,4),(2.40526775994004E-17,
0.00381859895319544,0.00572789842979314,0.00763719790639085,0.00954649738298855,
0.0114557968595863,0.013365096336184,0.0152743958127817),.UNSPECIFIED.);
#29=B_SPLINE_CURVE_WITH_KNOTS('',3,(#1137,#1138,#1139,#1140,#1141,#1142,
#1143,#1144,#1145,#1146),.UNSPECIFIED.,.F.,.F.,(4,1,1,1,1,1,1,4),(8.49837472194074E-18,
0.00381859895319541,0.00572789842979311,0.00763719790639081,0.00954649738298852,
0.0114557968595862,0.0133650963361839,0.0152743958127816),.UNSPECIFIED.);
#30=B_SPLINE_CURVE_WITH_KNOTS('',3,(#1204,#1205,#1206,#1207,#1208,#1209,
#1210,#1211,#1212,#1213),.UNSPECIFIED.,.F.,.F.,(4,1,1,1,1,1,1,4),(8.67361737988404E-18,
0.00381859895319542,0.00572789842979312,0.00763719790639082,0.00954649738298853,
0.0114557968595862,0.0133650963361839,0.0152743958127816),.UNSPECIFIED.);
#31=B_SPLINE_CURVE_WITH_KNOTS('',3,(#1217,#1218,#1219,#1220,#1221,#1222,
#1223,#1224,#1225,#1226),.UNSPECIFIED.,.F.,.F.,(4,1,1,1,1,1,1,4),(0.,0.00381859895319542,
0.00572789842979313,0.00763719790639084,0.00954649738298855,0.0114557968595863,
0.013365096336184,0.0152743958127817),.UNSPECIFIED.);
#32=CIRCLE('',#764,0.00825);
#33=CIRCLE('',#766,0.01);
#34=CIRCLE('',#768,0.00825);
#35=CIRCLE('',#770,0.01);
#36=CIRCLE('',#772,0.00825);
#37=CIRCLE('',#774,0.01);
#38=CIRCLE('',#776,0.00825);
#39=CIRCLE('',#778,0.01);
#40=CIRCLE('',#780,0.04025);
#41=CIRCLE('',#781,0.04025);
#42=CIRCLE('',#783,0.00825);
#43=CIRCLE('',#784,0.00825);
#44=CIRCLE('',#786,0.04025);
#45=CIRCLE('',#787,0.04025);
#46=CIRCLE('',#790,0.04025);
#47=CIRCLE('',#791,0.04025);
#48=CIRCLE('',#794,0.01);
#49=CIRCLE('',#795,0.01);
#50=CIRCLE('',#796,0.01);
#51=CIRCLE('',#797,0.01);
#52=CIRCLE('',#800,0.01);
#53=CIRCLE('',#801,0.01);
#54=CIRCLE('',#804,0.0016);
#55=CIRCLE('',#805,0.0016);
#56=CIRCLE('',#807,0.0016);
#57=CIRCLE('',#808,0.0016);
#58=CIRCLE('',#810,0.0016);
#59=CIRCLE('',#811,0.0016);
#60=CIRCLE('',#813,0.0016);
#61=CIRCLE('',#814,0.0016);
#62=CIRCLE('',#816,0.0016);
#63=CIRCLE('',#817,0.0016);
#64=CIRCLE('',#819,0.0016);
#65=CIRCLE('',#820,0.0016);
#66=CIRCLE('',#822,0.0016);
#67=CIRCLE('',#823,0.0016);
#68=CIRCLE('',#825,0.0016);
#69=CIRCLE('',#826,0.0016);
#70=CIRCLE('',#828,0.0016);
#71=CIRCLE('',#829,0.0016);
#72=CIRCLE('',#831,0.0016);
#73=CIRCLE('',#832,0.0016);
#74=CIRCLE('',#834,0.0016);
#75=CIRCLE('',#835,0.0016);
#76=CIRCLE('',#837,0.0016);
#77=CIRCLE('',#838,0.0016);
#78=CIRCLE('',#840,0.01);
#79=CIRCLE('',#841,0.01);
#80=ORIENTED_EDGE('',*,*,#272,.T.);
#81=ORIENTED_EDGE('',*,*,#273,.T.);
#82=ORIENTED_EDGE('',*,*,#274,.F.);
#83=ORIENTED_EDGE('',*,*,#275,.F.);
#84=ORIENTED_EDGE('',*,*,#274,.T.);
#85=ORIENTED_EDGE('',*,*,#276,.T.);
#86=ORIENTED_EDGE('',*,*,#277,.F.);
#87=ORIENTED_EDGE('',*,*,#278,.F.);
#88=ORIENTED_EDGE('',*,*,#277,.T.);
#89=ORIENTED_EDGE('',*,*,#279,.T.);
#90=ORIENTED_EDGE('',*,*,#280,.F.);
#91=ORIENTED_EDGE('',*,*,#281,.F.);
#92=ORIENTED_EDGE('',*,*,#282,.T.);
#93=ORIENTED_EDGE('',*,*,#280,.T.);
#94=ORIENTED_EDGE('',*,*,#283,.F.);
#95=ORIENTED_EDGE('',*,*,#272,.F.);
#96=ORIENTED_EDGE('',*,*,#284,.T.);
#97=ORIENTED_EDGE('',*,*,#285,.T.);
#98=ORIENTED_EDGE('',*,*,#286,.F.);
#99=ORIENTED_EDGE('',*,*,#287,.F.);
#100=ORIENTED_EDGE('',*,*,#286,.T.);
#101=ORIENTED_EDGE('',*,*,#288,.T.);
#102=ORIENTED_EDGE('',*,*,#289,.F.);
#103=ORIENTED_EDGE('',*,*,#290,.F.);
#104=ORIENTED_EDGE('',*,*,#289,.T.);
#105=ORIENTED_EDGE('',*,*,#291,.T.);
#106=ORIENTED_EDGE('',*,*,#292,.F.);
#107=ORIENTED_EDGE('',*,*,#293,.F.);
#108=ORIENTED_EDGE('',*,*,#294,.T.);
#109=ORIENTED_EDGE('',*,*,#292,.T.);
#110=ORIENTED_EDGE('',*,*,#295,.F.);
#111=ORIENTED_EDGE('',*,*,#284,.F.);
#112=ORIENTED_EDGE('',*,*,#296,.F.);
#113=ORIENTED_EDGE('',*,*,#297,.F.);
#114=ORIENTED_EDGE('',*,*,#298,.T.);
#115=ORIENTED_EDGE('',*,*,#299,.T.);
#116=ORIENTED_EDGE('',*,*,#300,.F.);
#117=ORIENTED_EDGE('',*,*,#301,.F.);
#118=ORIENTED_EDGE('',*,*,#302,.F.);
#119=ORIENTED_EDGE('',*,*,#303,.T.);
#120=ORIENTED_EDGE('',*,*,#304,.T.);
#121=ORIENTED_EDGE('',*,*,#305,.F.);
#122=ORIENTED_EDGE('',*,*,#306,.F.);
#123=ORIENTED_EDGE('',*,*,#297,.T.);
#124=ORIENTED_EDGE('',*,*,#307,.F.);
#125=ORIENTED_EDGE('',*,*,#308,.F.);
#126=ORIENTED_EDGE('',*,*,#309,.T.);
#127=ORIENTED_EDGE('',*,*,#305,.T.);
#128=ORIENTED_EDGE('',*,*,#279,.F.);
#129=ORIENTED_EDGE('',*,*,#276,.F.);
#130=ORIENTED_EDGE('',*,*,#273,.F.);
#131=ORIENTED_EDGE('',*,*,#283,.T.);
#132=ORIENTED_EDGE('',*,*,#310,.T.);
#133=ORIENTED_EDGE('',*,*,#311,.F.);
#134=ORIENTED_EDGE('',*,*,#312,.F.);
#135=ORIENTED_EDGE('',*,*,#308,.T.);
#136=ORIENTED_EDGE('',*,*,#313,.F.);
#137=ORIENTED_EDGE('',*,*,#314,.F.);
#138=ORIENTED_EDGE('',*,*,#315,.T.);
#139=ORIENTED_EDGE('',*,*,#311,.T.);
#140=ORIENTED_EDGE('',*,*,#316,.F.);
#141=ORIENTED_EDGE('',*,*,#317,.F.);
#142=ORIENTED_EDGE('',*,*,#318,.T.);
#143=ORIENTED_EDGE('',*,*,#319,.T.);
#144=ORIENTED_EDGE('',*,*,#320,.T.);
#145=ORIENTED_EDGE('',*,*,#321,.T.);
#146=ORIENTED_EDGE('',*,*,#322,.F.);
#147=ORIENTED_EDGE('',*,*,#323,.T.);
#148=ORIENTED_EDGE('',*,*,#324,.F.);
#149=ORIENTED_EDGE('',*,*,#325,.F.);
#150=ORIENTED_EDGE('',*,*,#326,.T.);
#151=ORIENTED_EDGE('',*,*,#317,.T.);
#152=ORIENTED_EDGE('',*,*,#327,.F.);
#153=ORIENTED_EDGE('',*,*,#328,.F.);
#154=ORIENTED_EDGE('',*,*,#329,.T.);
#155=ORIENTED_EDGE('',*,*,#325,.T.);
#156=ORIENTED_EDGE('',*,*,#290,.T.);
#157=ORIENTED_EDGE('',*,*,#293,.T.);
#158=ORIENTED_EDGE('',*,*,#294,.F.);
#159=ORIENTED_EDGE('',*,*,#287,.T.);
#160=ORIENTED_EDGE('',*,*,#330,.F.);
#161=ORIENTED_EDGE('',*,*,#331,.F.);
#162=ORIENTED_EDGE('',*,*,#332,.T.);
#163=ORIENTED_EDGE('',*,*,#328,.T.);
#164=ORIENTED_EDGE('',*,*,#333,.F.);
#165=ORIENTED_EDGE('',*,*,#334,.F.);
#166=ORIENTED_EDGE('',*,*,#335,.T.);
#167=ORIENTED_EDGE('',*,*,#331,.T.);
#168=ORIENTED_EDGE('',*,*,#336,.T.);
#169=ORIENTED_EDGE('',*,*,#337,.F.);
#170=ORIENTED_EDGE('',*,*,#338,.T.);
#171=ORIENTED_EDGE('',*,*,#339,.F.);
#172=ORIENTED_EDGE('',*,*,#340,.F.);
#173=ORIENTED_EDGE('',*,*,#341,.T.);
#174=ORIENTED_EDGE('',*,*,#342,.F.);
#175=ORIENTED_EDGE('',*,*,#343,.T.);
#176=ORIENTED_EDGE('',*,*,#344,.T.);
#177=ORIENTED_EDGE('',*,*,#345,.F.);
#178=ORIENTED_EDGE('',*,*,#346,.T.);
#179=ORIENTED_EDGE('',*,*,#347,.F.);
#180=ORIENTED_EDGE('',*,*,#348,.F.);
#181=ORIENTED_EDGE('',*,*,#349,.T.);
#182=ORIENTED_EDGE('',*,*,#350,.T.);
#183=ORIENTED_EDGE('',*,*,#351,.F.);
#184=ORIENTED_EDGE('',*,*,#352,.T.);
#185=ORIENTED_EDGE('',*,*,#353,.F.);
#186=ORIENTED_EDGE('',*,*,#354,.F.);
#187=ORIENTED_EDGE('',*,*,#355,.T.);
#188=ORIENTED_EDGE('',*,*,#356,.F.);
#189=ORIENTED_EDGE('',*,*,#357,.T.);
#190=ORIENTED_EDGE('',*,*,#358,.F.);
#191=ORIENTED_EDGE('',*,*,#359,.T.);
#192=ORIENTED_EDGE('',*,*,#278,.T.);
#193=ORIENTED_EDGE('',*,*,#281,.T.);
#194=ORIENTED_EDGE('',*,*,#282,.F.);
#195=ORIENTED_EDGE('',*,*,#275,.T.);
#196=ORIENTED_EDGE('',*,*,#360,.F.);
#197=ORIENTED_EDGE('',*,*,#319,.F.);
#198=ORIENTED_EDGE('',*,*,#361,.T.);
#199=ORIENTED_EDGE('',*,*,#334,.T.);
#200=ORIENTED_EDGE('',*,*,#291,.F.);
#201=ORIENTED_EDGE('',*,*,#288,.F.);
#202=ORIENTED_EDGE('',*,*,#285,.F.);
#203=ORIENTED_EDGE('',*,*,#295,.T.);
#204=ORIENTED_EDGE('',*,*,#362,.T.);
#205=ORIENTED_EDGE('',*,*,#299,.F.);
#206=ORIENTED_EDGE('',*,*,#363,.F.);
#207=ORIENTED_EDGE('',*,*,#314,.T.);
#208=ORIENTED_EDGE('',*,*,#318,.F.);
#209=ORIENTED_EDGE('',*,*,#326,.F.);
#210=ORIENTED_EDGE('',*,*,#329,.F.);
#211=ORIENTED_EDGE('',*,*,#332,.F.);
#212=ORIENTED_EDGE('',*,*,#335,.F.);
#213=ORIENTED_EDGE('',*,*,#361,.F.);
#214=ORIENTED_EDGE('',*,*,#358,.T.);
#215=ORIENTED_EDGE('',*,*,#356,.T.);
#216=ORIENTED_EDGE('',*,*,#354,.T.);
#217=ORIENTED_EDGE('',*,*,#352,.F.);
#218=ORIENTED_EDGE('',*,*,#350,.F.);
#219=ORIENTED_EDGE('',*,*,#348,.T.);
#220=ORIENTED_EDGE('',*,*,#346,.F.);
#221=ORIENTED_EDGE('',*,*,#344,.F.);
#222=ORIENTED_EDGE('',*,*,#342,.T.);
#223=ORIENTED_EDGE('',*,*,#340,.T.);
#224=ORIENTED_EDGE('',*,*,#338,.F.);
#225=ORIENTED_EDGE('',*,*,#336,.F.);
#226=ORIENTED_EDGE('',*,*,#298,.F.);
#227=ORIENTED_EDGE('',*,*,#306,.T.);
#228=ORIENTED_EDGE('',*,*,#309,.F.);
#229=ORIENTED_EDGE('',*,*,#312,.T.);
#230=ORIENTED_EDGE('',*,*,#315,.F.);
#231=ORIENTED_EDGE('',*,*,#363,.T.);
#232=ORIENTED_EDGE('',*,*,#316,.T.);
#233=ORIENTED_EDGE('',*,*,#360,.T.);
#234=ORIENTED_EDGE('',*,*,#333,.T.);
#235=ORIENTED_EDGE('',*,*,#330,.T.);
#236=ORIENTED_EDGE('',*,*,#327,.T.);
#237=ORIENTED_EDGE('',*,*,#324,.T.);
#238=ORIENTED_EDGE('',*,*,#359,.F.);
#239=ORIENTED_EDGE('',*,*,#357,.F.);
#240=ORIENTED_EDGE('',*,*,#355,.F.);
#241=ORIENTED_EDGE('',*,*,#353,.T.);
#242=ORIENTED_EDGE('',*,*,#351,.T.);
#243=ORIENTED_EDGE('',*,*,#349,.F.);
#244=ORIENTED_EDGE('',*,*,#347,.T.);
#245=ORIENTED_EDGE('',*,*,#345,.T.);
#246=ORIENTED_EDGE('',*,*,#343,.F.);
#247=ORIENTED_EDGE('',*,*,#341,.F.);
#248=ORIENTED_EDGE('',*,*,#339,.T.);
#249=ORIENTED_EDGE('',*,*,#337,.T.);
#250=ORIENTED_EDGE('',*,*,#296,.T.);
#251=ORIENTED_EDGE('',*,*,#362,.F.);
#252=ORIENTED_EDGE('',*,*,#313,.T.);
#253=ORIENTED_EDGE('',*,*,#310,.F.);
#254=ORIENTED_EDGE('',*,*,#307,.T.);
#255=ORIENTED_EDGE('',*,*,#304,.F.);
#256=ORIENTED_EDGE('',*,*,#364,.T.);
#257=ORIENTED_EDGE('',*,*,#301,.T.);
#258=ORIENTED_EDGE('',*,*,#365,.F.);
#259=ORIENTED_EDGE('',*,*,#320,.F.);
#260=ORIENTED_EDGE('',*,*,#365,.T.);
#261=ORIENTED_EDGE('',*,*,#300,.T.);
#262=ORIENTED_EDGE('',*,*,#366,.F.);
#263=ORIENTED_EDGE('',*,*,#321,.F.);
#264=ORIENTED_EDGE('',*,*,#367,.T.);
#265=ORIENTED_EDGE('',*,*,#302,.T.);
#266=ORIENTED_EDGE('',*,*,#364,.F.);
#267=ORIENTED_EDGE('',*,*,#323,.F.);
#268=ORIENTED_EDGE('',*,*,#322,.T.);
#269=ORIENTED_EDGE('',*,*,#366,.T.);
#270=ORIENTED_EDGE('',*,*,#303,.F.);
#271=ORIENTED_EDGE('',*,*,#367,.F.);
#272=EDGE_CURVE('',#368,#369,#440,.T.);
#273=EDGE_CURVE('',#369,#370,#32,.T.);
#274=EDGE_CURVE('',#371,#370,#441,.T.);
#275=EDGE_CURVE('',#368,#371,#26,.T.);
#276=EDGE_CURVE('',#370,#372,#442,.T.);
#277=EDGE_CURVE('',#373,#372,#443,.T.);
#278=EDGE_CURVE('',#371,#373,#33,.F.);
#279=EDGE_CURVE('',#372,#374,#34,.T.);
#280=EDGE_CURVE('',#375,#374,#444,.T.);
#281=EDGE_CURVE('',#373,#375,#27,.T.);
#282=EDGE_CURVE('',#368,#375,#35,.F.);
#283=EDGE_CURVE('',#369,#374,#445,.T.);
#284=EDGE_CURVE('',#376,#377,#446,.T.);
#285=EDGE_CURVE('',#377,#378,#36,.T.);
#286=EDGE_CURVE('',#379,#378,#447,.T.);
#287=EDGE_CURVE('',#376,#379,#28,.T.);
#288=EDGE_CURVE('',#378,#380,#448,.T.);
#289=EDGE_CURVE('',#381,#380,#449,.T.);
#290=EDGE_CURVE('',#379,#381,#37,.F.);
#291=EDGE_CURVE('',#380,#382,#38,.T.);
#292=EDGE_CURVE('',#383,#382,#450,.T.);
#293=EDGE_CURVE('',#381,#383,#29,.T.);
#294=EDGE_CURVE('',#376,#383,#39,.F.);
#295=EDGE_CURVE('',#377,#382,#451,.T.);
#296=EDGE_CURVE('',#384,#385,#40,.T.);
#297=EDGE_CURVE('',#386,#384,#452,.T.);
#298=EDGE_CURVE('',#386,#387,#41,.T.);
#299=EDGE_CURVE('',#387,#385,#453,.T.);
#300=EDGE_CURVE('',#388,#389,#42,.T.);
#301=EDGE_CURVE('',#390,#388,#454,.T.);
#302=EDGE_CURVE('',#391,#390,#43,.T.);
#303=EDGE_CURVE('',#391,#389,#455,.T.);
#304=EDGE_CURVE('',#384,#392,#456,.T.);
#305=EDGE_CURVE('',#393,#392,#457,.T.);
#306=EDGE_CURVE('',#386,#393,#458,.T.);
#307=EDGE_CURVE('',#394,#392,#44,.T.);
#308=EDGE_CURVE('',#395,#394,#459,.T.);
#309=EDGE_CURVE('',#395,#393,#45,.T.);
#310=EDGE_CURVE('',#394,#396,#460,.T.);
#311=EDGE_CURVE('',#397,#396,#461,.T.);
#312=EDGE_CURVE('',#395,#397,#462,.T.);
#313=EDGE_CURVE('',#398,#396,#46,.T.);
#314=EDGE_CURVE('',#399,#398,#463,.T.);
#315=EDGE_CURVE('',#399,#397,#47,.T.);
#316=EDGE_CURVE('',#400,#401,#464,.T.);
#317=EDGE_CURVE('',#402,#400,#465,.T.);
#318=EDGE_CURVE('',#402,#403,#466,.T.);
#319=EDGE_CURVE('',#403,#401,#467,.T.);
#320=EDGE_CURVE('',#404,#405,#48,.F.);
#321=EDGE_CURVE('',#405,#406,#30,.T.);
#322=EDGE_CURVE('',#407,#406,#49,.F.);
#323=EDGE_CURVE('',#407,#404,#31,.T.);
#324=EDGE_CURVE('',#408,#400,#50,.T.);
#325=EDGE_CURVE('',#409,#408,#468,.T.);
#326=EDGE_CURVE('',#409,#402,#51,.T.);
#327=EDGE_CURVE('',#410,#408,#469,.T.);
#328=EDGE_CURVE('',#411,#410,#470,.T.);
#329=EDGE_CURVE('',#411,#409,#471,.T.);
#330=EDGE_CURVE('',#412,#410,#52,.T.);
#331=EDGE_CURVE('',#413,#412,#472,.T.);
#332=EDGE_CURVE('',#413,#411,#53,.T.);
#333=EDGE_CURVE('',#414,#412,#473,.T.);
#334=EDGE_CURVE('',#415,#414,#474,.T.);
#335=EDGE_CURVE('',#415,#413,#475,.T.);
#336=EDGE_CURVE('',#416,#416,#54,.T.);
#337=EDGE_CURVE('',#417,#417,#55,.T.);
#338=EDGE_CURVE('',#418,#418,#56,.T.);
#339=EDGE_CURVE('',#419,#419,#57,.T.);
#340=EDGE_CURVE('',#420,#420,#58,.T.);
#341=EDGE_CURVE('',#421,#421,#59,.T.);
#342=EDGE_CURVE('',#422,#422,#60,.T.);
#343=EDGE_CURVE('',#423,#423,#61,.T.);
#344=EDGE_CURVE('',#424,#424,#62,.T.);
#345=EDGE_CURVE('',#425,#425,#63,.T.);
#346=EDGE_CURVE('',#426,#426,#64,.T.);
#347=EDGE_CURVE('',#427,#427,#65,.T.);
#348=EDGE_CURVE('',#428,#428,#66,.T.);
#349=EDGE_CURVE('',#429,#429,#67,.T.);
#350=EDGE_CURVE('',#430,#430,#68,.T.);
#351=EDGE_CURVE('',#431,#431,#69,.T.);
#352=EDGE_CURVE('',#432,#432,#70,.T.);
#353=EDGE_CURVE('',#433,#433,#71,.T.);
#354=EDGE_CURVE('',#434,#434,#72,.T.);
#355=EDGE_CURVE('',#435,#435,#73,.T.);
#356=EDGE_CURVE('',#436,#436,#74,.T.);
#357=EDGE_CURVE('',#437,#437,#75,.T.);
#358=EDGE_CURVE('',#438,#438,#76,.T.);
#359=EDGE_CURVE('',#439,#439,#77,.T.);
#360=EDGE_CURVE('',#401,#414,#78,.T.);
#361=EDGE_CURVE('',#403,#415,#79,.T.);
#362=EDGE_CURVE('',#398,#385,#476,.T.);
#363=EDGE_CURVE('',#399,#387,#477,.T.);
#364=EDGE_CURVE('',#404,#390,#478,.T.);
#365=EDGE_CURVE('',#405,#388,#479,.T.);
#366=EDGE_CURVE('',#406,#389,#480,.T.);
#367=EDGE_CURVE('',#407,#391,#481,.T.);
#368=VERTEX_POINT('',#1068);
#369=VERTEX_POINT('',#1069);
#370=VERTEX_POINT('',#1071);
#371=VERTEX_POINT('',#1073);
#372=VERTEX_POINT('',#1086);
#373=VERTEX_POINT('',#1088);
#374=VERTEX_POINT('',#1092);
#375=VERTEX_POINT('',#1094);
#376=VERTEX_POINT('',#1110);
#377=VERTEX_POINT('',#1111);
#378=VERTEX_POINT('',#1113);
#379=VERTEX_POINT('',#1115);
#380=VERTEX_POINT('',#1128);
#381=VERTEX_POINT('',#1130);
#382=VERTEX_POINT('',#1134);
#383=VERTEX_POINT('',#1136);
#384=VERTEX_POINT('',#1152);
#385=VERTEX_POINT('',#1153);
#386=VERTEX_POINT('',#1155);
#387=VERTEX_POINT('',#1157);
#388=VERTEX_POINT('',#1161);
#389=VERTEX_POINT('',#1162);
#390=VERTEX_POINT('',#1164);
#391=VERTEX_POINT('',#1166);
#392=VERTEX_POINT('',#1169);
#393=VERTEX_POINT('',#1171);
#394=VERTEX_POINT('',#1175);
#395=VERTEX_POINT('',#1177);
#396=VERTEX_POINT('',#1181);
#397=VERTEX_POINT('',#1183);
#398=VERTEX_POINT('',#1187);
#399=VERTEX_POINT('',#1189);
#400=VERTEX_POINT('',#1193);
#401=VERTEX_POINT('',#1194);
#402=VERTEX_POINT('',#1196);
#403=VERTEX_POINT('',#1198);
#404=VERTEX_POINT('',#1202);
#405=VERTEX_POINT('',#1203);
#406=VERTEX_POINT('',#1214);
#407=VERTEX_POINT('',#1216);
#408=VERTEX_POINT('',#1228);
#409=VERTEX_POINT('',#1230);
#410=VERTEX_POINT('',#1234);
#411=VERTEX_POINT('',#1236);
#412=VERTEX_POINT('',#1240);
#413=VERTEX_POINT('',#1242);
#414=VERTEX_POINT('',#1246);
#415=VERTEX_POINT('',#1248);
#416=VERTEX_POINT('',#1252);
#417=VERTEX_POINT('',#1254);
#418=VERTEX_POINT('',#1257);
#419=VERTEX_POINT('',#1259);
#420=VERTEX_POINT('',#1262);
#421=VERTEX_POINT('',#1264);
#422=VERTEX_POINT('',#1267);
#423=VERTEX_POINT('',#1269);
#424=VERTEX_POINT('',#1272);
#425=VERTEX_POINT('',#1274);
#426=VERTEX_POINT('',#1277);
#427=VERTEX_POINT('',#1279);
#428=VERTEX_POINT('',#1282);
#429=VERTEX_POINT('',#1284);
#430=VERTEX_POINT('',#1287);
#431=VERTEX_POINT('',#1289);
#432=VERTEX_POINT('',#1292);
#433=VERTEX_POINT('',#1294);
#434=VERTEX_POINT('',#1297);
#435=VERTEX_POINT('',#1299);
#436=VERTEX_POINT('',#1302);
#437=VERTEX_POINT('',#1304);
#438=VERTEX_POINT('',#1307);
#439=VERTEX_POINT('',#1309);
#440=LINE('',#1067,#482);
#441=LINE('',#1072,#483);
#442=LINE('',#1085,#484);
#443=LINE('',#1087,#485);
#444=LINE('',#1093,#486);
#445=LINE('',#1107,#487);
#446=LINE('',#1109,#488);
#447=LINE('',#1114,#489);
#448=LINE('',#1127,#490);
#449=LINE('',#1129,#491);
#450=LINE('',#1135,#492);
#451=LINE('',#1149,#493);
#452=LINE('',#1154,#494);
#453=LINE('',#1158,#495);
#454=LINE('',#1163,#496);
#455=LINE('',#1167,#497);
#456=LINE('',#1168,#498);
#457=LINE('',#1170,#499);
#458=LINE('',#1172,#500);
#459=LINE('',#1176,#501);
#460=LINE('',#1180,#502);
#461=LINE('',#1182,#503);
#462=LINE('',#1184,#504);
#463=LINE('',#1188,#505);
#464=LINE('',#1192,#506);
#465=LINE('',#1195,#507);
#466=LINE('',#1197,#508);
#467=LINE('',#1199,#509);
#468=LINE('',#1229,#510);
#469=LINE('',#1233,#511);
#470=LINE('',#1235,#512);
#471=LINE('',#1237,#513);
#472=LINE('',#1241,#514);
#473=LINE('',#1245,#515);
#474=LINE('',#1247,#516);
#475=LINE('',#1249,#517);
#476=LINE('',#1314,#518);
#477=LINE('',#1315,#519);
#478=LINE('',#1319,#520);
#479=LINE('',#1320,#521);
#480=LINE('',#1322,#522);
#481=LINE('',#1324,#523);
#482=VECTOR('',#853,1.);
#483=VECTOR('',#856,1.);
#484=VECTOR('',#859,1.);
#485=VECTOR('',#860,1.);
#486=VECTOR('',#867,1.);
#487=VECTOR('',#872,1.);
#488=VECTOR('',#875,1.);
#489=VECTOR('',#878,1.);
#490=VECTOR('',#881,1.);
#491=VECTOR('',#882,1.);
#492=VECTOR('',#889,1.);
#493=VECTOR('',#894,1.);
#494=VECTOR('',#899,1.);
#495=VECTOR('',#902,1.);
#496=VECTOR('',#907,1.);
#497=VECTOR('',#910,1.);
#498=VECTOR('',#911,1.);
#499=VECTOR('',#912,1.);
#500=VECTOR('',#913,1.);
#501=VECTOR('',#918,1.);
#502=VECTOR('',#923,1.);
#503=VECTOR('',#924,1.);
#504=VECTOR('',#925,1.);
#505=VECTOR('',#930,1.);
#506=VECTOR('',#935,1.);
#507=VECTOR('',#936,1.);
#508=VECTOR('',#937,1.);
#509=VECTOR('',#938,1.);
#510=VECTOR('',#947,1.);
#511=VECTOR('',#952,1.);
#512=VECTOR('',#953,1.);
#513=VECTOR('',#954,1.);
#514=VECTOR('',#959,1.);
#515=VECTOR('',#964,1.);
#516=VECTOR('',#965,1.);
#517=VECTOR('',#966,1.);
#518=VECTOR('',#1047,1.);
#519=VECTOR('',#1048,1.);
#520=VECTOR('',#1055,1.);
#521=VECTOR('',#1056,1.);
#522=VECTOR('',#1059,1.);
#523=VECTOR('',#1062,1.);
#524=EDGE_LOOP('',(#80,#81,#82,#83));
#525=EDGE_LOOP('',(#84,#85,#86,#87));
#526=EDGE_LOOP('',(#88,#89,#90,#91));
#527=EDGE_LOOP('',(#92,#93,#94,#95));
#528=EDGE_LOOP('',(#96,#97,#98,#99));
#529=EDGE_LOOP('',(#100,#101,#102,#103));
#530=EDGE_LOOP('',(#104,#105,#106,#107));
#531=EDGE_LOOP('',(#108,#109,#110,#111));
#532=EDGE_LOOP('',(#112,#113,#114,#115));
#533=EDGE_LOOP('',(#116,#117,#118,#119));
#534=EDGE_LOOP('',(#120,#121,#122,#123));
#535=EDGE_LOOP('',(#124,#125,#126,#127));
#536=EDGE_LOOP('',(#128,#129,#130,#131));
#537=EDGE_LOOP('',(#132,#133,#134,#135));
#538=EDGE_LOOP('',(#136,#137,#138,#139));
#539=EDGE_LOOP('',(#140,#141,#142,#143));
#540=EDGE_LOOP('',(#144,#145,#146,#147));
#541=EDGE_LOOP('',(#148,#149,#150,#151));
#542=EDGE_LOOP('',(#152,#153,#154,#155));
#543=EDGE_LOOP('',(#156,#157,#158,#159));
#544=EDGE_LOOP('',(#160,#161,#162,#163));
#545=EDGE_LOOP('',(#164,#165,#166,#167));
#546=EDGE_LOOP('',(#168));
#547=EDGE_LOOP('',(#169));
#548=EDGE_LOOP('',(#170));
#549=EDGE_LOOP('',(#171));
#550=EDGE_LOOP('',(#172));
#551=EDGE_LOOP('',(#173));
#552=EDGE_LOOP('',(#174));
#553=EDGE_LOOP('',(#175));
#554=EDGE_LOOP('',(#176));
#555=EDGE_LOOP('',(#177));
#556=EDGE_LOOP('',(#178));
#557=EDGE_LOOP('',(#179));
#558=EDGE_LOOP('',(#180));
#559=EDGE_LOOP('',(#181));
#560=EDGE_LOOP('',(#182));
#561=EDGE_LOOP('',(#183));
#562=EDGE_LOOP('',(#184));
#563=EDGE_LOOP('',(#185));
#564=EDGE_LOOP('',(#186));
#565=EDGE_LOOP('',(#187));
#566=EDGE_LOOP('',(#188));
#567=EDGE_LOOP('',(#189));
#568=EDGE_LOOP('',(#190));
#569=EDGE_LOOP('',(#191));
#570=EDGE_LOOP('',(#192,#193,#194,#195));
#571=EDGE_LOOP('',(#196,#197,#198,#199));
#572=EDGE_LOOP('',(#200,#201,#202,#203));
#573=EDGE_LOOP('',(#204,#205,#206,#207));
#574=EDGE_LOOP('',(#208,#209,#210,#211,#212,#213));
#575=EDGE_LOOP('',(#214));
#576=EDGE_LOOP('',(#215));
#577=EDGE_LOOP('',(#216));
#578=EDGE_LOOP('',(#217));
#579=EDGE_LOOP('',(#218));
#580=EDGE_LOOP('',(#219));
#581=EDGE_LOOP('',(#220));
#582=EDGE_LOOP('',(#221));
#583=EDGE_LOOP('',(#222));
#584=EDGE_LOOP('',(#223));
#585=EDGE_LOOP('',(#224));
#586=EDGE_LOOP('',(#225));
#587=EDGE_LOOP('',(#226,#227,#228,#229,#230,#231));
#588=EDGE_LOOP('',(#232,#233,#234,#235,#236,#237));
#589=EDGE_LOOP('',(#238));
#590=EDGE_LOOP('',(#239));
#591=EDGE_LOOP('',(#240));
#592=EDGE_LOOP('',(#241));
#593=EDGE_LOOP('',(#242));
#594=EDGE_LOOP('',(#243));
#595=EDGE_LOOP('',(#244));
#596=EDGE_LOOP('',(#245));
#597=EDGE_LOOP('',(#246));
#598=EDGE_LOOP('',(#247));
#599=EDGE_LOOP('',(#248));
#600=EDGE_LOOP('',(#249));
#601=EDGE_LOOP('',(#250,#251,#252,#253,#254,#255));
#602=EDGE_LOOP('',(#256,#257,#258,#259));
#603=EDGE_LOOP('',(#260,#261,#262,#263));
#604=EDGE_LOOP('',(#264,#265,#266,#267));
#605=EDGE_LOOP('',(#268,#269,#270,#271));
#606=FACE_BOUND('',#524,.T.);
#607=FACE_BOUND('',#525,.T.);
#608=FACE_BOUND('',#526,.T.);
#609=FACE_BOUND('',#527,.T.);
#610=FACE_BOUND('',#528,.T.);
#611=FACE_BOUND('',#529,.T.);
#612=FACE_BOUND('',#530,.T.);
#613=FACE_BOUND('',#531,.T.);
#614=FACE_BOUND('',#532,.T.);
#615=FACE_BOUND('',#533,.T.);
#616=FACE_BOUND('',#534,.T.);
#617=FACE_BOUND('',#535,.T.);
#618=FACE_BOUND('',#536,.T.);
#619=FACE_BOUND('',#537,.T.);
#620=FACE_BOUND('',#538,.T.);
#621=FACE_BOUND('',#539,.T.);
#622=FACE_BOUND('',#540,.T.);
#623=FACE_BOUND('',#541,.T.);
#624=FACE_BOUND('',#542,.T.);
#625=FACE_BOUND('',#543,.T.);
#626=FACE_BOUND('',#544,.T.);
#627=FACE_BOUND('',#545,.T.);
#628=FACE_BOUND('',#546,.T.);
#629=FACE_BOUND('',#547,.T.);
#630=FACE_BOUND('',#548,.T.);
#631=FACE_BOUND('',#549,.T.);
#632=FACE_BOUND('',#550,.T.);
#633=FACE_BOUND('',#551,.T.);
#634=FACE_BOUND('',#552,.T.);
#635=FACE_BOUND('',#553,.T.);
#636=FACE_BOUND('',#554,.T.);
#637=FACE_BOUND('',#555,.T.);
#638=FACE_BOUND('',#556,.T.);
#639=FACE_BOUND('',#557,.T.);
#640=FACE_BOUND('',#558,.T.);
#641=FACE_BOUND('',#559,.T.);
#642=FACE_BOUND('',#560,.T.);
#643=FACE_BOUND('',#561,.T.);
#644=FACE_BOUND('',#562,.T.);
#645=FACE_BOUND('',#563,.T.);
#646=FACE_BOUND('',#564,.T.);
#647=FACE_BOUND('',#565,.T.);
#648=FACE_BOUND('',#566,.T.);
#649=FACE_BOUND('',#567,.T.);
#650=FACE_BOUND('',#568,.T.);
#651=FACE_BOUND('',#569,.T.);
#652=FACE_BOUND('',#570,.T.);
#653=FACE_BOUND('',#571,.T.);
#654=FACE_BOUND('',#572,.T.);
#655=FACE_BOUND('',#573,.T.);
#656=FACE_BOUND('',#574,.T.);
#657=FACE_BOUND('',#575,.T.);
#658=FACE_BOUND('',#576,.T.);
#659=FACE_BOUND('',#577,.T.);
#660=FACE_BOUND('',#578,.T.);
#661=FACE_BOUND('',#579,.T.);
#662=FACE_BOUND('',#580,.T.);
#663=FACE_BOUND('',#581,.T.);
#664=FACE_BOUND('',#582,.T.);
#665=FACE_BOUND('',#583,.T.);
#666=FACE_BOUND('',#584,.T.);
#667=FACE_BOUND('',#585,.T.);
#668=FACE_BOUND('',#586,.T.);
#669=FACE_BOUND('',#587,.T.);
#670=FACE_BOUND('',#588,.T.);
#671=FACE_BOUND('',#589,.T.);
#672=FACE_BOUND('',#590,.T.);
#673=FACE_BOUND('',#591,.T.);
#674=FACE_BOUND('',#592,.T.);
#675=FACE_BOUND('',#593,.T.);
#676=FACE_BOUND('',#594,.T.);
#677=FACE_BOUND('',#595,.T.);
#678=FACE_BOUND('',#596,.T.);
#679=FACE_BOUND('',#597,.T.);
#680=FACE_BOUND('',#598,.T.);
#681=FACE_BOUND('',#599,.T.);
#682=FACE_BOUND('',#600,.T.);
#683=FACE_BOUND('',#601,.T.);
#684=FACE_BOUND('',#602,.T.);
#685=FACE_BOUND('',#603,.T.);
#686=FACE_BOUND('',#604,.T.);
#687=FACE_BOUND('',#605,.T.);
#688=CYLINDRICAL_SURFACE('',#763,0.00825);
#689=CYLINDRICAL_SURFACE('',#767,0.00825);
#690=CYLINDRICAL_SURFACE('',#771,0.00825);
#691=CYLINDRICAL_SURFACE('',#775,0.00825);
#692=CYLINDRICAL_SURFACE('',#779,0.04025);
#693=CYLINDRICAL_SURFACE('',#785,0.04025);
#694=CYLINDRICAL_SURFACE('',#789,0.04025);
#695=CYLINDRICAL_SURFACE('',#793,0.01);
#696=CYLINDRICAL_SURFACE('',#799,0.01);
#697=CYLINDRICAL_SURFACE('',#803,0.0016);
#698=CYLINDRICAL_SURFACE('',#806,0.0016);
#699=CYLINDRICAL_SURFACE('',#809,0.0016);
#700=CYLINDRICAL_SURFACE('',#812,0.0016);
#701=CYLINDRICAL_SURFACE('',#815,0.0016);
#702=CYLINDRICAL_SURFACE('',#818,0.0016);
#703=CYLINDRICAL_SURFACE('',#821,0.0016);
#704=CYLINDRICAL_SURFACE('',#824,0.0016);
#705=CYLINDRICAL_SURFACE('',#827,0.0016);
#706=CYLINDRICAL_SURFACE('',#830,0.0016);
#707=CYLINDRICAL_SURFACE('',#833,0.0016);
#708=CYLINDRICAL_SURFACE('',#836,0.0016);
#709=CYLINDRICAL_SURFACE('',#839,0.01);
#710=CYLINDRICAL_SURFACE('',#846,0.00825);
#711=CYLINDRICAL_SURFACE('',#847,0.00825);
#712=ADVANCED_FACE('',(#606),#688,.F.);
#713=ADVANCED_FACE('',(#607),#12,.F.);
#714=ADVANCED_FACE('',(#608),#689,.F.);
#715=ADVANCED_FACE('',(#609),#13,.T.);
#716=ADVANCED_FACE('',(#610),#690,.F.);
#717=ADVANCED_FACE('',(#611),#14,.F.);
#718=ADVANCED_FACE('',(#612),#691,.F.);
#719=ADVANCED_FACE('',(#613),#15,.T.);
#720=ADVANCED_FACE('',(#614),#692,.F.);
#721=ADVANCED_FACE('',(#615,#616),#16,.F.);
#722=ADVANCED_FACE('',(#617),#693,.F.);
#723=ADVANCED_FACE('',(#618,#619),#17,.F.);
#724=ADVANCED_FACE('',(#620),#694,.F.);
#725=ADVANCED_FACE('',(#621),#18,.T.);
#726=ADVANCED_FACE('',(#622,#623),#695,.F.);
#727=ADVANCED_FACE('',(#624),#19,.T.);
#728=ADVANCED_FACE('',(#625,#626),#696,.F.);
#729=ADVANCED_FACE('',(#627),#20,.T.);
#730=ADVANCED_FACE('',(#628,#629),#697,.F.);
#731=ADVANCED_FACE('',(#630,#631),#698,.F.);
#732=ADVANCED_FACE('',(#632,#633),#699,.F.);
#733=ADVANCED_FACE('',(#634,#635),#700,.F.);
#734=ADVANCED_FACE('',(#636,#637),#701,.F.);
#735=ADVANCED_FACE('',(#638,#639),#702,.F.);
#736=ADVANCED_FACE('',(#640,#641),#703,.F.);
#737=ADVANCED_FACE('',(#642,#643),#704,.F.);
#738=ADVANCED_FACE('',(#644,#645),#705,.F.);
#739=ADVANCED_FACE('',(#646,#647),#706,.F.);
#740=ADVANCED_FACE('',(#648,#649),#707,.F.);
#741=ADVANCED_FACE('',(#650,#651),#708,.F.);
#742=ADVANCED_FACE('',(#652,#653),#709,.F.);
#743=ADVANCED_FACE('',(#654,#655),#21,.F.);
#744=ADVANCED_FACE('',(#656,#657,#658,#659,#660,#661,#662,#663,#664,#665,
#666,#667,#668,#669),#22,.T.);
#745=ADVANCED_FACE('',(#670,#671,#672,#673,#674,#675,#676,#677,#678,#679,
#680,#681,#682,#683),#23,.F.);
#746=ADVANCED_FACE('',(#684),#24,.F.);
#747=ADVANCED_FACE('',(#685),#710,.F.);
#748=ADVANCED_FACE('',(#686),#711,.F.);
#749=ADVANCED_FACE('',(#687),#25,.T.);
#750=CLOSED_SHELL('',(#712,#713,#714,#715,#716,#717,#718,#719,#720,#721,
#722,#723,#724,#725,#726,#727,#728,#729,#730,#731,#732,#733,#734,#735,#736,
#737,#738,#739,#740,#741,#742,#743,#744,#745,#746,#747,#748,#749));
#751=STYLED_ITEM('',(#752),#759);
#752=PRESENTATION_STYLE_ASSIGNMENT((#753));
#753=SURFACE_STYLE_USAGE(.BOTH.,#754);
#754=SURFACE_SIDE_STYLE('',(#755));
#755=SURFACE_STYLE_FILL_AREA(#756);
#756=FILL_AREA_STYLE('',(#757));
#757=FILL_AREA_STYLE_COLOUR('',#758);
#758=COLOUR_RGB('',0.647058823529412,0.647058823529412,0.647058823529412);
#759=MANIFOLD_SOLID_BREP('carrier',#750);
#760=SHAPE_DEFINITION_REPRESENTATION(#1332,#761);
#761=SHAPE_REPRESENTATION('carrier',(#762),#1327);
#762=AXIS2_PLACEMENT_3D('',#1065,#849,#850);
#763=AXIS2_PLACEMENT_3D('',#1066,#851,#852);
#764=AXIS2_PLACEMENT_3D('',#1070,#854,#855);
#765=AXIS2_PLACEMENT_3D('',#1084,#857,#858);
#766=AXIS2_PLACEMENT_3D('',#1089,#861,#862);
#767=AXIS2_PLACEMENT_3D('',#1090,#863,#864);
#768=AXIS2_PLACEMENT_3D('',#1091,#865,#866);
#769=AXIS2_PLACEMENT_3D('',#1105,#868,#869);
#770=AXIS2_PLACEMENT_3D('',#1106,#870,#871);
#771=AXIS2_PLACEMENT_3D('',#1108,#873,#874);
#772=AXIS2_PLACEMENT_3D('',#1112,#876,#877);
#773=AXIS2_PLACEMENT_3D('',#1126,#879,#880);
#774=AXIS2_PLACEMENT_3D('',#1131,#883,#884);
#775=AXIS2_PLACEMENT_3D('',#1132,#885,#886);
#776=AXIS2_PLACEMENT_3D('',#1133,#887,#888);
#777=AXIS2_PLACEMENT_3D('',#1147,#890,#891);
#778=AXIS2_PLACEMENT_3D('',#1148,#892,#893);
#779=AXIS2_PLACEMENT_3D('',#1150,#895,#896);
#780=AXIS2_PLACEMENT_3D('',#1151,#897,#898);
#781=AXIS2_PLACEMENT_3D('',#1156,#900,#901);
#782=AXIS2_PLACEMENT_3D('',#1159,#903,#904);
#783=AXIS2_PLACEMENT_3D('',#1160,#905,#906);
#784=AXIS2_PLACEMENT_3D('',#1165,#908,#909);
#785=AXIS2_PLACEMENT_3D('',#1173,#914,#915);
#786=AXIS2_PLACEMENT_3D('',#1174,#916,#917);
#787=AXIS2_PLACEMENT_3D('',#1178,#919,#920);
#788=AXIS2_PLACEMENT_3D('',#1179,#921,#922);
#789=AXIS2_PLACEMENT_3D('',#1185,#926,#927);
#790=AXIS2_PLACEMENT_3D('',#1186,#928,#929);
#791=AXIS2_PLACEMENT_3D('',#1190,#931,#932);
#792=AXIS2_PLACEMENT_3D('',#1191,#933,#934);
#793=AXIS2_PLACEMENT_3D('',#1200,#939,#940);
#794=AXIS2_PLACEMENT_3D('',#1201,#941,#942);
#795=AXIS2_PLACEMENT_3D('',#1215,#943,#944);
#796=AXIS2_PLACEMENT_3D('',#1227,#945,#946);
#797=AXIS2_PLACEMENT_3D('',#1231,#948,#949);
#798=AXIS2_PLACEMENT_3D('',#1232,#950,#951);
#799=AXIS2_PLACEMENT_3D('',#1238,#955,#956);
#800=AXIS2_PLACEMENT_3D('',#1239,#957,#958);
#801=AXIS2_PLACEMENT_3D('',#1243,#960,#961);
#802=AXIS2_PLACEMENT_3D('',#1244,#962,#963);
#803=AXIS2_PLACEMENT_3D('',#1250,#967,#968);
#804=AXIS2_PLACEMENT_3D('',#1251,#969,#970);
#805=AXIS2_PLACEMENT_3D('',#1253,#971,#972);
#806=AXIS2_PLACEMENT_3D('',#1255,#973,#974);
#807=AXIS2_PLACEMENT_3D('',#1256,#975,#976);
#808=AXIS2_PLACEMENT_3D('',#1258,#977,#978);
#809=AXIS2_PLACEMENT_3D('',#1260,#979,#980);
#810=AXIS2_PLACEMENT_3D('',#1261,#981,#982);
#811=AXIS2_PLACEMENT_3D('',#1263,#983,#984);
#812=AXIS2_PLACEMENT_3D('',#1265,#985,#986);
#813=AXIS2_PLACEMENT_3D('',#1266,#987,#988);
#814=AXIS2_PLACEMENT_3D('',#1268,#989,#990);
#815=AXIS2_PLACEMENT_3D('',#1270,#991,#992);
#816=AXIS2_PLACEMENT_3D('',#1271,#993,#994);
#817=AXIS2_PLACEMENT_3D('',#1273,#995,#996);
#818=AXIS2_PLACEMENT_3D('',#1275,#997,#998);
#819=AXIS2_PLACEMENT_3D('',#1276,#999,#1000);
#820=AXIS2_PLACEMENT_3D('',#1278,#1001,#1002);
#821=AXIS2_PLACEMENT_3D('',#1280,#1003,#1004);
#822=AXIS2_PLACEMENT_3D('',#1281,#1005,#1006);
#823=AXIS2_PLACEMENT_3D('',#1283,#1007,#1008);
#824=AXIS2_PLACEMENT_3D('',#1285,#1009,#1010);
#825=AXIS2_PLACEMENT_3D('',#1286,#1011,#1012);
#826=AXIS2_PLACEMENT_3D('',#1288,#1013,#1014);
#827=AXIS2_PLACEMENT_3D('',#1290,#1015,#1016);
#828=AXIS2_PLACEMENT_3D('',#1291,#1017,#1018);
#829=AXIS2_PLACEMENT_3D('',#1293,#1019,#1020);
#830=AXIS2_PLACEMENT_3D('',#1295,#1021,#1022);
#831=AXIS2_PLACEMENT_3D('',#1296,#1023,#1024);
#832=AXIS2_PLACEMENT_3D('',#1298,#1025,#1026);
#833=AXIS2_PLACEMENT_3D('',#1300,#1027,#1028);
#834=AXIS2_PLACEMENT_3D('',#1301,#1029,#1030);
#835=AXIS2_PLACEMENT_3D('',#1303,#1031,#1032);
#836=AXIS2_PLACEMENT_3D('',#1305,#1033,#1034);
#837=AXIS2_PLACEMENT_3D('',#1306,#1035,#1036);
#838=AXIS2_PLACEMENT_3D('',#1308,#1037,#1038);
#839=AXIS2_PLACEMENT_3D('',#1310,#1039,#1040);
#840=AXIS2_PLACEMENT_3D('',#1311,#1041,#1042);
#841=AXIS2_PLACEMENT_3D('',#1312,#1043,#1044);
#842=AXIS2_PLACEMENT_3D('',#1313,#1045,#1046);
#843=AXIS2_PLACEMENT_3D('',#1316,#1049,#1050);
#844=AXIS2_PLACEMENT_3D('',#1317,#1051,#1052);
#845=AXIS2_PLACEMENT_3D('',#1318,#1053,#1054);
#846=AXIS2_PLACEMENT_3D('',#1321,#1057,#1058);
#847=AXIS2_PLACEMENT_3D('',#1323,#1060,#1061);
#848=AXIS2_PLACEMENT_3D('',#1325,#1063,#1064);
#849=DIRECTION('',(0.,0.,1.));
#850=DIRECTION('',(1.,0.,0.));
#851=DIRECTION('',(0.5,0.,0.866025403784439));
#852=DIRECTION('',(0.866025403784439,0.,-0.5));
#853=DIRECTION('',(0.5,0.,0.866025403784439));
#854=DIRECTION('',(0.5,0.,0.866025403784439));
#855=DIRECTION('',(0.866025403784439,0.,-0.5));
#856=DIRECTION('',(0.5,0.,0.866025403784439));
#857=DIRECTION('',(0.,-1.,0.));
#858=DIRECTION('',(0.866025403784438,0.,0.5));
#859=DIRECTION('',(0.866025403784439,0.,-0.5));
#860=DIRECTION('',(0.5,0.,0.866025403784439));
#861=DIRECTION('',(0.,-1.,0.));
#862=DIRECTION('',(0.866025403784438,0.,0.5));
#863=DIRECTION('',(0.5,0.,0.866025403784439));
#864=DIRECTION('',(0.866025403784439,0.,-0.5));
#865=DIRECTION('',(0.5,0.,0.866025403784439));
#866=DIRECTION('',(0.866025403784439,0.,-0.5));
#867=DIRECTION('',(0.5,0.,0.866025403784439));
#868=DIRECTION('',(0.,-1.,0.));
#869=DIRECTION('',(0.866025403784438,0.,0.5));
#870=DIRECTION('',(0.,-1.,0.));
#871=DIRECTION('',(0.866025403784438,0.,0.5));
#872=DIRECTION('',(0.866025403784439,0.,-0.5));
#873=DIRECTION('',(-1.,0.,1.66533453693773E-16));
#874=DIRECTION('',(1.66533453693773E-16,0.,1.));
#875=DIRECTION('',(-1.,0.,1.66533453693773E-16));
#876=DIRECTION('',(-1.,0.,2.22044604925032E-16));
#877=DIRECTION('',(2.22044604925032E-16,0.,1.));
#878=DIRECTION('',(-1.,0.,1.66533453693773E-16));
#879=DIRECTION('',(0.,-1.,0.));
#880=DIRECTION('',(-0.866025403784439,0.,0.5));
#881=DIRECTION('',(2.22044604925032E-16,0.,1.));
#882=DIRECTION('',(-1.,0.,1.66533453693773E-16));
#883=DIRECTION('',(0.,-1.,0.));
#884=DIRECTION('',(-0.866025403784439,0.,0.5));
#885=DIRECTION('',(-1.,0.,1.66533453693773E-16));
#886=DIRECTION('',(1.66533453693773E-16,0.,1.));
#887=DIRECTION('',(-1.,0.,2.22044604925032E-16));
#888=DIRECTION('',(2.22044604925032E-16,0.,1.));
#889=DIRECTION('',(-1.,0.,1.66533453693773E-16));
#890=DIRECTION('',(0.,-1.,0.));
#891=DIRECTION('',(-0.866025403784439,0.,0.5));
#892=DIRECTION('',(0.,-1.,0.));
#893=DIRECTION('',(-0.866025403784439,0.,0.5));
#894=DIRECTION('',(2.22044604925032E-16,0.,1.));
#895=DIRECTION('',(0.,1.,0.));
#896=DIRECTION('',(0.,0.,1.));
#897=DIRECTION('',(0.,-1.,0.));
#898=DIRECTION('',(0.,0.,-1.));
#899=DIRECTION('',(0.,1.,0.));
#900=DIRECTION('',(0.,-1.,0.));
#901=DIRECTION('',(0.,0.,-1.));
#902=DIRECTION('',(0.,1.,0.));
#903=DIRECTION('',(-0.5,0.,0.866025403784439));
#904=DIRECTION('',(0.866025403784439,0.,0.5));
#905=DIRECTION('',(0.5,0.,-0.866025403784439));
#906=DIRECTION('',(-0.866025403784439,0.,-0.5));
#907=DIRECTION('',(-0.866025403784439,0.,-0.5));
#908=DIRECTION('',(0.5,0.,-0.866025403784439));
#909=DIRECTION('',(-0.866025403784439,0.,-0.5));
#910=DIRECTION('',(-0.866025403784439,0.,-0.5));
#911=DIRECTION('',(0.866025403784439,0.,0.5));
#912=DIRECTION('',(0.,1.,0.));
#913=DIRECTION('',(0.866025403784439,0.,0.5));
#914=DIRECTION('',(0.,1.,0.));
#915=DIRECTION('',(0.,0.,1.));
#916=DIRECTION('',(0.,-1.,0.));
#917=DIRECTION('',(0.,0.,-1.));
#918=DIRECTION('',(0.,1.,0.));
#919=DIRECTION('',(0.,-1.,0.));
#920=DIRECTION('',(0.,0.,-1.));
#921=DIRECTION('',(-0.5,0.,-0.866025403784438));
#922=DIRECTION('',(-0.866025403784438,0.,0.5));
#923=DIRECTION('',(-0.866025403784438,0.,0.5));
#924=DIRECTION('',(0.,1.,0.));
#925=DIRECTION('',(-0.866025403784438,0.,0.5));
#926=DIRECTION('',(0.,1.,0.));
#927=DIRECTION('',(0.,0.,1.));
#928=DIRECTION('',(0.,-1.,0.));
#929=DIRECTION('',(0.,0.,-1.));
#930=DIRECTION('',(0.,1.,0.));
#931=DIRECTION('',(0.,-1.,0.));
#932=DIRECTION('',(0.,0.,-1.));
#933=DIRECTION('',(-1.,0.,4.00617226329909E-16));
#934=DIRECTION('',(4.00617226329909E-16,0.,1.));
#935=DIRECTION('',(4.00617226329909E-16,0.,1.));
#936=DIRECTION('',(0.,1.,0.));
#937=DIRECTION('',(4.00617226329909E-16,0.,1.));
#938=DIRECTION('',(0.,1.,0.));
#939=DIRECTION('',(0.,1.,0.));
#940=DIRECTION('',(0.,0.,1.));
#941=DIRECTION('',(0.,-1.,0.));
#942=DIRECTION('',(0.,0.,-1.));
#943=DIRECTION('',(0.,-1.,0.));
#944=DIRECTION('',(0.,0.,-1.));
#945=DIRECTION('',(0.,-1.,0.));
#946=DIRECTION('',(0.,0.,-1.));
#947=DIRECTION('',(0.,1.,0.));
#948=DIRECTION('',(0.,-1.,0.));
#949=DIRECTION('',(0.,0.,-1.));
#950=DIRECTION('',(0.5,0.,0.866025403784439));
#951=DIRECTION('',(0.866025403784439,0.,-0.5));
#952=DIRECTION('',(0.866025403784439,0.,-0.5));
#953=DIRECTION('',(0.,1.,0.));
#954=DIRECTION('',(0.866025403784439,0.,-0.5));
#955=DIRECTION('',(0.,1.,0.));
#956=DIRECTION('',(0.,0.,1.));
#957=DIRECTION('',(0.,-1.,0.));
#958=DIRECTION('',(0.,0.,-1.));
#959=DIRECTION('',(0.,1.,0.));
#960=DIRECTION('',(0.,-1.,0.));
#961=DIRECTION('',(0.,0.,-1.));
#962=DIRECTION('',(0.5,0.,-0.866025403784439));
#963=DIRECTION('',(-0.866025403784439,0.,-0.5));
#964=DIRECTION('',(-0.866025403784439,0.,-0.5));
#965=DIRECTION('',(0.,1.,0.));
#966=DIRECTION('',(-0.866025403784439,0.,-0.5));
#967=DIRECTION('',(0.,1.,0.));
#968=DIRECTION('',(0.,0.,1.));
#969=DIRECTION('',(0.,-1.,0.));
#970=DIRECTION('',(0.,0.,-1.));
#971=DIRECTION('',(0.,-1.,0.));
#972=DIRECTION('',(0.,0.,-1.));
#973=DIRECTION('',(0.,1.,0.));
#974=DIRECTION('',(0.,0.,1.));
#975=DIRECTION('',(0.,-1.,0.));
#976=DIRECTION('',(0.,0.,-1.));
#977=DIRECTION('',(0.,-1.,0.));
#978=DIRECTION('',(0.,0.,-1.));
#979=DIRECTION('',(0.,1.,0.));
#980=DIRECTION('',(0.,0.,1.));
#981=DIRECTION('',(0.,1.,0.));
#982=DIRECTION('',(0.,0.,-1.));
#983=DIRECTION('',(0.,1.,0.));
#984=DIRECTION('',(0.,0.,-1.));
#985=DIRECTION('',(0.,1.,0.));
#986=DIRECTION('',(0.,0.,1.));
#987=DIRECTION('',(0.,1.,0.));
#988=DIRECTION('',(0.,0.,-1.));
#989=DIRECTION('',(0.,1.,0.));
#990=DIRECTION('',(0.,0.,-1.));
#991=DIRECTION('',(0.,1.,0.));
#992=DIRECTION('',(0.,0.,1.));
#993=DIRECTION('',(0.,-1.,0.));
#994=DIRECTION('',(0.,0.,-1.));
#995=DIRECTION('',(0.,-1.,0.));
#996=DIRECTION('',(0.,0.,-1.));
#997=DIRECTION('',(0.,1.,0.));
#998=DIRECTION('',(0.,0.,1.));
#999=DIRECTION('',(0.,-1.,0.));
#1000=DIRECTION('',(0.,0.,-1.));
#1001=DIRECTION('',(0.,-1.,0.));
#1002=DIRECTION('',(0.,0.,-1.));
#1003=DIRECTION('',(0.,1.,0.));
#1004=DIRECTION('',(0.,0.,1.));
#1005=DIRECTION('',(0.,1.,0.));
#1006=DIRECTION('',(0.,0.,-1.));
#1007=DIRECTION('',(0.,1.,0.));
#1008=DIRECTION('',(0.,0.,-1.));
#1009=DIRECTION('',(0.,1.,0.));
#1010=DIRECTION('',(0.,0.,1.));
#1011=DIRECTION('',(0.,-1.,0.));
#1012=DIRECTION('',(0.,0.,-1.));
#1013=DIRECTION('',(0.,-1.,0.));
#1014=DIRECTION('',(0.,0.,-1.));
#1015=DIRECTION('',(0.,1.,0.));
#1016=DIRECTION('',(0.,0.,1.));
#1017=DIRECTION('',(0.,-1.,0.));
#1018=DIRECTION('',(0.,0.,-1.));
#1019=DIRECTION('',(0.,-1.,0.));
#1020=DIRECTION('',(0.,0.,-1.));
#1021=DIRECTION('',(0.,1.,0.));
#1022=DIRECTION('',(0.,0.,1.));
#1023=DIRECTION('',(0.,1.,0.));
#1024=DIRECTION('',(0.,0.,-1.));
#1025=DIRECTION('',(0.,1.,0.));
#1026=DIRECTION('',(0.,0.,-1.));
#1027=DIRECTION('',(0.,1.,0.));
#1028=DIRECTION('',(0.,0.,1.));
#1029=DIRECTION('',(0.,1.,0.));
#1030=DIRECTION('',(0.,0.,-1.));
#1031=DIRECTION('',(0.,1.,0.));
#1032=DIRECTION('',(0.,0.,-1.));
#1033=DIRECTION('',(0.,1.,0.));
#1034=DIRECTION('',(0.,0.,1.));
#1035=DIRECTION('',(0.,1.,0.));
#1036=DIRECTION('',(0.,0.,-1.));
#1037=DIRECTION('',(0.,1.,0.));
#1038=DIRECTION('',(0.,0.,-1.));
#1039=DIRECTION('',(0.,1.,0.));
#1040=DIRECTION('',(0.,0.,1.));
#1041=DIRECTION('',(0.,-1.,0.));
#1042=DIRECTION('',(0.,0.,-1.));
#1043=DIRECTION('',(0.,-1.,0.));
#1044=DIRECTION('',(0.,0.,-1.));
#1045=DIRECTION('',(1.,0.,0.));
#1046=DIRECTION('',(0.,0.,-1.));
#1047=DIRECTION('',(0.,0.,-1.));
#1048=DIRECTION('',(0.,0.,-1.));
#1049=DIRECTION('',(0.,-1.,0.));
#1050=DIRECTION('',(1.,0.,0.));
#1051=DIRECTION('',(0.,-1.,0.));
#1052=DIRECTION('',(1.,0.,0.));
#1053=DIRECTION('',(0.,-1.,0.));
#1054=DIRECTION('',(0.,0.,-1.));
#1055=DIRECTION('',(0.5,0.,-0.866025403784439));
#1056=DIRECTION('',(0.5,0.,-0.866025403784439));
#1057=DIRECTION('',(0.5,0.,-0.866025403784439));
#1058=DIRECTION('',(-0.866025403784439,0.,-0.5));
#1059=DIRECTION('',(0.5,0.,-0.866025403784439));
#1060=DIRECTION('',(0.5,0.,-0.866025403784439));
#1061=DIRECTION('',(-0.866025403784439,0.,-0.5));
#1062=DIRECTION('',(0.5,0.,-0.866025403784439));
#1063=DIRECTION('',(0.,-1.,0.));
#1064=DIRECTION('',(0.,0.,-1.));
#1065=CARTESIAN_POINT('',(0.,0.,0.));
#1066=CARTESIAN_POINT('',(-0.0221626203825574,-0.03575,-0.0383867845314508));
#1067=CARTESIAN_POINT('',(-0.0268263099091018,-0.0295,-0.0356942021278836));
#1068=CARTESIAN_POINT('',(0.00954938536004371,-0.0295,0.0273103502389192));
#1069=CARTESIAN_POINT('',(0.0217523104734555,-0.0295,0.0484464365363068));
#1070=CARTESIAN_POINT('',(0.026416,-0.03575,0.0457538541327395));
#1071=CARTESIAN_POINT('',(0.0217523104734555,-0.042,0.0484464365363068));
#1072=CARTESIAN_POINT('',(-0.0268263099091018,-0.042,-0.0356942021278836));
#1073=CARTESIAN_POINT('',(0.00954938536004371,-0.042,0.0273103502389192));
#1074=CARTESIAN_POINT('',(0.0095493853600437,-0.0295,0.0273103502389192));
#1075=CARTESIAN_POINT('',(0.00850583604751051,-0.0302584073019301,0.0272632785645064));
#1076=CARTESIAN_POINT('',(0.0071432877158989,-0.0316013776541334,0.0269532686889639));
#1077=CARTESIAN_POINT('',(0.00593157116108046,-0.0338304139704702,0.0264647096988679));
#1078=CARTESIAN_POINT('',(0.00555512433288335,-0.0357545491637021,0.0262769724335039));
#1079=CARTESIAN_POINT('',(0.00593366292033964,-0.0376723271023713,0.0264656103311667));
#1080=CARTESIAN_POINT('',(0.00684015557801847,-0.0393439534160917,0.02683106728105));
#1081=CARTESIAN_POINT('',(0.00805735842681823,-0.0407911075557696,0.0271615724990201));
#1082=CARTESIAN_POINT('',(0.00902815690486478,-0.0416211933047785,0.02728683903936));
#1083=CARTESIAN_POINT('',(0.00954938536004368,-0.042,0.0273103502389193));
#1084=CARTESIAN_POINT('',(-0.0221626203825574,-0.042,-0.0383867845314508));
#1085=CARTESIAN_POINT('',(0.026416,-0.042,0.0457538541327395));
#1086=CARTESIAN_POINT('',(0.0310796895265444,-0.042,0.0430612717291722));
#1087=CARTESIAN_POINT('',(-0.017498930856013,-0.042,-0.041079366935018));
#1088=CARTESIAN_POINT('',(0.0188767644131325,-0.042,0.0219251854317848));
#1089=CARTESIAN_POINT('',(0.01,-0.042,0.0173205080756888));
#1090=CARTESIAN_POINT('',(-0.0221626203825574,-0.03575,-0.0383867845314508));
#1091=CARTESIAN_POINT('',(0.026416,-0.03575,0.0457538541327395));
#1092=CARTESIAN_POINT('',(0.0310796895265444,-0.0295,0.0430612717291722));
#1093=CARTESIAN_POINT('',(-0.017498930856013,-0.0295,-0.0410793669350181));
#1094=CARTESIAN_POINT('',(0.0188767644131325,-0.0295,0.0219251854317848));
#1095=CARTESIAN_POINT('',(0.0188767644131325,-0.042,0.0219251854317848));
#1096=CARTESIAN_POINT('',(0.0193577738035589,-0.0412415926980699,0.0209979093798228));
#1097=CARTESIAN_POINT('',(0.0197705715417209,-0.0398986223458666,0.0196629029729919));
#1098=CARTESIAN_POINT('',(0.0199533253224598,-0.0376695860295298,0.018369246159285));
#1099=CARTESIAN_POINT('',(0.0199789634955161,-0.0357454508362979,0.0179493650102103));
#1100=CARTESIAN_POINT('',(0.0199530594132804,-0.0338276728976287,0.0183715079920915));
#1101=CARTESIAN_POINT('',(0.0198163080870295,-0.0321560465839083,0.019339282136927));
#1102=CARTESIAN_POINT('',(0.019493932577475,-0.0307088924442304,0.0205586633345314));
#1103=CARTESIAN_POINT('',(0.0191170173446302,-0.0298788066952216,0.0214620327486449));
#1104=CARTESIAN_POINT('',(0.0188767644131325,-0.0295,0.0219251854317848));
#1105=CARTESIAN_POINT('',(-0.0221626203825574,-0.0295,-0.0383867845314508));
#1106=CARTESIAN_POINT('',(0.01,-0.0295,0.0173205080756888));
#1107=CARTESIAN_POINT('',(0.026416,-0.0295,0.0457538541327395));
#1108=CARTESIAN_POINT('',(0.0443252407651146,-0.03575,-6.24500451351651E-17));
#1109=CARTESIAN_POINT('',(0.0443252407651146,-0.0295,-0.00538516480713456));
#1110=CARTESIAN_POINT('',(-0.0284261497731764,-0.0295,-0.00538516480713455));
#1111=CARTESIAN_POINT('',(-0.052832,-0.0295,-0.00538516480713455));
#1112=CARTESIAN_POINT('',(-0.052832,-0.03575,-4.85722573273506E-17));
#1113=CARTESIAN_POINT('',(-0.052832,-0.042,-0.00538516480713455));
#1114=CARTESIAN_POINT('',(0.0443252407651146,-0.042,-0.00538516480713456));
#1115=CARTESIAN_POINT('',(-0.0284261497731764,-0.042,-0.00538516480713455));
#1116=CARTESIAN_POINT('',(-0.0284261497731763,-0.0295,-0.00538516480713455));
#1117=CARTESIAN_POINT('',(-0.0278636098510695,-0.0302584073019301,-0.00626536918468364));
#1118=CARTESIAN_POINT('',(-0.0269138592576199,-0.0316013776541334,-0.00729036571597218));
#1119=CARTESIAN_POINT('',(-0.0258848964835403,-0.0338304139704703,-0.0080954635395831));
#1120=CARTESIAN_POINT('',(-0.0255340878283995,-0.0357545491637021,-0.00832760742329388));
#1121=CARTESIAN_POINT('',(-0.0258867223336202,-0.0376723271023714,-0.00809410233907544));
#1122=CARTESIAN_POINT('',(-0.026656463665048,-0.0393439534160917,-0.00749178514412314));
#1123=CARTESIAN_POINT('',(-0.0275512910042934,-0.0407911075557696,-0.00660290916448884));
#1124=CARTESIAN_POINT('',(-0.0281451742494951,-0.0416211933047785,-0.00582480629071518));
#1125=CARTESIAN_POINT('',(-0.0284261497731763,-0.042,-0.00538516480713457));
#1126=CARTESIAN_POINT('',(0.0443252407651146,-0.042,-6.24500451351651E-17));
#1127=CARTESIAN_POINT('',(-0.052832,-0.042,-4.85722573273506E-17));
#1128=CARTESIAN_POINT('',(-0.052832,-0.042,0.00538516480713445));
#1129=CARTESIAN_POINT('',(0.0443252407651146,-0.042,0.00538516480713444));
#1130=CARTESIAN_POINT('',(-0.0284261497731764,-0.042,0.00538516480713445));
#1131=CARTESIAN_POINT('',(-0.02,-0.042,1.7347234759768E-18));
#1132=CARTESIAN_POINT('',(0.0443252407651146,-0.03575,-5.89805981832114E-17));
#1133=CARTESIAN_POINT('',(-0.052832,-0.03575,-4.5102810375397E-17));
#1134=CARTESIAN_POINT('',(-0.052832,-0.0295,0.00538516480713446));
#1135=CARTESIAN_POINT('',(0.0443252407651146,-0.0295,0.00538516480713444));
#1136=CARTESIAN_POINT('',(-0.0284261497731764,-0.0295,0.00538516480713445));
#1137=CARTESIAN_POINT('',(-0.0284261497731764,-0.042,0.00538516480713444));
#1138=CARTESIAN_POINT('',(-0.0278636098510696,-0.0412415926980699,0.00626536918468353));
#1139=CARTESIAN_POINT('',(-0.02691385925762,-0.0398986223458666,0.00729036571597207));
#1140=CARTESIAN_POINT('',(-0.0258848964835404,-0.0376695860295298,0.008095463539583));
#1141=CARTESIAN_POINT('',(-0.0255340878283997,-0.0357454508362979,0.00832760742329378));
#1142=CARTESIAN_POINT('',(-0.0258867223336203,-0.0338276728976287,0.00809410233907536));
#1143=CARTESIAN_POINT('',(-0.0266564636650481,-0.0321560465839083,0.00749178514412305));
#1144=CARTESIAN_POINT('',(-0.0275512910042934,-0.0307088924442304,0.00660290916448876));
#1145=CARTESIAN_POINT('',(-0.0281451742494952,-0.0298788066952216,0.00582480629071509));
#1146=CARTESIAN_POINT('',(-0.0284261497731764,-0.0295,0.00538516480713448));
#1147=CARTESIAN_POINT('',(0.0443252407651146,-0.0295,-6.24500451351651E-17));
#1148=CARTESIAN_POINT('',(-0.02,-0.0295,1.7347234759768E-18));
#1149=CARTESIAN_POINT('',(-0.052832,-0.0295,-4.85722573273506E-17));
#1150=CARTESIAN_POINT('',(-0.031725,-0.0465,-0.0549493118701227));
#1151=CARTESIAN_POINT('',(-0.031725,-0.025,-0.0549493118701227));
#1152=CARTESIAN_POINT('',(0.00850875923488541,-0.025,-0.0560926044089218));
#1153=CARTESIAN_POINT('',(-0.052832,-0.025,-0.0206775005523647));
#1154=CARTESIAN_POINT('',(0.00850875923488541,-0.0465,-0.0560926044089218));
#1155=CARTESIAN_POINT('',(0.00850875923488541,-0.0465,-0.0560926044089218));
#1156=CARTESIAN_POINT('',(-0.031725,-0.0465,-0.0549493118701227));
#1157=CARTESIAN_POINT('',(-0.052832,-0.0465,-0.0206775005523647));
#1158=CARTESIAN_POINT('',(-0.052832,-0.0465,-0.0206775005523647));
#1159=CARTESIAN_POINT('',(0.026416,-0.0465,-0.0457538541327395));
#1160=CARTESIAN_POINT('',(0.026416,-0.03575,-0.0457538541327395));
#1161=CARTESIAN_POINT('',(0.0217523104734557,-0.042,-0.0484464365363067));
#1162=CARTESIAN_POINT('',(0.0217523104734557,-0.0295,-0.0484464365363067));
#1163=CARTESIAN_POINT('',(0.026416,-0.042,-0.0457538541327395));
#1164=CARTESIAN_POINT('',(0.0310796895265445,-0.042,-0.0430612717291722));
#1165=CARTESIAN_POINT('',(0.026416,-0.03575,-0.0457538541327395));
#1166=CARTESIAN_POINT('',(0.0310796895265445,-0.0295,-0.0430612717291722));
#1167=CARTESIAN_POINT('',(0.026416,-0.0295,-0.0457538541327395));
#1168=CARTESIAN_POINT('',(0.026416,-0.025,-0.0457538541327395));
#1169=CARTESIAN_POINT('',(0.0443232407651147,-0.025,-0.0354151038565571));
#1170=CARTESIAN_POINT('',(0.0443232407651147,-0.0465,-0.0354151038565571));
#1171=CARTESIAN_POINT('',(0.0443232407651147,-0.0465,-0.0354151038565571));
#1172=CARTESIAN_POINT('',(0.026416,-0.0465,-0.0457538541327395));
#1173=CARTESIAN_POINT('',(0.06345,-0.0465,2.77555756156289E-17));
#1174=CARTESIAN_POINT('',(0.06345,-0.025,2.77555756156289E-17));
#1175=CARTESIAN_POINT('',(0.0443232407651147,-0.025,0.0354151038565571));
#1176=CARTESIAN_POINT('',(0.0443232407651147,-0.0465,0.0354151038565571));
#1177=CARTESIAN_POINT('',(0.0443232407651147,-0.0465,0.0354151038565571));
#1178=CARTESIAN_POINT('',(0.06345,-0.0465,2.77555756156289E-17));
#1179=CARTESIAN_POINT('',(0.026416,-0.0465,0.0457538541327395));
#1180=CARTESIAN_POINT('',(0.026416,-0.025,0.0457538541327395));
#1181=CARTESIAN_POINT('',(0.00850875923488541,-0.025,0.0560926044089219));
#1182=CARTESIAN_POINT('',(0.00850875923488541,-0.0465,0.0560926044089219));
#1183=CARTESIAN_POINT('',(0.00850875923488541,-0.0465,0.0560926044089219));
#1184=CARTESIAN_POINT('',(0.026416,-0.0465,0.0457538541327395));
#1185=CARTESIAN_POINT('',(-0.031725,-0.0465,0.0549493118701226));
#1186=CARTESIAN_POINT('',(-0.031725,-0.025,0.0549493118701226));
#1187=CARTESIAN_POINT('',(-0.052832,-0.025,0.0206775005523647));
#1188=CARTESIAN_POINT('',(-0.052832,-0.0465,0.0206775005523647));
#1189=CARTESIAN_POINT('',(-0.052832,-0.0465,0.0206775005523647));
#1190=CARTESIAN_POINT('',(-0.031725,-0.0465,0.0549493118701226));
#1191=CARTESIAN_POINT('',(0.02,-0.0465,-1.04083408558608E-17));
#1192=CARTESIAN_POINT('',(0.02,-0.025,-1.04083408558608E-17));
#1193=CARTESIAN_POINT('',(0.02,-0.025,-0.0173205080756888));
#1194=CARTESIAN_POINT('',(0.02,-0.025,0.0173205080756888));
#1195=CARTESIAN_POINT('',(0.02,-0.0465,-0.0173205080756888));
#1196=CARTESIAN_POINT('',(0.02,-0.0465,-0.0173205080756888));
#1197=CARTESIAN_POINT('',(0.02,-0.0465,-1.04083408558608E-17));
#1198=CARTESIAN_POINT('',(0.02,-0.0465,0.0173205080756888));
#1199=CARTESIAN_POINT('',(0.02,-0.0465,0.0173205080756888));
#1200=CARTESIAN_POINT('',(0.01,-0.0465,-0.0173205080756888));
#1201=CARTESIAN_POINT('',(0.01,-0.042,-0.0173205080756888));
#1202=CARTESIAN_POINT('',(0.0188767644131326,-0.042,-0.0219251854317847));
#1203=CARTESIAN_POINT('',(0.00954938536004383,-0.042,-0.0273103502389192));
#1204=CARTESIAN_POINT('',(0.00954938536004384,-0.042,-0.0273103502389192));
#1205=CARTESIAN_POINT('',(0.00850583604751065,-0.0412415926980699,-0.0272632785645064));
#1206=CARTESIAN_POINT('',(0.00714328771589909,-0.0398986223458666,-0.026953268688964));
#1207=CARTESIAN_POINT('',(0.00593157116108069,-0.0376695860295297,-0.026464709698868));
#1208=CARTESIAN_POINT('',(0.0055551243328836,-0.0357454508362979,-0.0262769724335041));
#1209=CARTESIAN_POINT('',(0.00593366292033989,-0.0338276728976287,-0.0264656103311669));
#1210=CARTESIAN_POINT('',(0.00684015557801864,-0.0321560465839083,-0.0268310672810501));
#1211=CARTESIAN_POINT('',(0.00805735842681841,-0.0307088924442304,-0.0271615724990202));
#1212=CARTESIAN_POINT('',(0.0090281569048649,-0.0298788066952216,-0.02728683903936));
#1213=CARTESIAN_POINT('',(0.0095493853600438,-0.0295,-0.0273103502389192));
#1214=CARTESIAN_POINT('',(0.00954938536004383,-0.0295,-0.0273103502389192));
#1215=CARTESIAN_POINT('',(0.01,-0.0295,-0.0173205080756888));
#1216=CARTESIAN_POINT('',(0.0188767644131326,-0.0295,-0.0219251854317847));
#1217=CARTESIAN_POINT('',(0.0188767644131326,-0.0295,-0.0219251854317847));
#1218=CARTESIAN_POINT('',(0.019357773803559,-0.0302584073019301,-0.0209979093798227));
#1219=CARTESIAN_POINT('',(0.019770571541721,-0.0316013776541334,-0.0196629029729918));
#1220=CARTESIAN_POINT('',(0.0199533253224598,-0.0338304139704702,-0.0183692461592848));
#1221=CARTESIAN_POINT('',(0.0199789634955161,-0.0357545491637021,-0.01794936501021));
#1222=CARTESIAN_POINT('',(0.0199530594132805,-0.0376723271023713,-0.0183715079920913));
#1223=CARTESIAN_POINT('',(0.0198163080870295,-0.0393439534160917,-0.0193392821369268));
#1224=CARTESIAN_POINT('',(0.0194939325774751,-0.0407911075557696,-0.0205586633345313));
#1225=CARTESIAN_POINT('',(0.0191170173446303,-0.0416211933047784,-0.0214620327486448));
#1226=CARTESIAN_POINT('',(0.0188767644131326,-0.042,-0.0219251854317847));
#1227=CARTESIAN_POINT('',(0.01,-0.025,-0.0173205080756888));
#1228=CARTESIAN_POINT('',(0.005,-0.025,-0.0259807621135331));
#1229=CARTESIAN_POINT('',(0.005,-0.0465,-0.0259807621135331));
#1230=CARTESIAN_POINT('',(0.005,-0.0465,-0.0259807621135331));
#1231=CARTESIAN_POINT('',(0.01,-0.0465,-0.0173205080756888));
#1232=CARTESIAN_POINT('',(-0.01,-0.0465,-0.0173205080756888));
#1233=CARTESIAN_POINT('',(-0.01,-0.025,-0.0173205080756888));
#1234=CARTESIAN_POINT('',(-0.025,-0.025,-0.00866025403784437));
#1235=CARTESIAN_POINT('',(-0.025,-0.0465,-0.00866025403784437));
#1236=CARTESIAN_POINT('',(-0.025,-0.0465,-0.00866025403784437));
#1237=CARTESIAN_POINT('',(-0.01,-0.0465,-0.0173205080756888));
#1238=CARTESIAN_POINT('',(-0.02,-0.0465,1.38777878078145E-17));
#1239=CARTESIAN_POINT('',(-0.02,-0.025,1.38777878078145E-17));
#1240=CARTESIAN_POINT('',(-0.025,-0.025,0.0086602540378444));
#1241=CARTESIAN_POINT('',(-0.025,-0.0465,0.0086602540378444));
#1242=CARTESIAN_POINT('',(-0.025,-0.0465,0.0086602540378444));
#1243=CARTESIAN_POINT('',(-0.02,-0.0465,1.38777878078145E-17));
#1244=CARTESIAN_POINT('',(-0.01,-0.0465,0.0173205080756888));
#1245=CARTESIAN_POINT('',(-0.01,-0.025,0.0173205080756888));
#1246=CARTESIAN_POINT('',(0.005,-0.025,0.0259807621135331));
#1247=CARTESIAN_POINT('',(0.005,-0.0465,0.0259807621135331));
#1248=CARTESIAN_POINT('',(0.005,-0.0465,0.0259807621135331));
#1249=CARTESIAN_POINT('',(-0.01,-0.0465,0.0173205080756888));
#1250=CARTESIAN_POINT('',(-0.0329557167386051,-0.0465,0.012));
#1251=CARTESIAN_POINT('',(-0.0329557167386051,-0.0465,0.012));
#1252=CARTESIAN_POINT('',(-0.0329557167386051,-0.0465,0.0104));
#1253=CARTESIAN_POINT('',(-0.0329557167386051,-0.025,0.012));
#1254=CARTESIAN_POINT('',(-0.0329557167386051,-0.025,0.0104));
#1255=CARTESIAN_POINT('',(-0.043832,-0.0465,0.012));
#1256=CARTESIAN_POINT('',(-0.043832,-0.0465,0.012));
#1257=CARTESIAN_POINT('',(-0.043832,-0.0465,0.0104));
#1258=CARTESIAN_POINT('',(-0.043832,-0.025,0.012));
#1259=CARTESIAN_POINT('',(-0.043832,-0.025,0.0104));
#1260=CARTESIAN_POINT('',(-0.0329557167386051,-0.0465,-0.012));
#1261=CARTESIAN_POINT('',(-0.0329557167386051,-0.0465,-0.012));
#1262=CARTESIAN_POINT('',(-0.0329557167386051,-0.0465,-0.0136));
#1263=CARTESIAN_POINT('',(-0.0329557167386051,-0.025,-0.012));
#1264=CARTESIAN_POINT('',(-0.0329557167386051,-0.025,-0.0136));
#1265=CARTESIAN_POINT('',(0.0323083048454133,-0.0465,-0.0319596254986795));
#1266=CARTESIAN_POINT('',(0.0323083048454133,-0.0465,-0.0319596254986795));
#1267=CARTESIAN_POINT('',(0.0323083048454133,-0.0465,-0.0335596254986795));
#1268=CARTESIAN_POINT('',(0.0323083048454133,-0.025,-0.0319596254986795));
#1269=CARTESIAN_POINT('',(0.0323083048454133,-0.025,-0.0335596254986795));
#1270=CARTESIAN_POINT('',(0.0115236951545867,-0.0465,-0.0439596254986796));
#1271=CARTESIAN_POINT('',(0.0115236951545867,-0.0465,-0.0439596254986796));
#1272=CARTESIAN_POINT('',(0.0115236951545867,-0.0465,-0.0455596254986795));
#1273=CARTESIAN_POINT('',(0.0115236951545867,-0.025,-0.0439596254986796));
#1274=CARTESIAN_POINT('',(0.0115236951545867,-0.025,-0.0455596254986795));
#1275=CARTESIAN_POINT('',(0.0060855535238893,-0.0465,-0.0345404878955561));
#1276=CARTESIAN_POINT('',(0.0060855535238893,-0.0465,-0.0345404878955561));
#1277=CARTESIAN_POINT('',(0.0060855535238893,-0.0465,-0.0361404878955561));
#1278=CARTESIAN_POINT('',(0.0060855535238893,-0.025,-0.0345404878955561));
#1279=CARTESIAN_POINT('',(0.0060855535238893,-0.025,-0.0361404878955561));
#1280=CARTESIAN_POINT('',(0.0115236951545867,-0.0465,0.0439596254986796));
#1281=CARTESIAN_POINT('',(0.0115236951545867,-0.0465,0.0439596254986796));
#1282=CARTESIAN_POINT('',(0.0115236951545867,-0.0465,0.0423596254986796));
#1283=CARTESIAN_POINT('',(0.0115236951545867,-0.025,0.0439596254986796));
#1284=CARTESIAN_POINT('',(0.0115236951545867,-0.025,0.0423596254986796));
#1285=CARTESIAN_POINT('',(0.0323083048454133,-0.0465,0.0319596254986795));
#1286=CARTESIAN_POINT('',(0.0323083048454133,-0.0465,0.0319596254986795));
#1287=CARTESIAN_POINT('',(0.0323083048454133,-0.0465,0.0303596254986795));
#1288=CARTESIAN_POINT('',(0.0323083048454133,-0.025,0.0319596254986795));
#1289=CARTESIAN_POINT('',(0.0323083048454133,-0.025,0.0303596254986795));
#1290=CARTESIAN_POINT('',(0.0268701632147159,-0.0465,0.0225404878955561));
#1291=CARTESIAN_POINT('',(0.0268701632147159,-0.0465,0.0225404878955561));
#1292=CARTESIAN_POINT('',(0.0268701632147159,-0.0465,0.0209404878955561));
#1293=CARTESIAN_POINT('',(0.0268701632147159,-0.025,0.0225404878955561));
#1294=CARTESIAN_POINT('',(0.0268701632147159,-0.025,0.0209404878955561));
#1295=CARTESIAN_POINT('',(0.0060855535238893,-0.0465,0.0345404878955561));
#1296=CARTESIAN_POINT('',(0.0060855535238893,-0.0465,0.0345404878955561));
#1297=CARTESIAN_POINT('',(0.0060855535238893,-0.0465,0.0329404878955561));
#1298=CARTESIAN_POINT('',(0.0060855535238893,-0.025,0.0345404878955561));
#1299=CARTESIAN_POINT('',(0.0060855535238893,-0.025,0.0329404878955561));
#1300=CARTESIAN_POINT('',(0.0268701632147159,-0.0465,-0.0225404878955561));
#1301=CARTESIAN_POINT('',(0.0268701632147159,-0.0465,-0.0225404878955561));
#1302=CARTESIAN_POINT('',(0.0268701632147159,-0.0465,-0.0241404878955561));
#1303=CARTESIAN_POINT('',(0.0268701632147159,-0.025,-0.0225404878955561));
#1304=CARTESIAN_POINT('',(0.0268701632147159,-0.025,-0.0241404878955561));
#1305=CARTESIAN_POINT('',(-0.043832,-0.0465,-0.012));
#1306=CARTESIAN_POINT('',(-0.043832,-0.0465,-0.012));
#1307=CARTESIAN_POINT('',(-0.043832,-0.0465,-0.0136));
#1308=CARTESIAN_POINT('',(-0.043832,-0.025,-0.012));
#1309=CARTESIAN_POINT('',(-0.043832,-0.025,-0.0136));
#1310=CARTESIAN_POINT('',(0.01,-0.0465,0.0173205080756888));
#1311=CARTESIAN_POINT('',(0.01,-0.025,0.0173205080756888));
#1312=CARTESIAN_POINT('',(0.01,-0.0465,0.0173205080756888));
#1313=CARTESIAN_POINT('',(-0.052832,-0.0465,0.));
#1314=CARTESIAN_POINT('',(-0.052832,-0.025,0.));
#1315=CARTESIAN_POINT('',(-0.052832,-0.0465,0.));
#1316=CARTESIAN_POINT('',(0.0183360858978996,-0.0465,0.));
#1317=CARTESIAN_POINT('',(0.0183360858978996,-0.025,0.));
#1318=CARTESIAN_POINT('',(-0.0221626203825573,-0.042,0.0383867845314509));
#1319=CARTESIAN_POINT('',(-0.0174989308560129,-0.042,0.0410793669350181));
#1320=CARTESIAN_POINT('',(-0.0268263099091017,-0.042,0.0356942021278836));
#1321=CARTESIAN_POINT('',(-0.0221626203825573,-0.03575,0.0383867845314509));
#1322=CARTESIAN_POINT('',(-0.0268263099091017,-0.0295,0.0356942021278836));
#1323=CARTESIAN_POINT('',(-0.0221626203825573,-0.03575,0.0383867845314509));
#1324=CARTESIAN_POINT('',(-0.0174989308560129,-0.0295,0.0410793669350181));
#1325=CARTESIAN_POINT('',(-0.0221626203825573,-0.0295,0.0383867845314509));
#1326=MECHANICAL_DESIGN_GEOMETRIC_PRESENTATION_REPRESENTATION('',(#751),
#1327);
#1327=(
GEOMETRIC_REPRESENTATION_CONTEXT(3)
GLOBAL_UNCERTAINTY_ASSIGNED_CONTEXT((#1328))
GLOBAL_UNIT_ASSIGNED_CONTEXT((#1331,#1330,#1329))
REPRESENTATION_CONTEXT('carrier','TOP_LEVEL_ASSEMBLY_PART')
);
#1328=UNCERTAINTY_MEASURE_WITH_UNIT(LENGTH_MEASURE(2.E-5),#1331,
'DISTANCE_ACCURACY_VALUE','Maximum Tolerance applied to model');
#1329=(
NAMED_UNIT(*)
SI_UNIT($,.STERADIAN.)
SOLID_ANGLE_UNIT()
);
#1330=(
NAMED_UNIT(*)
PLANE_ANGLE_UNIT()
SI_UNIT($,.RADIAN.)
);
#1331=(
LENGTH_UNIT()
NAMED_UNIT(*)
SI_UNIT($,.METRE.)
);
#1332=PRODUCT_DEFINITION_SHAPE('','',#1333);
#1333=PRODUCT_DEFINITION('','',#1335,#1334);
#1334=PRODUCT_DEFINITION_CONTEXT('',#1341,'design');
#1335=PRODUCT_DEFINITION_FORMATION_WITH_SPECIFIED_SOURCE('','',#1337,
 .NOT_KNOWN.);
#1336=PRODUCT_RELATED_PRODUCT_CATEGORY('','',(#1337));
#1337=PRODUCT('carrier','carrier','carrier',(#1339));
#1338=PRODUCT_CATEGORY('','');
#1339=PRODUCT_CONTEXT('',#1341,'mechanical');
#1340=APPLICATION_PROTOCOL_DEFINITION('international standard',
'ap242_managed_model_based_3d_engineering',2020,#1341);
#1341=APPLICATION_CONTEXT('managed model based 3d engineering');
ENDSEC;
END-ISO-10303-21;
