ISO-10303-21;
HEADER;
/* Generated by software containing ST-Developer
 * from STEP Tools, Inc. (www.steptools.com) 
 */
/* OPTION: using custom renumber hook */

FILE_DESCRIPTION(
/* description */ ('STEP AP242 Edition 2',
'CAx-IF Rec.Pracs.---Representation and Presentation of Product Manufa
cturing Information (PMI)---4.0---2014-10-13',
'CAx-IF Rec.Pracs.---3D Tessellated Geometry---0.4---2014-09-14','2;1',
'CAx-IF Rec.Pracs.---User Defined Attributes---1.5---2016-08-15'),
/* implementation_level */ '2;1');

FILE_NAME(
/* name */ 'MAIN - motorHub (2)',
/* time_stamp */ '2025-12-27T00:10:35Z',
/* author */ (''),
/* organization */ (''),
/* preprocessor_version */ 'ST-DEVELOPER v20',
/* originating_system */ 'ONSHAPE BY PTC INC, 1.208',
/* authorisation */ '  ');

FILE_SCHEMA (('AP242_MANAGED_MODEL_BASED_3D_ENGINEERING_MIM_LF { 1 0 10303 442 3 1 4 }'));
ENDSEC;

DATA;
#10=SHAPE_REPRESENTATION_RELATIONSHIP('','',#349,#11);
#11=ADVANCED_BREP_SHAPE_REPRESENTATION('',(#347),#633);
#12=B_SPLINE_CURVE_WITH_KNOTS('',3,(#539,#540,#541,#542,#543),
 .UNSPECIFIED.,.F.,.F.,(4,1,4),(0.,0.000509164142787482,0.00101832828557496),
 .UNSPECIFIED.);
#13=B_SPLINE_CURVE_WITH_KNOTS('',3,(#547,#548,#549,#550,#551),
 .UNSPECIFIED.,.F.,.F.,(4,1,4),(0.,0.000513547867351381,0.00102709573470276),
 .UNSPECIFIED.);
#14=B_SPLINE_CURVE_WITH_KNOTS('',3,(#554,#555,#556,#557,#558),
 .UNSPECIFIED.,.F.,.F.,(4,1,4),(0.,0.000509164142787481,0.00101832828557496),
 .UNSPECIFIED.);
#15=B_SPLINE_CURVE_WITH_KNOTS('',3,(#562,#563,#564,#565,#566),
 .UNSPECIFIED.,.F.,.F.,(4,1,4),(0.,0.000513547867351383,0.00102709573470277),
 .UNSPECIFIED.);
#16=B_SPLINE_CURVE_WITH_KNOTS('',3,(#577,#578,#579,#580,#581),
 .UNSPECIFIED.,.F.,.F.,(4,1,4),(0.,0.000513547867351408,0.00102709573470282),
 .UNSPECIFIED.);
#17=B_SPLINE_CURVE_WITH_KNOTS('',3,(#585,#586,#587,#588,#589),
 .UNSPECIFIED.,.F.,.F.,(4,1,4),(0.,0.000509164142787492,0.00101832828557498),
 .UNSPECIFIED.);
#18=B_SPLINE_CURVE_WITH_KNOTS('',3,(#590,#591,#592,#593,#594),
 .UNSPECIFIED.,.F.,.F.,(4,1,4),(0.,0.000513547867351416,0.00102709573470283),
 .UNSPECIFIED.);
#19=B_SPLINE_CURVE_WITH_KNOTS('',3,(#597,#598,#599,#600,#601),
 .UNSPECIFIED.,.F.,.F.,(4,1,4),(0.,0.000509164142787491,0.00101832828557498),
 .UNSPECIFIED.);
#20=TOROIDAL_SURFACE('',#362,0.007,0.001);
#21=TOROIDAL_SURFACE('',#380,0.0075,0.0005);
#22=TOROIDAL_SURFACE('',#381,0.0075,0.0005);
#23=TOROIDAL_SURFACE('',#382,0.0075,0.0005);
#24=TOROIDAL_SURFACE('',#383,0.0075,0.0005);
#25=CYLINDRICAL_SURFACE('',#353,0.008);
#26=CYLINDRICAL_SURFACE('',#368,0.008);
#27=CYLINDRICAL_SURFACE('',#372,0.008);
#28=CYLINDRICAL_SURFACE('',#384,0.001);
#29=CYLINDRICAL_SURFACE('',#387,0.001);
#30=CYLINDRICAL_SURFACE('',#390,0.003);
#31=CYLINDRICAL_SURFACE('',#396,0.002);
#32=CIRCLE('',#352,0.007);
#33=CIRCLE('',#354,0.008);
#34=CIRCLE('',#355,0.008);
#35=CIRCLE('',#357,0.007);
#36=CIRCLE('',#359,0.003);
#37=CIRCLE('',#360,0.001);
#38=CIRCLE('',#361,0.001);
#39=CIRCLE('',#363,0.007);
#40=CIRCLE('',#364,0.007);
#41=CIRCLE('',#366,0.0075);
#42=CIRCLE('',#369,0.008);
#43=CIRCLE('',#370,0.008);
#44=CIRCLE('',#373,0.008);
#45=CIRCLE('',#374,0.008);
#46=CIRCLE('',#376,0.0075);
#47=CIRCLE('',#377,0.0075);
#48=CIRCLE('',#379,0.0075);
#49=CIRCLE('',#385,0.001);
#50=CIRCLE('',#388,0.001);
#51=CIRCLE('',#391,0.003);
#52=CIRCLE('',#393,0.002);
#53=CIRCLE('',#395,0.002);
#54=ORIENTED_EDGE('',*,*,#138,.F.);
#55=ORIENTED_EDGE('',*,*,#139,.T.);
#56=ORIENTED_EDGE('',*,*,#140,.T.);
#57=ORIENTED_EDGE('',*,*,#141,.F.);
#58=ORIENTED_EDGE('',*,*,#142,.T.);
#59=ORIENTED_EDGE('',*,*,#143,.T.);
#60=ORIENTED_EDGE('',*,*,#144,.F.);
#61=ORIENTED_EDGE('',*,*,#145,.F.);
#62=ORIENTED_EDGE('',*,*,#146,.F.);
#63=ORIENTED_EDGE('',*,*,#141,.T.);
#64=ORIENTED_EDGE('',*,*,#142,.F.);
#65=ORIENTED_EDGE('',*,*,#147,.F.);
#66=ORIENTED_EDGE('',*,*,#139,.F.);
#67=ORIENTED_EDGE('',*,*,#148,.F.);
#68=ORIENTED_EDGE('',*,*,#140,.F.);
#69=ORIENTED_EDGE('',*,*,#149,.T.);
#70=ORIENTED_EDGE('',*,*,#148,.T.);
#71=ORIENTED_EDGE('',*,*,#150,.F.);
#72=ORIENTED_EDGE('',*,*,#151,.T.);
#73=ORIENTED_EDGE('',*,*,#152,.T.);
#74=ORIENTED_EDGE('',*,*,#153,.T.);
#75=ORIENTED_EDGE('',*,*,#154,.T.);
#76=ORIENTED_EDGE('',*,*,#155,.T.);
#77=ORIENTED_EDGE('',*,*,#156,.F.);
#78=ORIENTED_EDGE('',*,*,#143,.F.);
#79=ORIENTED_EDGE('',*,*,#149,.F.);
#80=ORIENTED_EDGE('',*,*,#157,.T.);
#81=ORIENTED_EDGE('',*,*,#158,.F.);
#82=ORIENTED_EDGE('',*,*,#159,.T.);
#83=ORIENTED_EDGE('',*,*,#158,.T.);
#84=ORIENTED_EDGE('',*,*,#160,.T.);
#85=ORIENTED_EDGE('',*,*,#161,.F.);
#86=ORIENTED_EDGE('',*,*,#162,.T.);
#87=ORIENTED_EDGE('',*,*,#163,.F.);
#88=ORIENTED_EDGE('',*,*,#164,.T.);
#89=ORIENTED_EDGE('',*,*,#165,.F.);
#90=ORIENTED_EDGE('',*,*,#166,.T.);
#91=ORIENTED_EDGE('',*,*,#161,.T.);
#92=ORIENTED_EDGE('',*,*,#167,.T.);
#93=ORIENTED_EDGE('',*,*,#150,.T.);
#94=ORIENTED_EDGE('',*,*,#138,.T.);
#95=ORIENTED_EDGE('',*,*,#168,.T.);
#96=ORIENTED_EDGE('',*,*,#169,.T.);
#97=ORIENTED_EDGE('',*,*,#154,.F.);
#98=ORIENTED_EDGE('',*,*,#170,.T.);
#99=ORIENTED_EDGE('',*,*,#163,.T.);
#100=ORIENTED_EDGE('',*,*,#171,.T.);
#101=ORIENTED_EDGE('',*,*,#165,.T.);
#102=ORIENTED_EDGE('',*,*,#172,.T.);
#103=ORIENTED_EDGE('',*,*,#152,.F.);
#104=ORIENTED_EDGE('',*,*,#173,.T.);
#105=ORIENTED_EDGE('',*,*,#168,.F.);
#106=ORIENTED_EDGE('',*,*,#147,.T.);
#107=ORIENTED_EDGE('',*,*,#156,.T.);
#108=ORIENTED_EDGE('',*,*,#174,.T.);
#109=ORIENTED_EDGE('',*,*,#153,.F.);
#110=ORIENTED_EDGE('',*,*,#172,.F.);
#111=ORIENTED_EDGE('',*,*,#164,.F.);
#112=ORIENTED_EDGE('',*,*,#170,.F.);
#113=ORIENTED_EDGE('',*,*,#167,.F.);
#114=ORIENTED_EDGE('',*,*,#160,.F.);
#115=ORIENTED_EDGE('',*,*,#157,.F.);
#116=ORIENTED_EDGE('',*,*,#151,.F.);
#117=ORIENTED_EDGE('',*,*,#155,.F.);
#118=ORIENTED_EDGE('',*,*,#171,.F.);
#119=ORIENTED_EDGE('',*,*,#169,.F.);
#120=ORIENTED_EDGE('',*,*,#174,.F.);
#121=ORIENTED_EDGE('',*,*,#166,.F.);
#122=ORIENTED_EDGE('',*,*,#173,.F.);
#123=ORIENTED_EDGE('',*,*,#159,.F.);
#124=ORIENTED_EDGE('',*,*,#162,.F.);
#125=ORIENTED_EDGE('',*,*,#175,.F.);
#126=ORIENTED_EDGE('',*,*,#146,.T.);
#127=ORIENTED_EDGE('',*,*,#175,.T.);
#128=ORIENTED_EDGE('',*,*,#176,.F.);
#129=ORIENTED_EDGE('',*,*,#145,.T.);
#130=ORIENTED_EDGE('',*,*,#176,.T.);
#131=ORIENTED_EDGE('',*,*,#177,.F.);
#132=ORIENTED_EDGE('',*,*,#144,.T.);
#133=ORIENTED_EDGE('',*,*,#178,.F.);
#134=ORIENTED_EDGE('',*,*,#177,.T.);
#135=ORIENTED_EDGE('',*,*,#179,.T.);
#136=ORIENTED_EDGE('',*,*,#179,.F.);
#137=ORIENTED_EDGE('',*,*,#178,.T.);
#138=EDGE_CURVE('',#180,#181,#210,.T.);
#139=EDGE_CURVE('',#180,#181,#32,.F.);
#140=EDGE_CURVE('',#182,#182,#33,.T.);
#141=EDGE_CURVE('',#183,#183,#34,.T.);
#142=EDGE_CURVE('',#184,#185,#35,.F.);
#143=EDGE_CURVE('',#185,#184,#211,.T.);
#144=EDGE_CURVE('',#186,#186,#36,.T.);
#145=EDGE_CURVE('',#187,#187,#37,.T.);
#146=EDGE_CURVE('',#188,#188,#38,.T.);
#147=EDGE_CURVE('',#181,#184,#39,.F.);
#148=EDGE_CURVE('',#185,#180,#40,.F.);
#149=EDGE_CURVE('',#189,#185,#212,.T.);
#150=EDGE_CURVE('',#190,#180,#213,.T.);
#151=EDGE_CURVE('',#190,#189,#41,.F.);
#152=EDGE_CURVE('',#191,#192,#214,.T.);
#153=EDGE_CURVE('',#192,#193,#12,.T.);
#154=EDGE_CURVE('',#193,#194,#215,.T.);
#155=EDGE_CURVE('',#194,#195,#13,.T.);
#156=EDGE_CURVE('',#184,#195,#216,.T.);
#157=EDGE_CURVE('',#189,#196,#14,.T.);
#158=EDGE_CURVE('',#197,#196,#217,.T.);
#159=EDGE_CURVE('',#197,#191,#15,.T.);
#160=EDGE_CURVE('',#196,#198,#42,.T.);
#161=EDGE_CURVE('',#199,#198,#218,.T.);
#162=EDGE_CURVE('',#199,#197,#43,.F.);
#163=EDGE_CURVE('',#200,#201,#219,.T.);
#164=EDGE_CURVE('',#200,#202,#16,.T.);
#165=EDGE_CURVE('',#203,#202,#220,.T.);
#166=EDGE_CURVE('',#203,#199,#17,.T.);
#167=EDGE_CURVE('',#198,#190,#18,.T.);
#168=EDGE_CURVE('',#181,#204,#221,.T.);
#169=EDGE_CURVE('',#204,#201,#19,.T.);
#170=EDGE_CURVE('',#193,#200,#44,.F.);
#171=EDGE_CURVE('',#201,#194,#45,.T.);
#172=EDGE_CURVE('',#202,#192,#46,.T.);
#173=EDGE_CURVE('',#191,#203,#47,.T.);
#174=EDGE_CURVE('',#195,#204,#48,.F.);
#175=EDGE_CURVE('',#205,#205,#49,.T.);
#176=EDGE_CURVE('',#206,#206,#50,.T.);
#177=EDGE_CURVE('',#207,#207,#51,.T.);
#178=EDGE_CURVE('',#208,#208,#52,.T.);
#179=EDGE_CURVE('',#209,#209,#53,.T.);
#180=VERTEX_POINT('',#506);
#181=VERTEX_POINT('',#507);
#182=VERTEX_POINT('',#511);
#183=VERTEX_POINT('',#513);
#184=VERTEX_POINT('',#516);
#185=VERTEX_POINT('',#517);
#186=VERTEX_POINT('',#521);
#187=VERTEX_POINT('',#523);
#188=VERTEX_POINT('',#525);
#189=VERTEX_POINT('',#531);
#190=VERTEX_POINT('',#533);
#191=VERTEX_POINT('',#537);
#192=VERTEX_POINT('',#538);
#193=VERTEX_POINT('',#544);
#194=VERTEX_POINT('',#546);
#195=VERTEX_POINT('',#552);
#196=VERTEX_POINT('',#559);
#197=VERTEX_POINT('',#561);
#198=VERTEX_POINT('',#569);
#199=VERTEX_POINT('',#571);
#200=VERTEX_POINT('',#575);
#201=VERTEX_POINT('',#576);
#202=VERTEX_POINT('',#582);
#203=VERTEX_POINT('',#584);
#204=VERTEX_POINT('',#596);
#205=VERTEX_POINT('',#616);
#206=VERTEX_POINT('',#620);
#207=VERTEX_POINT('',#624);
#208=VERTEX_POINT('',#627);
#209=VERTEX_POINT('',#630);
#210=LINE('',#505,#222);
#211=LINE('',#518,#223);
#212=LINE('',#530,#224);
#213=LINE('',#532,#225);
#214=LINE('',#536,#226);
#215=LINE('',#545,#227);
#216=LINE('',#553,#228);
#217=LINE('',#560,#229);
#218=LINE('',#570,#230);
#219=LINE('',#574,#231);
#220=LINE('',#583,#232);
#221=LINE('',#595,#233);
#222=VECTOR('',#401,1.);
#223=VECTOR('',#414,1.);
#224=VECTOR('',#431,1.);
#225=VECTOR('',#432,1.);
#226=VECTOR('',#437,1.);
#227=VECTOR('',#438,1.);
#228=VECTOR('',#439,1.);
#229=VECTOR('',#440,1.);
#230=VECTOR('',#445,1.);
#231=VECTOR('',#450,1.);
#232=VECTOR('',#451,1.);
#233=VECTOR('',#452,1.);
#234=EDGE_LOOP('',(#54,#55));
#235=EDGE_LOOP('',(#56));
#236=EDGE_LOOP('',(#57));
#237=EDGE_LOOP('',(#58,#59));
#238=EDGE_LOOP('',(#60));
#239=EDGE_LOOP('',(#61));
#240=EDGE_LOOP('',(#62));
#241=EDGE_LOOP('',(#63));
#242=EDGE_LOOP('',(#64,#65,#66,#67));
#243=EDGE_LOOP('',(#68));
#244=EDGE_LOOP('',(#69,#70,#71,#72));
#245=EDGE_LOOP('',(#73,#74,#75,#76,#77,#78,#79,#80,#81,#82));
#246=EDGE_LOOP('',(#83,#84,#85,#86));
#247=EDGE_LOOP('',(#87,#88,#89,#90,#91,#92,#93,#94,#95,#96));
#248=EDGE_LOOP('',(#97,#98,#99,#100));
#249=EDGE_LOOP('',(#101,#102,#103,#104));
#250=EDGE_LOOP('',(#105,#106,#107,#108));
#251=EDGE_LOOP('',(#109,#110,#111,#112));
#252=EDGE_LOOP('',(#113,#114,#115,#116));
#253=EDGE_LOOP('',(#117,#118,#119,#120));
#254=EDGE_LOOP('',(#121,#122,#123,#124));
#255=EDGE_LOOP('',(#125));
#256=EDGE_LOOP('',(#126));
#257=EDGE_LOOP('',(#127));
#258=EDGE_LOOP('',(#128));
#259=EDGE_LOOP('',(#129));
#260=EDGE_LOOP('',(#130));
#261=EDGE_LOOP('',(#131));
#262=EDGE_LOOP('',(#132));
#263=EDGE_LOOP('',(#133));
#264=EDGE_LOOP('',(#134));
#265=EDGE_LOOP('',(#135));
#266=EDGE_LOOP('',(#136));
#267=EDGE_LOOP('',(#137));
#268=FACE_BOUND('',#234,.T.);
#269=FACE_BOUND('',#235,.T.);
#270=FACE_BOUND('',#236,.T.);
#271=FACE_BOUND('',#237,.T.);
#272=FACE_BOUND('',#238,.T.);
#273=FACE_BOUND('',#239,.T.);
#274=FACE_BOUND('',#240,.T.);
#275=FACE_BOUND('',#241,.T.);
#276=FACE_BOUND('',#242,.T.);
#277=FACE_BOUND('',#243,.T.);
#278=FACE_BOUND('',#244,.T.);
#279=FACE_BOUND('',#245,.T.);
#280=FACE_BOUND('',#246,.T.);
#281=FACE_BOUND('',#247,.T.);
#282=FACE_BOUND('',#248,.T.);
#283=FACE_BOUND('',#249,.T.);
#284=FACE_BOUND('',#250,.T.);
#285=FACE_BOUND('',#251,.T.);
#286=FACE_BOUND('',#252,.T.);
#287=FACE_BOUND('',#253,.T.);
#288=FACE_BOUND('',#254,.T.);
#289=FACE_BOUND('',#255,.T.);
#290=FACE_BOUND('',#256,.T.);
#291=FACE_BOUND('',#257,.T.);
#292=FACE_BOUND('',#258,.T.);
#293=FACE_BOUND('',#259,.T.);
#294=FACE_BOUND('',#260,.T.);
#295=FACE_BOUND('',#261,.T.);
#296=FACE_BOUND('',#262,.T.);
#297=FACE_BOUND('',#263,.T.);
#298=FACE_BOUND('',#264,.T.);
#299=FACE_BOUND('',#265,.T.);
#300=FACE_BOUND('',#266,.T.);
#301=FACE_BOUND('',#267,.T.);
#302=PLANE('',#351);
#303=PLANE('',#356);
#304=PLANE('',#358);
#305=PLANE('',#365);
#306=PLANE('',#367);
#307=PLANE('',#371);
#308=PLANE('',#375);
#309=PLANE('',#378);
#310=PLANE('',#386);
#311=PLANE('',#389);
#312=PLANE('',#392);
#313=PLANE('',#394);
#314=ADVANCED_FACE('',(#268),#302,.F.);
#315=ADVANCED_FACE('',(#269,#270),#25,.T.);
#316=ADVANCED_FACE('',(#271),#303,.F.);
#317=ADVANCED_FACE('',(#272,#273,#274,#275),#304,.T.);
#318=ADVANCED_FACE('',(#276,#277),#20,.T.);
#319=ADVANCED_FACE('',(#278),#305,.F.);
#320=ADVANCED_FACE('',(#279),#306,.T.);
#321=ADVANCED_FACE('',(#280),#26,.T.);
#322=ADVANCED_FACE('',(#281),#307,.F.);
#323=ADVANCED_FACE('',(#282),#27,.T.);
#324=ADVANCED_FACE('',(#283),#308,.T.);
#325=ADVANCED_FACE('',(#284),#309,.F.);
#326=ADVANCED_FACE('',(#285),#21,.T.);
#327=ADVANCED_FACE('',(#286),#22,.T.);
#328=ADVANCED_FACE('',(#287),#23,.T.);
#329=ADVANCED_FACE('',(#288),#24,.T.);
#330=ADVANCED_FACE('',(#289,#290),#28,.F.);
#331=ADVANCED_FACE('',(#291),#310,.T.);
#332=ADVANCED_FACE('',(#292,#293),#29,.F.);
#333=ADVANCED_FACE('',(#294),#311,.T.);
#334=ADVANCED_FACE('',(#295,#296),#30,.T.);
#335=ADVANCED_FACE('',(#297,#298),#312,.T.);
#336=ADVANCED_FACE('',(#299),#313,.T.);
#337=ADVANCED_FACE('',(#300,#301),#31,.F.);
#338=CLOSED_SHELL('',(#314,#315,#316,#317,#318,#319,#320,#321,#322,#323,
#324,#325,#326,#327,#328,#329,#330,#331,#332,#333,#334,#335,#336,#337));
#339=STYLED_ITEM('',(#340),#347);
#340=PRESENTATION_STYLE_ASSIGNMENT((#341));
#341=SURFACE_STYLE_USAGE(.BOTH.,#342);
#342=SURFACE_SIDE_STYLE('',(#343));
#343=SURFACE_STYLE_FILL_AREA(#344);
#344=FILL_AREA_STYLE('',(#345));
#345=FILL_AREA_STYLE_COLOUR('',#346);
#346=COLOUR_RGB('',0.301960784313725,0.301960784313725,0.301960784313725);
#347=MANIFOLD_SOLID_BREP('motorHub',#338);
#348=SHAPE_DEFINITION_REPRESENTATION(#638,#349);
#349=SHAPE_REPRESENTATION('motorHub',(#350),#633);
#350=AXIS2_PLACEMENT_3D('',#503,#397,#398);
#351=AXIS2_PLACEMENT_3D('',#504,#399,#400);
#352=AXIS2_PLACEMENT_3D('',#508,#402,#403);
#353=AXIS2_PLACEMENT_3D('',#509,#404,#405);
#354=AXIS2_PLACEMENT_3D('',#510,#406,#407);
#355=AXIS2_PLACEMENT_3D('',#512,#408,#409);
#356=AXIS2_PLACEMENT_3D('',#514,#410,#411);
#357=AXIS2_PLACEMENT_3D('',#515,#412,#413);
#358=AXIS2_PLACEMENT_3D('',#519,#415,#416);
#359=AXIS2_PLACEMENT_3D('',#520,#417,#418);
#360=AXIS2_PLACEMENT_3D('',#522,#419,#420);
#361=AXIS2_PLACEMENT_3D('',#524,#421,#422);
#362=AXIS2_PLACEMENT_3D('',#526,#423,#424);
#363=AXIS2_PLACEMENT_3D('',#527,#425,#426);
#364=AXIS2_PLACEMENT_3D('',#528,#427,#428);
#365=AXIS2_PLACEMENT_3D('',#529,#429,#430);
#366=AXIS2_PLACEMENT_3D('',#534,#433,#434);
#367=AXIS2_PLACEMENT_3D('',#535,#435,#436);
#368=AXIS2_PLACEMENT_3D('',#567,#441,#442);
#369=AXIS2_PLACEMENT_3D('',#568,#443,#444);
#370=AXIS2_PLACEMENT_3D('',#572,#446,#447);
#371=AXIS2_PLACEMENT_3D('',#573,#448,#449);
#372=AXIS2_PLACEMENT_3D('',#602,#453,#454);
#373=AXIS2_PLACEMENT_3D('',#603,#455,#456);
#374=AXIS2_PLACEMENT_3D('',#604,#457,#458);
#375=AXIS2_PLACEMENT_3D('',#605,#459,#460);
#376=AXIS2_PLACEMENT_3D('',#606,#461,#462);
#377=AXIS2_PLACEMENT_3D('',#607,#463,#464);
#378=AXIS2_PLACEMENT_3D('',#608,#465,#466);
#379=AXIS2_PLACEMENT_3D('',#609,#467,#468);
#380=AXIS2_PLACEMENT_3D('',#610,#469,#470);
#381=AXIS2_PLACEMENT_3D('',#611,#471,#472);
#382=AXIS2_PLACEMENT_3D('',#612,#473,#474);
#383=AXIS2_PLACEMENT_3D('',#613,#475,#476);
#384=AXIS2_PLACEMENT_3D('',#614,#477,#478);
#385=AXIS2_PLACEMENT_3D('',#615,#479,#480);
#386=AXIS2_PLACEMENT_3D('',#617,#481,#482);
#387=AXIS2_PLACEMENT_3D('',#618,#483,#484);
#388=AXIS2_PLACEMENT_3D('',#619,#485,#486);
#389=AXIS2_PLACEMENT_3D('',#621,#487,#488);
#390=AXIS2_PLACEMENT_3D('',#622,#489,#490);
#391=AXIS2_PLACEMENT_3D('',#623,#491,#492);
#392=AXIS2_PLACEMENT_3D('',#625,#493,#494);
#393=AXIS2_PLACEMENT_3D('',#626,#495,#496);
#394=AXIS2_PLACEMENT_3D('',#628,#497,#498);
#395=AXIS2_PLACEMENT_3D('',#629,#499,#500);
#396=AXIS2_PLACEMENT_3D('',#631,#501,#502);
#397=DIRECTION('',(0.,0.,1.));
#398=DIRECTION('',(1.,0.,0.));
#399=DIRECTION('',(0.,-1.,0.));
#400=DIRECTION('',(1.,0.,0.));
#401=DIRECTION('',(0.,0.,-1.));
#402=DIRECTION('',(0.,-1.,0.));
#403=DIRECTION('',(0.,0.,-1.));
#404=DIRECTION('',(0.,-1.,0.));
#405=DIRECTION('',(0.,0.,-1.));
#406=DIRECTION('',(0.,-1.,0.));
#407=DIRECTION('',(0.,0.,-1.));
#408=DIRECTION('',(0.,-1.,0.));
#409=DIRECTION('',(0.,0.,-1.));
#410=DIRECTION('',(0.,-1.,0.));
#411=DIRECTION('',(1.,0.,0.));
#412=DIRECTION('',(0.,-1.,0.));
#413=DIRECTION('',(0.,0.,-1.));
#414=DIRECTION('',(0.,0.,-1.));
#415=DIRECTION('',(0.,-1.,0.));
#416=DIRECTION('',(1.,0.,0.));
#417=DIRECTION('',(0.,-1.,0.));
#418=DIRECTION('',(0.,0.,-1.));
#419=DIRECTION('',(0.,-1.,0.));
#420=DIRECTION('',(0.,0.,-1.));
#421=DIRECTION('',(0.,-1.,0.));
#422=DIRECTION('',(0.,0.,-1.));
#423=DIRECTION('',(0.,-1.,0.));
#424=DIRECTION('',(0.,0.,-1.));
#425=DIRECTION('',(0.,-1.,0.));
#426=DIRECTION('',(0.,0.,-1.));
#427=DIRECTION('',(0.,-1.,0.));
#428=DIRECTION('',(0.,0.,-1.));
#429=DIRECTION('',(0.,1.,0.));
#430=DIRECTION('',(-1.,0.,0.));
#431=DIRECTION('',(0.,0.,-1.));
#432=DIRECTION('',(0.,0.,-1.));
#433=DIRECTION('',(0.,1.,0.));
#434=DIRECTION('',(0.,0.,1.));
#435=DIRECTION('',(-1.,0.,0.));
#436=DIRECTION('',(0.,0.,1.));
#437=DIRECTION('',(0.,0.,-1.));
#438=DIRECTION('',(0.,-1.,0.));
#439=DIRECTION('',(0.,0.,-1.));
#440=DIRECTION('',(0.,-1.,0.));
#441=DIRECTION('',(0.,-1.,0.));
#442=DIRECTION('',(0.,0.,-1.));
#443=DIRECTION('',(0.,1.,0.));
#444=DIRECTION('',(0.,0.,1.));
#445=DIRECTION('',(0.,-1.,0.));
#446=DIRECTION('',(0.,1.,0.));
#447=DIRECTION('',(0.,0.,1.));
#448=DIRECTION('',(-1.,0.,0.));
#449=DIRECTION('',(0.,0.,1.));
#450=DIRECTION('',(0.,-1.,0.));
#451=DIRECTION('',(0.,0.,-1.));
#452=DIRECTION('',(0.,0.,-1.));
#453=DIRECTION('',(0.,-1.,0.));
#454=DIRECTION('',(0.,0.,-1.));
#455=DIRECTION('',(0.,1.,0.));
#456=DIRECTION('',(0.,0.,1.));
#457=DIRECTION('',(0.,1.,0.));
#458=DIRECTION('',(0.,0.,1.));
#459=DIRECTION('',(0.,1.,0.));
#460=DIRECTION('',(-1.,0.,0.));
#461=DIRECTION('',(0.,1.,0.));
#462=DIRECTION('',(0.,0.,1.));
#463=DIRECTION('',(0.,1.,0.));
#464=DIRECTION('',(0.,0.,1.));
#465=DIRECTION('',(0.,1.,0.));
#466=DIRECTION('',(-1.,0.,0.));
#467=DIRECTION('',(0.,1.,0.));
#468=DIRECTION('',(0.,0.,1.));
#469=DIRECTION('',(0.,1.,0.));
#470=DIRECTION('',(0.,0.,1.));
#471=DIRECTION('',(0.,1.,0.));
#472=DIRECTION('',(0.,0.,1.));
#473=DIRECTION('',(0.,1.,0.));
#474=DIRECTION('',(0.,0.,1.));
#475=DIRECTION('',(0.,1.,0.));
#476=DIRECTION('',(0.,0.,1.));
#477=DIRECTION('',(0.,-1.,0.));
#478=DIRECTION('',(0.,0.,-1.));
#479=DIRECTION('',(0.,-1.,0.));
#480=DIRECTION('',(0.,0.,-1.));
#481=DIRECTION('',(0.,-1.,0.));
#482=DIRECTION('',(1.,0.,0.));
#483=DIRECTION('',(0.,-1.,0.));
#484=DIRECTION('',(0.,0.,-1.));
#485=DIRECTION('',(0.,-1.,0.));
#486=DIRECTION('',(0.,0.,-1.));
#487=DIRECTION('',(0.,-1.,0.));
#488=DIRECTION('',(1.,0.,0.));
#489=DIRECTION('',(0.,1.,0.));
#490=DIRECTION('',(0.,0.,1.));
#491=DIRECTION('',(0.,-1.,0.));
#492=DIRECTION('',(0.,0.,-1.));
#493=DIRECTION('',(0.,-1.,0.));
#494=DIRECTION('',(1.,0.,0.));
#495=DIRECTION('',(0.,-1.,0.));
#496=DIRECTION('',(0.,0.,-1.));
#497=DIRECTION('',(0.,-1.,0.));
#498=DIRECTION('',(1.,0.,0.));
#499=DIRECTION('',(0.,-1.,0.));
#500=DIRECTION('',(0.,0.,-1.));
#501=DIRECTION('',(0.,-1.,0.));
#502=DIRECTION('',(0.,0.,-1.));
#503=CARTESIAN_POINT('',(0.,0.,0.));
#504=CARTESIAN_POINT('',(0.,0.016,0.));
#505=CARTESIAN_POINT('',(0.006,0.016,1.7347234759768E-18));
#506=CARTESIAN_POINT('',(0.006,0.016,0.00360555127546403));
#507=CARTESIAN_POINT('',(0.006,0.016,-0.00360555127546403));
#508=CARTESIAN_POINT('',(0.,0.016,4.89858719658942E-19));
#509=CARTESIAN_POINT('',(0.,0.016,4.89858719658942E-19));
#510=CARTESIAN_POINT('',(0.,0.015,4.89858719658942E-19));
#511=CARTESIAN_POINT('',(0.,0.015,-0.008));
#512=CARTESIAN_POINT('',(0.,0.,4.89858719658942E-19));
#513=CARTESIAN_POINT('',(0.,0.,-0.008));
#514=CARTESIAN_POINT('',(0.,0.016,0.));
#515=CARTESIAN_POINT('',(0.,0.016,4.89858719658942E-19));
#516=CARTESIAN_POINT('',(-0.006,0.016,-0.00360555127546398));
#517=CARTESIAN_POINT('',(-0.006,0.016,0.00360555127546399));
#518=CARTESIAN_POINT('',(-0.006,0.016,0.));
#519=CARTESIAN_POINT('',(0.,0.,0.));
#520=CARTESIAN_POINT('',(0.,0.,1.83697019872103E-19));
#521=CARTESIAN_POINT('',(0.,0.,-0.003));
#522=CARTESIAN_POINT('',(8.67361737988404E-19,0.,-0.00525));
#523=CARTESIAN_POINT('',(8.67361737988404E-19,0.,-0.00625));
#524=CARTESIAN_POINT('',(-1.7347234759768E-18,0.,0.00525));
#525=CARTESIAN_POINT('',(-1.7347234759768E-18,0.,0.00425));
#526=CARTESIAN_POINT('',(0.,0.015,4.89858719658942E-19));
#527=CARTESIAN_POINT('',(0.,0.016,4.89858719658942E-19));
#528=CARTESIAN_POINT('',(0.,0.016,4.89858719658942E-19));
#529=CARTESIAN_POINT('',(0.,0.016,0.));
#530=CARTESIAN_POINT('',(-0.006,0.016,0.));
#531=CARTESIAN_POINT('',(-0.006,0.016,0.0045));
#532=CARTESIAN_POINT('',(0.006,0.016,1.7347234759768E-18));
#533=CARTESIAN_POINT('',(0.006,0.016,0.0045));
#534=CARTESIAN_POINT('',(0.,0.016,4.89858719658942E-19));
#535=CARTESIAN_POINT('',(-0.006,0.041,0.));
#536=CARTESIAN_POINT('',(-0.006,0.041,0.));
#537=CARTESIAN_POINT('',(-0.006,0.041,0.0045));
#538=CARTESIAN_POINT('',(-0.006,0.041,-0.0045));
#539=CARTESIAN_POINT('',(-0.006,0.041,-0.0045));
#540=CARTESIAN_POINT('',(-0.006,0.041,-0.00467229011113443));
#541=CARTESIAN_POINT('',(-0.006,0.0409498813952756,-0.00501229092611485));
#542=CARTESIAN_POINT('',(-0.006,0.0406745102854787,-0.00529150262212918));
#543=CARTESIAN_POINT('',(-0.006,0.0405,-0.00529150262212918));
#544=CARTESIAN_POINT('',(-0.006,0.0405,-0.00529150262212917));
#545=CARTESIAN_POINT('',(-0.006,0.041,-0.00529150262212917));
#546=CARTESIAN_POINT('',(-0.006,0.0165,-0.00529150262212917));
#547=CARTESIAN_POINT('',(-0.006,0.0165,-0.00529150262212917));
#548=CARTESIAN_POINT('',(-0.006,0.0163256787439938,-0.00529150262212917));
#549=CARTESIAN_POINT('',(-0.006,0.0160511389591384,-0.00501451077749855));
#550=CARTESIAN_POINT('',(-0.006,0.016,-0.00467228836114625));
#551=CARTESIAN_POINT('',(-0.006,0.016,-0.0045));
#552=CARTESIAN_POINT('',(-0.006,0.016,-0.0045));
#553=CARTESIAN_POINT('',(-0.006,0.016,0.));
#554=CARTESIAN_POINT('',(-0.006,0.016,0.0045));
#555=CARTESIAN_POINT('',(-0.006,0.016,0.00467229011113443));
#556=CARTESIAN_POINT('',(-0.006,0.0160501186047244,0.00501229092611485));
#557=CARTESIAN_POINT('',(-0.006,0.0163254897145213,0.00529150262212918));
#558=CARTESIAN_POINT('',(-0.006,0.0165,0.00529150262212918));
#559=CARTESIAN_POINT('',(-0.006,0.0165,0.00529150262212917));
#560=CARTESIAN_POINT('',(-0.006,0.041,0.00529150262212917));
#561=CARTESIAN_POINT('',(-0.006,0.0405,0.00529150262212917));
#562=CARTESIAN_POINT('',(-0.006,0.0405,0.00529150262212917));
#563=CARTESIAN_POINT('',(-0.006,0.0406743212560062,0.00529150262212917));
#564=CARTESIAN_POINT('',(-0.006,0.0409488610408616,0.00501451077749855));
#565=CARTESIAN_POINT('',(-0.006,0.041,0.00467228836114625));
#566=CARTESIAN_POINT('',(-0.006,0.041,0.0045));
#567=CARTESIAN_POINT('',(0.,0.041,4.89858719658942E-19));
#568=CARTESIAN_POINT('',(0.,0.0165,4.89858719658942E-19));
#569=CARTESIAN_POINT('',(0.006,0.0165,0.00529150262212921));
#570=CARTESIAN_POINT('',(0.006,0.041,0.00529150262212921));
#571=CARTESIAN_POINT('',(0.006,0.0405,0.00529150262212921));
#572=CARTESIAN_POINT('',(0.,0.0405,4.89858719658942E-19));
#573=CARTESIAN_POINT('',(0.006,0.041,1.7347234759768E-18));
#574=CARTESIAN_POINT('',(0.006,0.041,-0.0052915026221292));
#575=CARTESIAN_POINT('',(0.006,0.0405,-0.0052915026221292));
#576=CARTESIAN_POINT('',(0.006,0.0165,-0.0052915026221292));
#577=CARTESIAN_POINT('',(0.006,0.0405,-0.0052915026221292));
#578=CARTESIAN_POINT('',(0.006,0.0406743212560062,-0.0052915026221292));
#579=CARTESIAN_POINT('',(0.006,0.0409488610408616,-0.00501451077749855));
#580=CARTESIAN_POINT('',(0.006,0.041,-0.00467228836114625));
#581=CARTESIAN_POINT('',(0.006,0.041,-0.0045));
#582=CARTESIAN_POINT('',(0.006,0.041,-0.0045));
#583=CARTESIAN_POINT('',(0.006,0.041,1.7347234759768E-18));
#584=CARTESIAN_POINT('',(0.006,0.041,0.0045));
#585=CARTESIAN_POINT('',(0.006,0.041,0.0045));
#586=CARTESIAN_POINT('',(0.006,0.041,0.00467229011113443));
#587=CARTESIAN_POINT('',(0.006,0.0409498813952756,0.00501229092611485));
#588=CARTESIAN_POINT('',(0.006,0.0406745102854787,0.00529150262212921));
#589=CARTESIAN_POINT('',(0.006,0.0405,0.00529150262212921));
#590=CARTESIAN_POINT('',(0.006,0.0165,0.00529150262212921));
#591=CARTESIAN_POINT('',(0.006,0.0163256787439938,0.00529150262212921));
#592=CARTESIAN_POINT('',(0.006,0.0160511389591384,0.00501451077749854));
#593=CARTESIAN_POINT('',(0.006,0.016,0.00467228836114625));
#594=CARTESIAN_POINT('',(0.006,0.016,0.0045));
#595=CARTESIAN_POINT('',(0.006,0.016,1.7347234759768E-18));
#596=CARTESIAN_POINT('',(0.006,0.016,-0.0045));
#597=CARTESIAN_POINT('',(0.006,0.016,-0.0045));
#598=CARTESIAN_POINT('',(0.006,0.016,-0.00467229011113443));
#599=CARTESIAN_POINT('',(0.006,0.0160501186047244,-0.00501229092611485));
#600=CARTESIAN_POINT('',(0.006,0.0163254897145213,-0.00529150262212921));
#601=CARTESIAN_POINT('',(0.006,0.0165,-0.00529150262212921));
#602=CARTESIAN_POINT('',(0.,0.041,4.89858719658942E-19));
#603=CARTESIAN_POINT('',(0.,0.0405,4.89858719658942E-19));
#604=CARTESIAN_POINT('',(0.,0.0165,4.89858719658942E-19));
#605=CARTESIAN_POINT('',(0.,0.041,0.));
#606=CARTESIAN_POINT('',(0.,0.041,4.89858719658942E-19));
#607=CARTESIAN_POINT('',(0.,0.041,4.89858719658942E-19));
#608=CARTESIAN_POINT('',(0.,0.016,0.));
#609=CARTESIAN_POINT('',(0.,0.016,4.89858719658942E-19));
#610=CARTESIAN_POINT('',(0.,0.0405,4.89858719658942E-19));
#611=CARTESIAN_POINT('',(0.,0.0165,4.89858719658942E-19));
#612=CARTESIAN_POINT('',(0.,0.0165,4.89858719658942E-19));
#613=CARTESIAN_POINT('',(0.,0.0405,4.89858719658942E-19));
#614=CARTESIAN_POINT('',(-1.7347234759768E-18,0.002,0.00525));
#615=CARTESIAN_POINT('',(-1.7347234759768E-18,0.002,0.00525));
#616=CARTESIAN_POINT('',(-1.7347234759768E-18,0.002,0.00425));
#617=CARTESIAN_POINT('',(0.,0.002,0.));
#618=CARTESIAN_POINT('',(8.67361737988404E-19,0.002,-0.00525));
#619=CARTESIAN_POINT('',(8.67361737988404E-19,0.002,-0.00525));
#620=CARTESIAN_POINT('',(8.67361737988404E-19,0.002,-0.00625));
#621=CARTESIAN_POINT('',(0.,0.002,0.));
#622=CARTESIAN_POINT('',(0.,-0.0036,1.83697019872103E-19));
#623=CARTESIAN_POINT('',(0.,-0.0036,1.83697019872103E-19));
#624=CARTESIAN_POINT('',(0.,-0.0036,-0.003));
#625=CARTESIAN_POINT('',(0.,-0.0036,0.));
#626=CARTESIAN_POINT('',(0.,-0.0036,1.22464679914735E-19));
#627=CARTESIAN_POINT('',(0.,-0.0036,-0.002));
#628=CARTESIAN_POINT('',(0.,0.002,0.));
#629=CARTESIAN_POINT('',(0.,0.002,1.22464679914735E-19));
#630=CARTESIAN_POINT('',(0.,0.002,-0.002));
#631=CARTESIAN_POINT('',(0.,0.002,1.22464679914735E-19));
#632=MECHANICAL_DESIGN_GEOMETRIC_PRESENTATION_REPRESENTATION('',(#339),
#633);
#633=(
GEOMETRIC_REPRESENTATION_CONTEXT(3)
GLOBAL_UNCERTAINTY_ASSIGNED_CONTEXT((#634))
GLOBAL_UNIT_ASSIGNED_CONTEXT((#637,#636,#635))
REPRESENTATION_CONTEXT('motorHub','TOP_LEVEL_ASSEMBLY_PART')
);
#634=UNCERTAINTY_MEASURE_WITH_UNIT(LENGTH_MEASURE(2.E-5),#637,
'DISTANCE_ACCURACY_VALUE','Maximum Tolerance applied to model');
#635=(
NAMED_UNIT(*)
SI_UNIT($,.STERADIAN.)
SOLID_ANGLE_UNIT()
);
#636=(
NAMED_UNIT(*)
PLANE_ANGLE_UNIT()
SI_UNIT($,.RADIAN.)
);
#637=(
LENGTH_UNIT()
NAMED_UNIT(*)
SI_UNIT($,.METRE.)
);
#638=PRODUCT_DEFINITION_SHAPE('','',#639);
#639=PRODUCT_DEFINITION('','',#641,#640);
#640=PRODUCT_DEFINITION_CONTEXT('',#647,'design');
#641=PRODUCT_DEFINITION_FORMATION_WITH_SPECIFIED_SOURCE('','',#643,
 .NOT_KNOWN.);
#642=PRODUCT_RELATED_PRODUCT_CATEGORY('','',(#643));
#643=PRODUCT('motorHub','motorHub','motorHub',(#645));
#644=PRODUCT_CATEGORY('','');
#645=PRODUCT_CONTEXT('',#647,'mechanical');
#646=APPLICATION_PROTOCOL_DEFINITION('international standard',
'ap242_managed_model_based_3d_engineering',2020,#647);
#647=APPLICATION_CONTEXT('managed model based 3d engineering');
ENDSEC;
END-ISO-10303-21;
