ISO-10303-21;
HEADER;
/* Generated by software containing ST-Developer
 * from STEP Tools, Inc. (www.steptools.com) 
 */
/* OPTION: using custom renumber hook */

FILE_DESCRIPTION(
/* description */ ('STEP AP242 Edition 2',
'CAx-IF Rec.Pracs.---Representation and Presentation of Product Manufa
cturing Information (PMI)---4.0---2014-10-13',
'CAx-IF Rec.Pracs.---3D Tessellated Geometry---0.4---2014-09-14','2;1',
'CAx-IF Rec.Pracs.---User Defined Attributes---1.5---2016-08-15'),
/* implementation_level */ '2;1');

FILE_NAME(
/* name */ 'MAIN - adapter',
/* time_stamp */ '2025-12-27T00:10:33Z',
/* author */ (''),
/* organization */ (''),
/* preprocessor_version */ 'ST-DEVELOPER v20',
/* originating_system */ 'ONSHAPE BY PTC INC, 1.208',
/* authorisation */ '  ');

FILE_SCHEMA (('AP242_MANAGED_MODEL_BASED_3D_ENGINEERING_MIM_LF { 1 0 10303 442 3 1 4 }'));
ENDSEC;

DATA;
#10=SHAPE_REPRESENTATION_RELATIONSHIP('','',#451,#11);
#11=ADVANCED_BREP_SHAPE_REPRESENTATION('',(#449),#729);
#12=LINE('',#635,#48);
#13=LINE('',#638,#49);
#14=LINE('',#640,#50);
#15=LINE('',#642,#51);
#16=LINE('',#644,#52);
#17=LINE('',#646,#53);
#18=LINE('',#648,#54);
#19=LINE('',#650,#55);
#20=LINE('',#652,#56);
#21=LINE('',#654,#57);
#22=LINE('',#656,#58);
#23=LINE('',#658,#59);
#24=LINE('',#660,#60);
#25=LINE('',#662,#61);
#26=LINE('',#664,#62);
#27=LINE('',#666,#63);
#28=LINE('',#668,#64);
#29=LINE('',#670,#65);
#30=LINE('',#685,#66);
#31=LINE('',#688,#67);
#32=LINE('',#690,#68);
#33=LINE('',#692,#69);
#34=LINE('',#694,#70);
#35=LINE('',#696,#71);
#36=LINE('',#698,#72);
#37=LINE('',#700,#73);
#38=LINE('',#702,#74);
#39=LINE('',#704,#75);
#40=LINE('',#706,#76);
#41=LINE('',#708,#77);
#42=LINE('',#710,#78);
#43=LINE('',#712,#79);
#44=LINE('',#714,#80);
#45=LINE('',#716,#81);
#46=LINE('',#718,#82);
#47=LINE('',#720,#83);
#48=VECTOR('',#521,1.);
#49=VECTOR('',#522,1.);
#50=VECTOR('',#523,1.);
#51=VECTOR('',#524,1.);
#52=VECTOR('',#525,1.);
#53=VECTOR('',#526,1.);
#54=VECTOR('',#529,1.);
#55=VECTOR('',#530,1.);
#56=VECTOR('',#531,1.);
#57=VECTOR('',#534,1.);
#58=VECTOR('',#535,1.);
#59=VECTOR('',#538,1.);
#60=VECTOR('',#539,1.);
#61=VECTOR('',#542,1.);
#62=VECTOR('',#543,1.);
#63=VECTOR('',#546,1.);
#64=VECTOR('',#547,1.);
#65=VECTOR('',#550,1.);
#66=VECTOR('',#567,1.);
#67=VECTOR('',#568,1.);
#68=VECTOR('',#569,1.);
#69=VECTOR('',#570,1.);
#70=VECTOR('',#571,1.);
#71=VECTOR('',#572,1.);
#72=VECTOR('',#575,1.);
#73=VECTOR('',#576,1.);
#74=VECTOR('',#577,1.);
#75=VECTOR('',#580,1.);
#76=VECTOR('',#581,1.);
#77=VECTOR('',#584,1.);
#78=VECTOR('',#585,1.);
#79=VECTOR('',#588,1.);
#80=VECTOR('',#589,1.);
#81=VECTOR('',#592,1.);
#82=VECTOR('',#593,1.);
#83=VECTOR('',#596,1.);
#84=PLANE('',#459);
#85=PLANE('',#466);
#86=PLANE('',#467);
#87=PLANE('',#468);
#88=PLANE('',#469);
#89=PLANE('',#470);
#90=PLANE('',#471);
#91=PLANE('',#472);
#92=PLANE('',#473);
#93=PLANE('',#480);
#94=PLANE('',#481);
#95=PLANE('',#482);
#96=PLANE('',#483);
#97=PLANE('',#484);
#98=PLANE('',#485);
#99=PLANE('',#486);
#100=ORIENTED_EDGE('',*,*,#204,.T.);
#101=ORIENTED_EDGE('',*,*,#205,.F.);
#102=ORIENTED_EDGE('',*,*,#206,.F.);
#103=ORIENTED_EDGE('',*,*,#207,.T.);
#104=ORIENTED_EDGE('',*,*,#208,.F.);
#105=ORIENTED_EDGE('',*,*,#209,.F.);
#106=ORIENTED_EDGE('',*,*,#210,.F.);
#107=ORIENTED_EDGE('',*,*,#211,.F.);
#108=ORIENTED_EDGE('',*,*,#212,.F.);
#109=ORIENTED_EDGE('',*,*,#213,.F.);
#110=ORIENTED_EDGE('',*,*,#214,.F.);
#111=ORIENTED_EDGE('',*,*,#215,.F.);
#112=ORIENTED_EDGE('',*,*,#216,.F.);
#113=ORIENTED_EDGE('',*,*,#217,.F.);
#114=ORIENTED_EDGE('',*,*,#218,.F.);
#115=ORIENTED_EDGE('',*,*,#219,.F.);
#116=ORIENTED_EDGE('',*,*,#206,.T.);
#117=ORIENTED_EDGE('',*,*,#214,.T.);
#118=ORIENTED_EDGE('',*,*,#220,.F.);
#119=ORIENTED_EDGE('',*,*,#221,.F.);
#120=ORIENTED_EDGE('',*,*,#222,.T.);
#121=ORIENTED_EDGE('',*,*,#219,.T.);
#122=ORIENTED_EDGE('',*,*,#223,.F.);
#123=ORIENTED_EDGE('',*,*,#224,.F.);
#124=ORIENTED_EDGE('',*,*,#220,.T.);
#125=ORIENTED_EDGE('',*,*,#218,.T.);
#126=ORIENTED_EDGE('',*,*,#225,.F.);
#127=ORIENTED_EDGE('',*,*,#226,.F.);
#128=ORIENTED_EDGE('',*,*,#223,.T.);
#129=ORIENTED_EDGE('',*,*,#217,.T.);
#130=ORIENTED_EDGE('',*,*,#227,.F.);
#131=ORIENTED_EDGE('',*,*,#228,.F.);
#132=ORIENTED_EDGE('',*,*,#225,.T.);
#133=ORIENTED_EDGE('',*,*,#216,.T.);
#134=ORIENTED_EDGE('',*,*,#229,.F.);
#135=ORIENTED_EDGE('',*,*,#230,.F.);
#136=ORIENTED_EDGE('',*,*,#227,.T.);
#137=ORIENTED_EDGE('',*,*,#215,.T.);
#138=ORIENTED_EDGE('',*,*,#222,.F.);
#139=ORIENTED_EDGE('',*,*,#231,.F.);
#140=ORIENTED_EDGE('',*,*,#229,.T.);
#141=ORIENTED_EDGE('',*,*,#204,.F.);
#142=ORIENTED_EDGE('',*,*,#221,.T.);
#143=ORIENTED_EDGE('',*,*,#224,.T.);
#144=ORIENTED_EDGE('',*,*,#226,.T.);
#145=ORIENTED_EDGE('',*,*,#228,.T.);
#146=ORIENTED_EDGE('',*,*,#230,.T.);
#147=ORIENTED_EDGE('',*,*,#231,.T.);
#148=ORIENTED_EDGE('',*,*,#232,.F.);
#149=ORIENTED_EDGE('',*,*,#233,.F.);
#150=ORIENTED_EDGE('',*,*,#234,.F.);
#151=ORIENTED_EDGE('',*,*,#235,.F.);
#152=ORIENTED_EDGE('',*,*,#236,.F.);
#153=ORIENTED_EDGE('',*,*,#237,.F.);
#154=ORIENTED_EDGE('',*,*,#238,.T.);
#155=ORIENTED_EDGE('',*,*,#239,.T.);
#156=ORIENTED_EDGE('',*,*,#240,.T.);
#157=ORIENTED_EDGE('',*,*,#241,.T.);
#158=ORIENTED_EDGE('',*,*,#242,.T.);
#159=ORIENTED_EDGE('',*,*,#243,.T.);
#160=ORIENTED_EDGE('',*,*,#207,.F.);
#161=ORIENTED_EDGE('',*,*,#238,.F.);
#162=ORIENTED_EDGE('',*,*,#244,.F.);
#163=ORIENTED_EDGE('',*,*,#245,.T.);
#164=ORIENTED_EDGE('',*,*,#246,.T.);
#165=ORIENTED_EDGE('',*,*,#239,.F.);
#166=ORIENTED_EDGE('',*,*,#246,.F.);
#167=ORIENTED_EDGE('',*,*,#247,.T.);
#168=ORIENTED_EDGE('',*,*,#248,.T.);
#169=ORIENTED_EDGE('',*,*,#240,.F.);
#170=ORIENTED_EDGE('',*,*,#248,.F.);
#171=ORIENTED_EDGE('',*,*,#249,.T.);
#172=ORIENTED_EDGE('',*,*,#250,.T.);
#173=ORIENTED_EDGE('',*,*,#241,.F.);
#174=ORIENTED_EDGE('',*,*,#250,.F.);
#175=ORIENTED_EDGE('',*,*,#251,.T.);
#176=ORIENTED_EDGE('',*,*,#252,.T.);
#177=ORIENTED_EDGE('',*,*,#242,.F.);
#178=ORIENTED_EDGE('',*,*,#252,.F.);
#179=ORIENTED_EDGE('',*,*,#253,.T.);
#180=ORIENTED_EDGE('',*,*,#254,.T.);
#181=ORIENTED_EDGE('',*,*,#243,.F.);
#182=ORIENTED_EDGE('',*,*,#254,.F.);
#183=ORIENTED_EDGE('',*,*,#255,.T.);
#184=ORIENTED_EDGE('',*,*,#244,.T.);
#185=ORIENTED_EDGE('',*,*,#205,.T.);
#186=ORIENTED_EDGE('',*,*,#245,.F.);
#187=ORIENTED_EDGE('',*,*,#255,.F.);
#188=ORIENTED_EDGE('',*,*,#253,.F.);
#189=ORIENTED_EDGE('',*,*,#251,.F.);
#190=ORIENTED_EDGE('',*,*,#249,.F.);
#191=ORIENTED_EDGE('',*,*,#247,.F.);
#192=ORIENTED_EDGE('',*,*,#237,.T.);
#193=ORIENTED_EDGE('',*,*,#213,.T.);
#194=ORIENTED_EDGE('',*,*,#236,.T.);
#195=ORIENTED_EDGE('',*,*,#212,.T.);
#196=ORIENTED_EDGE('',*,*,#235,.T.);
#197=ORIENTED_EDGE('',*,*,#211,.T.);
#198=ORIENTED_EDGE('',*,*,#234,.T.);
#199=ORIENTED_EDGE('',*,*,#210,.T.);
#200=ORIENTED_EDGE('',*,*,#233,.T.);
#201=ORIENTED_EDGE('',*,*,#209,.T.);
#202=ORIENTED_EDGE('',*,*,#232,.T.);
#203=ORIENTED_EDGE('',*,*,#208,.T.);
#204=EDGE_CURVE('',#256,#256,#296,.T.);
#205=EDGE_CURVE('',#257,#257,#297,.T.);
#206=EDGE_CURVE('',#258,#258,#298,.T.);
#207=EDGE_CURVE('',#259,#259,#299,.T.);
#208=EDGE_CURVE('',#260,#260,#300,.T.);
#209=EDGE_CURVE('',#261,#261,#301,.T.);
#210=EDGE_CURVE('',#262,#262,#302,.T.);
#211=EDGE_CURVE('',#263,#263,#303,.T.);
#212=EDGE_CURVE('',#264,#264,#304,.T.);
#213=EDGE_CURVE('',#265,#265,#305,.T.);
#214=EDGE_CURVE('',#266,#267,#12,.T.);
#215=EDGE_CURVE('',#268,#266,#13,.T.);
#216=EDGE_CURVE('',#269,#268,#14,.T.);
#217=EDGE_CURVE('',#270,#269,#15,.T.);
#218=EDGE_CURVE('',#271,#270,#16,.T.);
#219=EDGE_CURVE('',#267,#271,#17,.T.);
#220=EDGE_CURVE('',#272,#267,#18,.T.);
#221=EDGE_CURVE('',#273,#272,#19,.T.);
#222=EDGE_CURVE('',#273,#266,#20,.T.);
#223=EDGE_CURVE('',#274,#271,#21,.T.);
#224=EDGE_CURVE('',#272,#274,#22,.T.);
#225=EDGE_CURVE('',#275,#270,#23,.T.);
#226=EDGE_CURVE('',#274,#275,#24,.T.);
#227=EDGE_CURVE('',#276,#269,#25,.T.);
#228=EDGE_CURVE('',#275,#276,#26,.T.);
#229=EDGE_CURVE('',#277,#268,#27,.T.);
#230=EDGE_CURVE('',#276,#277,#28,.T.);
#231=EDGE_CURVE('',#277,#273,#29,.T.);
#232=EDGE_CURVE('',#278,#278,#306,.T.);
#233=EDGE_CURVE('',#279,#279,#307,.T.);
#234=EDGE_CURVE('',#280,#280,#308,.T.);
#235=EDGE_CURVE('',#281,#281,#309,.T.);
#236=EDGE_CURVE('',#282,#282,#310,.T.);
#237=EDGE_CURVE('',#283,#283,#311,.T.);
#238=EDGE_CURVE('',#284,#285,#30,.T.);
#239=EDGE_CURVE('',#285,#286,#31,.T.);
#240=EDGE_CURVE('',#286,#287,#32,.T.);
#241=EDGE_CURVE('',#287,#288,#33,.T.);
#242=EDGE_CURVE('',#288,#289,#34,.T.);
#243=EDGE_CURVE('',#289,#284,#35,.T.);
#244=EDGE_CURVE('',#290,#284,#36,.T.);
#245=EDGE_CURVE('',#290,#291,#37,.T.);
#246=EDGE_CURVE('',#291,#285,#38,.T.);
#247=EDGE_CURVE('',#291,#292,#39,.T.);
#248=EDGE_CURVE('',#292,#286,#40,.T.);
#249=EDGE_CURVE('',#292,#293,#41,.T.);
#250=EDGE_CURVE('',#293,#287,#42,.T.);
#251=EDGE_CURVE('',#293,#294,#43,.T.);
#252=EDGE_CURVE('',#294,#288,#44,.T.);
#253=EDGE_CURVE('',#294,#295,#45,.T.);
#254=EDGE_CURVE('',#295,#289,#46,.T.);
#255=EDGE_CURVE('',#295,#290,#47,.T.);
#256=VERTEX_POINT('',#614);
#257=VERTEX_POINT('',#616);
#258=VERTEX_POINT('',#619);
#259=VERTEX_POINT('',#621);
#260=VERTEX_POINT('',#624);
#261=VERTEX_POINT('',#626);
#262=VERTEX_POINT('',#628);
#263=VERTEX_POINT('',#630);
#264=VERTEX_POINT('',#632);
#265=VERTEX_POINT('',#634);
#266=VERTEX_POINT('',#636);
#267=VERTEX_POINT('',#637);
#268=VERTEX_POINT('',#639);
#269=VERTEX_POINT('',#641);
#270=VERTEX_POINT('',#643);
#271=VERTEX_POINT('',#645);
#272=VERTEX_POINT('',#649);
#273=VERTEX_POINT('',#651);
#274=VERTEX_POINT('',#655);
#275=VERTEX_POINT('',#659);
#276=VERTEX_POINT('',#663);
#277=VERTEX_POINT('',#667);
#278=VERTEX_POINT('',#674);
#279=VERTEX_POINT('',#676);
#280=VERTEX_POINT('',#678);
#281=VERTEX_POINT('',#680);
#282=VERTEX_POINT('',#682);
#283=VERTEX_POINT('',#684);
#284=VERTEX_POINT('',#686);
#285=VERTEX_POINT('',#687);
#286=VERTEX_POINT('',#689);
#287=VERTEX_POINT('',#691);
#288=VERTEX_POINT('',#693);
#289=VERTEX_POINT('',#695);
#290=VERTEX_POINT('',#699);
#291=VERTEX_POINT('',#701);
#292=VERTEX_POINT('',#705);
#293=VERTEX_POINT('',#709);
#294=VERTEX_POINT('',#713);
#295=VERTEX_POINT('',#717);
#296=CIRCLE('',#454,0.002);
#297=CIRCLE('',#455,0.002);
#298=CIRCLE('',#457,0.01);
#299=CIRCLE('',#458,0.01);
#300=CIRCLE('',#460,0.0016);
#301=CIRCLE('',#461,0.0016);
#302=CIRCLE('',#462,0.0016);
#303=CIRCLE('',#463,0.0016);
#304=CIRCLE('',#464,0.0016);
#305=CIRCLE('',#465,0.0016);
#306=CIRCLE('',#474,0.0016);
#307=CIRCLE('',#475,0.0016);
#308=CIRCLE('',#476,0.0016);
#309=CIRCLE('',#477,0.0016);
#310=CIRCLE('',#478,0.0016);
#311=CIRCLE('',#479,0.0016);
#312=EDGE_LOOP('',(#100));
#313=EDGE_LOOP('',(#101));
#314=EDGE_LOOP('',(#102));
#315=EDGE_LOOP('',(#103));
#316=EDGE_LOOP('',(#104));
#317=EDGE_LOOP('',(#105));
#318=EDGE_LOOP('',(#106));
#319=EDGE_LOOP('',(#107));
#320=EDGE_LOOP('',(#108));
#321=EDGE_LOOP('',(#109));
#322=EDGE_LOOP('',(#110,#111,#112,#113,#114,#115));
#323=EDGE_LOOP('',(#116));
#324=EDGE_LOOP('',(#117,#118,#119,#120));
#325=EDGE_LOOP('',(#121,#122,#123,#124));
#326=EDGE_LOOP('',(#125,#126,#127,#128));
#327=EDGE_LOOP('',(#129,#130,#131,#132));
#328=EDGE_LOOP('',(#133,#134,#135,#136));
#329=EDGE_LOOP('',(#137,#138,#139,#140));
#330=EDGE_LOOP('',(#141));
#331=EDGE_LOOP('',(#142,#143,#144,#145,#146,#147));
#332=EDGE_LOOP('',(#148));
#333=EDGE_LOOP('',(#149));
#334=EDGE_LOOP('',(#150));
#335=EDGE_LOOP('',(#151));
#336=EDGE_LOOP('',(#152));
#337=EDGE_LOOP('',(#153));
#338=EDGE_LOOP('',(#154,#155,#156,#157,#158,#159));
#339=EDGE_LOOP('',(#160));
#340=EDGE_LOOP('',(#161,#162,#163,#164));
#341=EDGE_LOOP('',(#165,#166,#167,#168));
#342=EDGE_LOOP('',(#169,#170,#171,#172));
#343=EDGE_LOOP('',(#173,#174,#175,#176));
#344=EDGE_LOOP('',(#177,#178,#179,#180));
#345=EDGE_LOOP('',(#181,#182,#183,#184));
#346=EDGE_LOOP('',(#185));
#347=EDGE_LOOP('',(#186,#187,#188,#189,#190,#191));
#348=EDGE_LOOP('',(#192));
#349=EDGE_LOOP('',(#193));
#350=EDGE_LOOP('',(#194));
#351=EDGE_LOOP('',(#195));
#352=EDGE_LOOP('',(#196));
#353=EDGE_LOOP('',(#197));
#354=EDGE_LOOP('',(#198));
#355=EDGE_LOOP('',(#199));
#356=EDGE_LOOP('',(#200));
#357=EDGE_LOOP('',(#201));
#358=EDGE_LOOP('',(#202));
#359=EDGE_LOOP('',(#203));
#360=FACE_BOUND('',#312,.T.);
#361=FACE_BOUND('',#313,.T.);
#362=FACE_BOUND('',#314,.T.);
#363=FACE_BOUND('',#315,.T.);
#364=FACE_BOUND('',#316,.T.);
#365=FACE_BOUND('',#317,.T.);
#366=FACE_BOUND('',#318,.T.);
#367=FACE_BOUND('',#319,.T.);
#368=FACE_BOUND('',#320,.T.);
#369=FACE_BOUND('',#321,.T.);
#370=FACE_BOUND('',#322,.T.);
#371=FACE_BOUND('',#323,.T.);
#372=FACE_BOUND('',#324,.T.);
#373=FACE_BOUND('',#325,.T.);
#374=FACE_BOUND('',#326,.T.);
#375=FACE_BOUND('',#327,.T.);
#376=FACE_BOUND('',#328,.T.);
#377=FACE_BOUND('',#329,.T.);
#378=FACE_BOUND('',#330,.T.);
#379=FACE_BOUND('',#331,.T.);
#380=FACE_BOUND('',#332,.T.);
#381=FACE_BOUND('',#333,.T.);
#382=FACE_BOUND('',#334,.T.);
#383=FACE_BOUND('',#335,.T.);
#384=FACE_BOUND('',#336,.T.);
#385=FACE_BOUND('',#337,.T.);
#386=FACE_BOUND('',#338,.T.);
#387=FACE_BOUND('',#339,.T.);
#388=FACE_BOUND('',#340,.T.);
#389=FACE_BOUND('',#341,.T.);
#390=FACE_BOUND('',#342,.T.);
#391=FACE_BOUND('',#343,.T.);
#392=FACE_BOUND('',#344,.T.);
#393=FACE_BOUND('',#345,.T.);
#394=FACE_BOUND('',#346,.T.);
#395=FACE_BOUND('',#347,.T.);
#396=FACE_BOUND('',#348,.T.);
#397=FACE_BOUND('',#349,.T.);
#398=FACE_BOUND('',#350,.T.);
#399=FACE_BOUND('',#351,.T.);
#400=FACE_BOUND('',#352,.T.);
#401=FACE_BOUND('',#353,.T.);
#402=FACE_BOUND('',#354,.T.);
#403=FACE_BOUND('',#355,.T.);
#404=FACE_BOUND('',#356,.T.);
#405=FACE_BOUND('',#357,.T.);
#406=FACE_BOUND('',#358,.T.);
#407=FACE_BOUND('',#359,.T.);
#408=CYLINDRICAL_SURFACE('',#453,0.002);
#409=CYLINDRICAL_SURFACE('',#456,0.01);
#410=CYLINDRICAL_SURFACE('',#487,0.0016);
#411=CYLINDRICAL_SURFACE('',#488,0.0016);
#412=CYLINDRICAL_SURFACE('',#489,0.0016);
#413=CYLINDRICAL_SURFACE('',#490,0.0016);
#414=CYLINDRICAL_SURFACE('',#491,0.0016);
#415=CYLINDRICAL_SURFACE('',#492,0.0016);
#416=ADVANCED_FACE('',(#360,#361),#408,.F.);
#417=ADVANCED_FACE('',(#362,#363),#409,.T.);
#418=ADVANCED_FACE('',(#364,#365,#366,#367,#368,#369,#370,#371),#84,.T.);
#419=ADVANCED_FACE('',(#372),#85,.F.);
#420=ADVANCED_FACE('',(#373),#86,.F.);
#421=ADVANCED_FACE('',(#374),#87,.F.);
#422=ADVANCED_FACE('',(#375),#88,.F.);
#423=ADVANCED_FACE('',(#376),#89,.F.);
#424=ADVANCED_FACE('',(#377),#90,.F.);
#425=ADVANCED_FACE('',(#378,#379),#91,.T.);
#426=ADVANCED_FACE('',(#380,#381,#382,#383,#384,#385,#386,#387),#92,.T.);
#427=ADVANCED_FACE('',(#388),#93,.F.);
#428=ADVANCED_FACE('',(#389),#94,.F.);
#429=ADVANCED_FACE('',(#390),#95,.F.);
#430=ADVANCED_FACE('',(#391),#96,.F.);
#431=ADVANCED_FACE('',(#392),#97,.F.);
#432=ADVANCED_FACE('',(#393),#98,.F.);
#433=ADVANCED_FACE('',(#394,#395),#99,.T.);
#434=ADVANCED_FACE('',(#396,#397),#410,.F.);
#435=ADVANCED_FACE('',(#398,#399),#411,.F.);
#436=ADVANCED_FACE('',(#400,#401),#412,.F.);
#437=ADVANCED_FACE('',(#402,#403),#413,.F.);
#438=ADVANCED_FACE('',(#404,#405),#414,.F.);
#439=ADVANCED_FACE('',(#406,#407),#415,.F.);
#440=CLOSED_SHELL('',(#416,#417,#418,#419,#420,#421,#422,#423,#424,#425,
#426,#427,#428,#429,#430,#431,#432,#433,#434,#435,#436,#437,#438,#439));
#441=STYLED_ITEM('',(#442),#449);
#442=PRESENTATION_STYLE_ASSIGNMENT((#443));
#443=SURFACE_STYLE_USAGE(.BOTH.,#444);
#444=SURFACE_SIDE_STYLE('',(#445));
#445=SURFACE_STYLE_FILL_AREA(#446);
#446=FILL_AREA_STYLE('',(#447));
#447=FILL_AREA_STYLE_COLOUR('',#448);
#448=COLOUR_RGB('',0.647058823529412,0.647058823529412,0.647058823529412);
#449=MANIFOLD_SOLID_BREP('adapter',#440);
#450=SHAPE_DEFINITION_REPRESENTATION(#734,#451);
#451=SHAPE_REPRESENTATION('adapter',(#452),#729);
#452=AXIS2_PLACEMENT_3D('',#611,#493,#494);
#453=AXIS2_PLACEMENT_3D('',#612,#495,#496);
#454=AXIS2_PLACEMENT_3D('',#613,#497,#498);
#455=AXIS2_PLACEMENT_3D('',#615,#499,#500);
#456=AXIS2_PLACEMENT_3D('',#617,#501,#502);
#457=AXIS2_PLACEMENT_3D('',#618,#503,#504);
#458=AXIS2_PLACEMENT_3D('',#620,#505,#506);
#459=AXIS2_PLACEMENT_3D('',#622,#507,#508);
#460=AXIS2_PLACEMENT_3D('',#623,#509,#510);
#461=AXIS2_PLACEMENT_3D('',#625,#511,#512);
#462=AXIS2_PLACEMENT_3D('',#627,#513,#514);
#463=AXIS2_PLACEMENT_3D('',#629,#515,#516);
#464=AXIS2_PLACEMENT_3D('',#631,#517,#518);
#465=AXIS2_PLACEMENT_3D('',#633,#519,#520);
#466=AXIS2_PLACEMENT_3D('',#647,#527,#528);
#467=AXIS2_PLACEMENT_3D('',#653,#532,#533);
#468=AXIS2_PLACEMENT_3D('',#657,#536,#537);
#469=AXIS2_PLACEMENT_3D('',#661,#540,#541);
#470=AXIS2_PLACEMENT_3D('',#665,#544,#545);
#471=AXIS2_PLACEMENT_3D('',#669,#548,#549);
#472=AXIS2_PLACEMENT_3D('',#671,#551,#552);
#473=AXIS2_PLACEMENT_3D('',#672,#553,#554);
#474=AXIS2_PLACEMENT_3D('',#673,#555,#556);
#475=AXIS2_PLACEMENT_3D('',#675,#557,#558);
#476=AXIS2_PLACEMENT_3D('',#677,#559,#560);
#477=AXIS2_PLACEMENT_3D('',#679,#561,#562);
#478=AXIS2_PLACEMENT_3D('',#681,#563,#564);
#479=AXIS2_PLACEMENT_3D('',#683,#565,#566);
#480=AXIS2_PLACEMENT_3D('',#697,#573,#574);
#481=AXIS2_PLACEMENT_3D('',#703,#578,#579);
#482=AXIS2_PLACEMENT_3D('',#707,#582,#583);
#483=AXIS2_PLACEMENT_3D('',#711,#586,#587);
#484=AXIS2_PLACEMENT_3D('',#715,#590,#591);
#485=AXIS2_PLACEMENT_3D('',#719,#594,#595);
#486=AXIS2_PLACEMENT_3D('',#721,#597,#598);
#487=AXIS2_PLACEMENT_3D('',#722,#599,#600);
#488=AXIS2_PLACEMENT_3D('',#723,#601,#602);
#489=AXIS2_PLACEMENT_3D('',#724,#603,#604);
#490=AXIS2_PLACEMENT_3D('',#725,#605,#606);
#491=AXIS2_PLACEMENT_3D('',#726,#607,#608);
#492=AXIS2_PLACEMENT_3D('',#727,#609,#610);
#493=DIRECTION('',(0.,0.,1.));
#494=DIRECTION('',(1.,0.,0.));
#495=DIRECTION('',(0.,1.,0.));
#496=DIRECTION('',(0.,0.,1.));
#497=DIRECTION('',(0.,-1.,0.));
#498=DIRECTION('',(0.,0.,-1.));
#499=DIRECTION('',(0.,-1.,0.));
#500=DIRECTION('',(0.,0.,-1.));
#501=DIRECTION('',(0.,1.,0.));
#502=DIRECTION('',(0.,0.,1.));
#503=DIRECTION('',(0.,-1.,0.));
#504=DIRECTION('',(0.,0.,-1.));
#505=DIRECTION('',(0.,-1.,0.));
#506=DIRECTION('',(0.,0.,-1.));
#507=DIRECTION('',(0.,-1.,0.));
#508=DIRECTION('',(1.,0.,0.));
#509=DIRECTION('',(0.,-1.,0.));
#510=DIRECTION('',(0.,0.,-1.));
#511=DIRECTION('',(0.,-1.,0.));
#512=DIRECTION('',(0.,0.,-1.));
#513=DIRECTION('',(0.,-1.,0.));
#514=DIRECTION('',(0.,0.,-1.));
#515=DIRECTION('',(0.,-1.,0.));
#516=DIRECTION('',(0.,0.,-1.));
#517=DIRECTION('',(0.,-1.,0.));
#518=DIRECTION('',(0.,0.,-1.));
#519=DIRECTION('',(0.,-1.,0.));
#520=DIRECTION('',(0.,0.,-1.));
#521=DIRECTION('',(0.,0.,-1.));
#522=DIRECTION('',(-0.866025403784439,0.,-0.5));
#523=DIRECTION('',(-0.866025403784439,0.,0.5));
#524=DIRECTION('',(4.73106402539129E-16,0.,1.));
#525=DIRECTION('',(0.866025403784439,0.,0.5));
#526=DIRECTION('',(0.866025403784439,0.,-0.5));
#527=DIRECTION('',(1.,0.,0.));
#528=DIRECTION('',(0.,0.,-1.));
#529=DIRECTION('',(0.,1.,0.));
#530=DIRECTION('',(0.,0.,-1.));
#531=DIRECTION('',(0.,1.,0.));
#532=DIRECTION('',(0.5,0.,0.866025403784439));
#533=DIRECTION('',(0.866025403784439,0.,-0.5));
#534=DIRECTION('',(0.,1.,0.));
#535=DIRECTION('',(0.866025403784439,0.,-0.5));
#536=DIRECTION('',(-0.5,0.,0.866025403784439));
#537=DIRECTION('',(0.866025403784439,0.,0.5));
#538=DIRECTION('',(0.,1.,0.));
#539=DIRECTION('',(0.866025403784439,0.,0.5));
#540=DIRECTION('',(-1.,0.,4.73106402539129E-16));
#541=DIRECTION('',(4.73106402539129E-16,0.,1.));
#542=DIRECTION('',(0.,1.,0.));
#543=DIRECTION('',(4.73106402539129E-16,0.,1.));
#544=DIRECTION('',(-0.5,0.,-0.866025403784438));
#545=DIRECTION('',(-0.866025403784438,0.,0.5));
#546=DIRECTION('',(0.,1.,0.));
#547=DIRECTION('',(-0.866025403784439,0.,0.5));
#548=DIRECTION('',(0.5,0.,-0.866025403784439));
#549=DIRECTION('',(-0.866025403784439,0.,-0.5));
#550=DIRECTION('',(-0.866025403784439,0.,-0.5));
#551=DIRECTION('',(0.,-1.,0.));
#552=DIRECTION('',(1.,0.,0.));
#553=DIRECTION('',(0.,1.,0.));
#554=DIRECTION('',(1.,0.,0.));
#555=DIRECTION('',(0.,1.,0.));
#556=DIRECTION('',(0.,0.,1.));
#557=DIRECTION('',(0.,1.,0.));
#558=DIRECTION('',(0.,0.,1.));
#559=DIRECTION('',(0.,1.,0.));
#560=DIRECTION('',(0.,0.,1.));
#561=DIRECTION('',(0.,1.,0.));
#562=DIRECTION('',(0.,0.,1.));
#563=DIRECTION('',(0.,1.,0.));
#564=DIRECTION('',(0.,0.,1.));
#565=DIRECTION('',(0.,1.,0.));
#566=DIRECTION('',(0.,0.,1.));
#567=DIRECTION('',(0.,0.,-1.));
#568=DIRECTION('',(0.866025403784439,0.,-0.5));
#569=DIRECTION('',(0.866025403784439,0.,0.5));
#570=DIRECTION('',(4.73106402539129E-16,0.,1.));
#571=DIRECTION('',(-0.866025403784439,0.,0.5));
#572=DIRECTION('',(-0.866025403784439,0.,-0.5));
#573=DIRECTION('',(1.,0.,0.));
#574=DIRECTION('',(0.,0.,-1.));
#575=DIRECTION('',(0.,-1.,0.));
#576=DIRECTION('',(0.,0.,-1.));
#577=DIRECTION('',(0.,-1.,0.));
#578=DIRECTION('',(0.5,0.,0.866025403784439));
#579=DIRECTION('',(0.866025403784439,0.,-0.5));
#580=DIRECTION('',(0.866025403784439,0.,-0.5));
#581=DIRECTION('',(0.,-1.,0.));
#582=DIRECTION('',(-0.5,0.,0.866025403784439));
#583=DIRECTION('',(0.866025403784439,0.,0.5));
#584=DIRECTION('',(0.866025403784439,0.,0.5));
#585=DIRECTION('',(0.,-1.,0.));
#586=DIRECTION('',(-1.,0.,4.73106402539129E-16));
#587=DIRECTION('',(4.73106402539129E-16,0.,1.));
#588=DIRECTION('',(4.73106402539129E-16,0.,1.));
#589=DIRECTION('',(0.,-1.,0.));
#590=DIRECTION('',(-0.5,0.,-0.866025403784438));
#591=DIRECTION('',(-0.866025403784438,0.,0.5));
#592=DIRECTION('',(-0.866025403784439,0.,0.5));
#593=DIRECTION('',(0.,-1.,0.));
#594=DIRECTION('',(0.5,0.,-0.866025403784439));
#595=DIRECTION('',(-0.866025403784439,0.,-0.5));
#596=DIRECTION('',(-0.866025403784439,0.,-0.5));
#597=DIRECTION('',(0.,1.,0.));
#598=DIRECTION('',(1.,0.,0.));
#599=DIRECTION('',(0.,-1.,0.));
#600=DIRECTION('',(0.,0.,-1.));
#601=DIRECTION('',(0.,-1.,0.));
#602=DIRECTION('',(0.,0.,-1.));
#603=DIRECTION('',(0.,-1.,0.));
#604=DIRECTION('',(0.,0.,-1.));
#605=DIRECTION('',(0.,-1.,0.));
#606=DIRECTION('',(0.,0.,-1.));
#607=DIRECTION('',(0.,-1.,0.));
#608=DIRECTION('',(0.,0.,-1.));
#609=DIRECTION('',(0.,-1.,0.));
#610=DIRECTION('',(0.,0.,-1.));
#611=CARTESIAN_POINT('',(0.,0.,0.));
#612=CARTESIAN_POINT('',(0.,-0.0266,1.22464679914735E-19));
#613=CARTESIAN_POINT('',(0.,-0.03549,1.22464679914735E-19));
#614=CARTESIAN_POINT('',(0.,-0.03549,-0.002));
#615=CARTESIAN_POINT('',(0.,-0.01451,1.22464679914735E-19));
#616=CARTESIAN_POINT('',(0.,-0.01451,-0.002));
#617=CARTESIAN_POINT('',(0.,-0.0266,6.12323399573677E-19));
#618=CARTESIAN_POINT('',(0.,-0.0266,6.12323399573677E-19));
#619=CARTESIAN_POINT('',(0.,-0.0266,-0.01));
#620=CARTESIAN_POINT('',(0.,-0.0234,6.12323399573677E-19));
#621=CARTESIAN_POINT('',(0.,-0.0234,-0.01));
#622=CARTESIAN_POINT('',(0.,-0.0266,0.));
#623=CARTESIAN_POINT('',(0.0024407849302036,-0.0266,0.00422756350946109));
#624=CARTESIAN_POINT('',(0.0024407849302036,-0.0266,0.0026275635094611));
#625=CARTESIAN_POINT('',(0.0048815698604072,-0.0266,-5.20417042793042E-18));
#626=CARTESIAN_POINT('',(0.0048815698604072,-0.0266,-0.00160000000000001));
#627=CARTESIAN_POINT('',(0.0024407849302036,-0.0266,-0.00422756350946109));
#628=CARTESIAN_POINT('',(0.0024407849302036,-0.0266,-0.00582756350946109));
#629=CARTESIAN_POINT('',(-0.0024407849302036,-0.0266,-0.00422756350946109));
#630=CARTESIAN_POINT('',(-0.0024407849302036,-0.0266,-0.00582756350946109));
#631=CARTESIAN_POINT('',(-0.00488156986040721,-0.0266,3.03576608295941E-18));
#632=CARTESIAN_POINT('',(-0.00488156986040721,-0.0266,-0.0016));
#633=CARTESIAN_POINT('',(-0.0024407849302036,-0.0266,0.00422756350946109));
#634=CARTESIAN_POINT('',(-0.0024407849302036,-0.0266,0.0026275635094611));
#635=CARTESIAN_POINT('',(-0.00238156986040721,-0.0266,0.));
#636=CARTESIAN_POINT('',(-0.00238156986040721,-0.0266,0.001375));
#637=CARTESIAN_POINT('',(-0.00238156986040721,-0.0266,-0.001375));
#638=CARTESIAN_POINT('',(-0.0011907849302036,-0.0266,0.0020625));
#639=CARTESIAN_POINT('',(1.7347234759768E-18,-0.0266,0.00275));
#640=CARTESIAN_POINT('',(0.0011907849302036,-0.0266,0.0020625));
#641=CARTESIAN_POINT('',(0.00238156986040721,-0.0266,0.001375));
#642=CARTESIAN_POINT('',(0.00238156986040721,-0.0266,0.));
#643=CARTESIAN_POINT('',(0.00238156986040721,-0.0266,-0.001375));
#644=CARTESIAN_POINT('',(0.0011907849302036,-0.0266,-0.0020625));
#645=CARTESIAN_POINT('',(0.,-0.0266,-0.00275));
#646=CARTESIAN_POINT('',(-0.0011907849302036,-0.0266,-0.0020625));
#647=CARTESIAN_POINT('',(-0.00238156986040721,-0.03549,0.));
#648=CARTESIAN_POINT('',(-0.00238156986040721,-0.03549,-0.001375));
#649=CARTESIAN_POINT('',(-0.00238156986040721,-0.03549,-0.001375));
#650=CARTESIAN_POINT('',(-0.00238156986040721,-0.03549,0.));
#651=CARTESIAN_POINT('',(-0.00238156986040721,-0.03549,0.001375));
#652=CARTESIAN_POINT('',(-0.00238156986040721,-0.03549,0.001375));
#653=CARTESIAN_POINT('',(-0.0011907849302036,-0.03549,-0.0020625));
#654=CARTESIAN_POINT('',(0.,-0.03549,-0.00275));
#655=CARTESIAN_POINT('',(0.,-0.03549,-0.00275));
#656=CARTESIAN_POINT('',(-0.0011907849302036,-0.03549,-0.0020625));
#657=CARTESIAN_POINT('',(0.0011907849302036,-0.03549,-0.0020625));
#658=CARTESIAN_POINT('',(0.00238156986040721,-0.03549,-0.001375));
#659=CARTESIAN_POINT('',(0.00238156986040721,-0.03549,-0.001375));
#660=CARTESIAN_POINT('',(0.0011907849302036,-0.03549,-0.0020625));
#661=CARTESIAN_POINT('',(0.00238156986040721,-0.03549,0.));
#662=CARTESIAN_POINT('',(0.00238156986040721,-0.03549,0.001375));
#663=CARTESIAN_POINT('',(0.00238156986040721,-0.03549,0.001375));
#664=CARTESIAN_POINT('',(0.00238156986040721,-0.03549,0.));
#665=CARTESIAN_POINT('',(0.0011907849302036,-0.03549,0.0020625));
#666=CARTESIAN_POINT('',(1.7347234759768E-18,-0.03549,0.00275));
#667=CARTESIAN_POINT('',(1.7347234759768E-18,-0.03549,0.00275));
#668=CARTESIAN_POINT('',(0.0011907849302036,-0.03549,0.0020625));
#669=CARTESIAN_POINT('',(-0.0011907849302036,-0.03549,0.0020625));
#670=CARTESIAN_POINT('',(-0.0011907849302036,-0.03549,0.0020625));
#671=CARTESIAN_POINT('',(0.,-0.03549,0.));
#672=CARTESIAN_POINT('',(0.,-0.0234,0.));
#673=CARTESIAN_POINT('',(0.0024407849302036,-0.0234,0.00422756350946109));
#674=CARTESIAN_POINT('',(0.0024407849302036,-0.0234,0.00582756350946109));
#675=CARTESIAN_POINT('',(0.0048815698604072,-0.0234,-5.20417042793042E-18));
#676=CARTESIAN_POINT('',(0.0048815698604072,-0.0234,0.00159999999999999));
#677=CARTESIAN_POINT('',(0.0024407849302036,-0.0234,-0.00422756350946109));
#678=CARTESIAN_POINT('',(0.0024407849302036,-0.0234,-0.0026275635094611));
#679=CARTESIAN_POINT('',(-0.0024407849302036,-0.0234,-0.00422756350946109));
#680=CARTESIAN_POINT('',(-0.0024407849302036,-0.0234,-0.0026275635094611));
#681=CARTESIAN_POINT('',(-0.00488156986040721,-0.0234,3.03576608295941E-18));
#682=CARTESIAN_POINT('',(-0.00488156986040721,-0.0234,0.0016));
#683=CARTESIAN_POINT('',(-0.0024407849302036,-0.0234,0.00422756350946109));
#684=CARTESIAN_POINT('',(-0.0024407849302036,-0.0234,0.00582756350946109));
#685=CARTESIAN_POINT('',(-0.00238156986040721,-0.0234,0.));
#686=CARTESIAN_POINT('',(-0.00238156986040721,-0.0234,0.001375));
#687=CARTESIAN_POINT('',(-0.00238156986040721,-0.0234,-0.001375));
#688=CARTESIAN_POINT('',(-0.0011907849302036,-0.0234,-0.0020625));
#689=CARTESIAN_POINT('',(0.,-0.0234,-0.00275));
#690=CARTESIAN_POINT('',(0.0011907849302036,-0.0234,-0.0020625));
#691=CARTESIAN_POINT('',(0.00238156986040721,-0.0234,-0.001375));
#692=CARTESIAN_POINT('',(0.00238156986040721,-0.0234,0.));
#693=CARTESIAN_POINT('',(0.00238156986040721,-0.0234,0.001375));
#694=CARTESIAN_POINT('',(0.0011907849302036,-0.0234,0.0020625));
#695=CARTESIAN_POINT('',(1.7347234759768E-18,-0.0234,0.00275));
#696=CARTESIAN_POINT('',(-0.0011907849302036,-0.0234,0.0020625));
#697=CARTESIAN_POINT('',(-0.00238156986040721,-0.01451,0.));
#698=CARTESIAN_POINT('',(-0.00238156986040721,-0.01451,0.001375));
#699=CARTESIAN_POINT('',(-0.00238156986040721,-0.01451,0.001375));
#700=CARTESIAN_POINT('',(-0.00238156986040721,-0.01451,0.));
#701=CARTESIAN_POINT('',(-0.00238156986040721,-0.01451,-0.001375));
#702=CARTESIAN_POINT('',(-0.00238156986040721,-0.01451,-0.001375));
#703=CARTESIAN_POINT('',(-0.0011907849302036,-0.01451,-0.0020625));
#704=CARTESIAN_POINT('',(-0.0011907849302036,-0.01451,-0.0020625));
#705=CARTESIAN_POINT('',(0.,-0.01451,-0.00275));
#706=CARTESIAN_POINT('',(0.,-0.01451,-0.00275));
#707=CARTESIAN_POINT('',(0.0011907849302036,-0.01451,-0.0020625));
#708=CARTESIAN_POINT('',(0.0011907849302036,-0.01451,-0.0020625));
#709=CARTESIAN_POINT('',(0.00238156986040721,-0.01451,-0.001375));
#710=CARTESIAN_POINT('',(0.00238156986040721,-0.01451,-0.001375));
#711=CARTESIAN_POINT('',(0.00238156986040721,-0.01451,0.));
#712=CARTESIAN_POINT('',(0.00238156986040721,-0.01451,0.));
#713=CARTESIAN_POINT('',(0.00238156986040721,-0.01451,0.001375));
#714=CARTESIAN_POINT('',(0.00238156986040721,-0.01451,0.001375));
#715=CARTESIAN_POINT('',(0.0011907849302036,-0.01451,0.0020625));
#716=CARTESIAN_POINT('',(0.0011907849302036,-0.01451,0.0020625));
#717=CARTESIAN_POINT('',(1.7347234759768E-18,-0.01451,0.00275));
#718=CARTESIAN_POINT('',(1.7347234759768E-18,-0.01451,0.00275));
#719=CARTESIAN_POINT('',(-0.0011907849302036,-0.01451,0.0020625));
#720=CARTESIAN_POINT('',(-0.0011907849302036,-0.01451,0.0020625));
#721=CARTESIAN_POINT('',(0.,-0.01451,0.));
#722=CARTESIAN_POINT('',(-0.0024407849302036,0.0647412013953796,0.00422756350946109));
#723=CARTESIAN_POINT('',(-0.00488156986040721,0.0647412013953796,3.03576608295941E-18));
#724=CARTESIAN_POINT('',(-0.0024407849302036,0.0647412013953796,-0.00422756350946109));
#725=CARTESIAN_POINT('',(0.0024407849302036,0.0647412013953796,-0.00422756350946109));
#726=CARTESIAN_POINT('',(0.0048815698604072,0.0647412013953796,-5.20417042793042E-18));
#727=CARTESIAN_POINT('',(0.0024407849302036,0.0647412013953796,0.00422756350946109));
#728=MECHANICAL_DESIGN_GEOMETRIC_PRESENTATION_REPRESENTATION('',(#441),
#729);
#729=(
GEOMETRIC_REPRESENTATION_CONTEXT(3)
GLOBAL_UNCERTAINTY_ASSIGNED_CONTEXT((#730))
GLOBAL_UNIT_ASSIGNED_CONTEXT((#733,#732,#731))
REPRESENTATION_CONTEXT('adapter','TOP_LEVEL_ASSEMBLY_PART')
);
#730=UNCERTAINTY_MEASURE_WITH_UNIT(LENGTH_MEASURE(1.E-8),#733,
'DISTANCE_ACCURACY_VALUE','Maximum Tolerance applied to model');
#731=(
NAMED_UNIT(*)
SI_UNIT($,.STERADIAN.)
SOLID_ANGLE_UNIT()
);
#732=(
NAMED_UNIT(*)
PLANE_ANGLE_UNIT()
SI_UNIT($,.RADIAN.)
);
#733=(
LENGTH_UNIT()
NAMED_UNIT(*)
SI_UNIT($,.METRE.)
);
#734=PRODUCT_DEFINITION_SHAPE('','',#735);
#735=PRODUCT_DEFINITION('','',#737,#736);
#736=PRODUCT_DEFINITION_CONTEXT('',#743,'design');
#737=PRODUCT_DEFINITION_FORMATION_WITH_SPECIFIED_SOURCE('','',#739,
 .NOT_KNOWN.);
#738=PRODUCT_RELATED_PRODUCT_CATEGORY('','',(#739));
#739=PRODUCT('adapter','adapter','adapter',(#741));
#740=PRODUCT_CATEGORY('','');
#741=PRODUCT_CONTEXT('',#743,'mechanical');
#742=APPLICATION_PROTOCOL_DEFINITION('international standard',
'ap242_managed_model_based_3d_engineering',2020,#743);
#743=APPLICATION_CONTEXT('managed model based 3d engineering');
ENDSEC;
END-ISO-10303-21;
