ISO-10303-21;
HEADER;
/* Generated by software containing ST-Developer
 * from STEP Tools, Inc. (www.steptools.com) 
 */
/* OPTION: using custom renumber hook */

FILE_DESCRIPTION(
/* description */ ('STEP AP242 Edition 2',
'CAx-IF Rec.Pracs.---Representation and Presentation of Product Manufa
cturing Information (PMI)---4.0---2014-10-13',
'CAx-IF Rec.Pracs.---3D Tessellated Geometry---0.4---2014-09-14','2;1',
'CAx-IF Rec.Pracs.---User Defined Attributes---1.5---2016-08-15'),
/* implementation_level */ '2;1');

FILE_NAME(
/* name */ 'MAIN - shaft (2)',
/* time_stamp */ '2025-12-27T00:10:36Z',
/* author */ (''),
/* organization */ (''),
/* preprocessor_version */ 'ST-DEVELOPER v20',
/* originating_system */ 'ONSHAPE BY PTC INC, 1.208',
/* authorisation */ '  ');

FILE_SCHEMA (('AP242_MANAGED_MODEL_BASED_3D_ENGINEERING_MIM_LF { 1 0 10303 442 3 1 4 }'));
ENDSEC;

DATA;
#10=SHAPE_REPRESENTATION_RELATIONSHIP('','',#100,#11);
#11=ADVANCED_BREP_SHAPE_REPRESENTATION('',(#98),#169);
#12=TOROIDAL_SURFACE('',#109,0.0019,0.0001);
#13=CIRCLE('',#104,0.002);
#14=CIRCLE('',#105,0.002);
#15=CIRCLE('',#106,0.002);
#16=CIRCLE('',#108,0.0019);
#17=CYLINDRICAL_SURFACE('',#103,0.002);
#18=B_SPLINE_CURVE_WITH_KNOTS('',3,(#143,#144,#145,#146),.UNSPECIFIED.,
 .F.,.F.,(4,4),(0.,0.000202242545902585),.UNSPECIFIED.);
#19=B_SPLINE_CURVE_WITH_KNOTS('',3,(#154,#155,#156,#157),.UNSPECIFIED.,
 .F.,.F.,(4,4),(0.,0.000203861545494314),.UNSPECIFIED.);
#20=ORIENTED_EDGE('',*,*,#40,.T.);
#21=ORIENTED_EDGE('',*,*,#41,.T.);
#22=ORIENTED_EDGE('',*,*,#42,.T.);
#23=ORIENTED_EDGE('',*,*,#43,.F.);
#24=ORIENTED_EDGE('',*,*,#44,.F.);
#25=ORIENTED_EDGE('',*,*,#45,.T.);
#26=ORIENTED_EDGE('',*,*,#42,.F.);
#27=ORIENTED_EDGE('',*,*,#46,.T.);
#28=ORIENTED_EDGE('',*,*,#44,.T.);
#29=ORIENTED_EDGE('',*,*,#47,.T.);
#30=ORIENTED_EDGE('',*,*,#48,.F.);
#31=ORIENTED_EDGE('',*,*,#40,.F.);
#32=ORIENTED_EDGE('',*,*,#49,.T.);
#33=ORIENTED_EDGE('',*,*,#45,.F.);
#34=ORIENTED_EDGE('',*,*,#46,.F.);
#35=ORIENTED_EDGE('',*,*,#41,.F.);
#36=ORIENTED_EDGE('',*,*,#49,.F.);
#37=ORIENTED_EDGE('',*,*,#47,.F.);
#38=ORIENTED_EDGE('',*,*,#43,.T.);
#39=ORIENTED_EDGE('',*,*,#48,.T.);
#40=EDGE_CURVE('',#50,#51,#57,.T.);
#41=EDGE_CURVE('',#51,#52,#18,.T.);
#42=EDGE_CURVE('',#52,#53,#58,.T.);
#43=EDGE_CURVE('',#54,#53,#59,.T.);
#44=EDGE_CURVE('',#55,#54,#60,.T.);
#45=EDGE_CURVE('',#55,#50,#19,.T.);
#46=EDGE_CURVE('',#52,#55,#13,.F.);
#47=EDGE_CURVE('',#54,#53,#14,.T.);
#48=EDGE_CURVE('',#56,#56,#15,.T.);
#49=EDGE_CURVE('',#50,#51,#16,.T.);
#50=VERTEX_POINT('',#141);
#51=VERTEX_POINT('',#142);
#52=VERTEX_POINT('',#147);
#53=VERTEX_POINT('',#149);
#54=VERTEX_POINT('',#151);
#55=VERTEX_POINT('',#153);
#56=VERTEX_POINT('',#162);
#57=LINE('',#140,#61);
#58=LINE('',#148,#62);
#59=LINE('',#150,#63);
#60=LINE('',#152,#64);
#61=VECTOR('',#116,1.);
#62=VECTOR('',#117,1.);
#63=VECTOR('',#118,1.);
#64=VECTOR('',#119,1.);
#65=EDGE_LOOP('',(#20,#21,#22,#23,#24,#25));
#66=EDGE_LOOP('',(#26,#27,#28,#29));
#67=EDGE_LOOP('',(#30));
#68=EDGE_LOOP('',(#31,#32));
#69=EDGE_LOOP('',(#33,#34,#35,#36));
#70=EDGE_LOOP('',(#37,#38));
#71=EDGE_LOOP('',(#39));
#72=FACE_BOUND('',#65,.T.);
#73=FACE_BOUND('',#66,.T.);
#74=FACE_BOUND('',#67,.T.);
#75=FACE_BOUND('',#68,.T.);
#76=FACE_BOUND('',#69,.T.);
#77=FACE_BOUND('',#70,.T.);
#78=FACE_BOUND('',#71,.T.);
#79=PLANE('',#102);
#80=PLANE('',#107);
#81=PLANE('',#110);
#82=PLANE('',#111);
#83=ADVANCED_FACE('',(#72),#79,.T.);
#84=ADVANCED_FACE('',(#73,#74),#17,.T.);
#85=ADVANCED_FACE('',(#75),#80,.T.);
#86=ADVANCED_FACE('',(#76),#12,.T.);
#87=ADVANCED_FACE('',(#77),#81,.F.);
#88=ADVANCED_FACE('',(#78),#82,.T.);
#89=CLOSED_SHELL('',(#83,#84,#85,#86,#87,#88));
#90=STYLED_ITEM('',(#91),#98);
#91=PRESENTATION_STYLE_ASSIGNMENT((#92));
#92=SURFACE_STYLE_USAGE(.BOTH.,#93);
#93=SURFACE_SIDE_STYLE('',(#94));
#94=SURFACE_STYLE_FILL_AREA(#95);
#95=FILL_AREA_STYLE('',(#96));
#96=FILL_AREA_STYLE_COLOUR('',#97);
#97=COLOUR_RGB('',0.647058823529412,0.647058823529412,0.647058823529412);
#98=MANIFOLD_SOLID_BREP('shaft',#89);
#99=SHAPE_DEFINITION_REPRESENTATION(#174,#100);
#100=SHAPE_REPRESENTATION('shaft',(#101),#169);
#101=AXIS2_PLACEMENT_3D('',#138,#112,#113);
#102=AXIS2_PLACEMENT_3D('',#139,#114,#115);
#103=AXIS2_PLACEMENT_3D('',#158,#120,#121);
#104=AXIS2_PLACEMENT_3D('',#159,#122,#123);
#105=AXIS2_PLACEMENT_3D('',#160,#124,#125);
#106=AXIS2_PLACEMENT_3D('',#161,#126,#127);
#107=AXIS2_PLACEMENT_3D('',#163,#128,#129);
#108=AXIS2_PLACEMENT_3D('',#164,#130,#131);
#109=AXIS2_PLACEMENT_3D('',#165,#132,#133);
#110=AXIS2_PLACEMENT_3D('',#166,#134,#135);
#111=AXIS2_PLACEMENT_3D('',#167,#136,#137);
#112=DIRECTION('',(0.,0.,1.));
#113=DIRECTION('',(1.,0.,0.));
#114=DIRECTION('',(0.,0.,1.));
#115=DIRECTION('',(1.,0.,0.));
#116=DIRECTION('',(1.,0.,0.));
#117=DIRECTION('',(0.,1.,0.));
#118=DIRECTION('',(1.,0.,0.));
#119=DIRECTION('',(0.,1.,0.));
#120=DIRECTION('',(0.,1.,0.));
#121=DIRECTION('',(0.,0.,1.));
#122=DIRECTION('',(0.,-1.,0.));
#123=DIRECTION('',(0.,0.,-1.));
#124=DIRECTION('',(0.,1.,0.));
#125=DIRECTION('',(0.,0.,1.));
#126=DIRECTION('',(0.,1.,0.));
#127=DIRECTION('',(0.,0.,1.));
#128=DIRECTION('',(0.,-1.,0.));
#129=DIRECTION('',(1.,0.,0.));
#130=DIRECTION('',(0.,-1.,0.));
#131=DIRECTION('',(0.,0.,-1.));
#132=DIRECTION('',(0.,-1.,0.));
#133=DIRECTION('',(0.,0.,-1.));
#134=DIRECTION('',(0.,1.,0.));
#135=DIRECTION('',(-1.,0.,0.));
#136=DIRECTION('',(0.,1.,0.));
#137=DIRECTION('',(-1.,0.,0.));
#138=CARTESIAN_POINT('',(0.,0.,0.));
#139=CARTESIAN_POINT('',(-1.0842021724855E-19,-0.032,0.0015));
#140=CARTESIAN_POINT('',(-1.0842021724855E-19,-0.032,0.0015));
#141=CARTESIAN_POINT('',(-0.00116619037896906,-0.032,0.0015));
#142=CARTESIAN_POINT('',(0.00116619037896906,-0.032,0.0015));
#143=CARTESIAN_POINT('',(0.00116619037896906,-0.032,0.0015));
#144=CARTESIAN_POINT('',(0.00123461169085253,-0.032,0.0015));
#145=CARTESIAN_POINT('',(0.00132287565553229,-0.0319692591778305,0.0015));
#146=CARTESIAN_POINT('',(0.00132287565553229,-0.0319,0.0015));
#147=CARTESIAN_POINT('',(0.0013228756555323,-0.0319,0.0015));
#148=CARTESIAN_POINT('',(0.0013228756555323,-0.032,0.0015));
#149=CARTESIAN_POINT('',(0.0013228756555323,0.,0.0015));
#150=CARTESIAN_POINT('',(-1.0842021724855E-19,0.,0.0015));
#151=CARTESIAN_POINT('',(-0.0013228756555323,0.,0.0015));
#152=CARTESIAN_POINT('',(-0.0013228756555323,-0.032,0.0015));
#153=CARTESIAN_POINT('',(-0.0013228756555323,-0.0319,0.0015));
#154=CARTESIAN_POINT('',(-0.0013228756555323,-0.0319,0.0015));
#155=CARTESIAN_POINT('',(-0.0013228756555323,-0.0319692023808565,0.0015));
#156=CARTESIAN_POINT('',(-0.00123460345066183,-0.032,0.0015));
#157=CARTESIAN_POINT('',(-0.00116619037896906,-0.032,0.0015));
#158=CARTESIAN_POINT('',(3.39427700066387E-19,-0.032,-9.75781955236954E-19));
#159=CARTESIAN_POINT('',(3.39427700066387E-19,-0.0319,-9.75781955236954E-19));
#160=CARTESIAN_POINT('',(0.,0.,1.22464679914735E-19));
#161=CARTESIAN_POINT('',(0.,0.002,1.22464679914735E-19));
#162=CARTESIAN_POINT('',(0.,0.002,0.002));
#163=CARTESIAN_POINT('',(0.,-0.032,0.));
#164=CARTESIAN_POINT('',(3.39427700066387E-19,-0.032,-9.75781955236954E-19));
#165=CARTESIAN_POINT('',(3.39427700066387E-19,-0.0319,-9.75781955236954E-19));
#166=CARTESIAN_POINT('',(0.,0.,-8.67361737988404E-19));
#167=CARTESIAN_POINT('',(0.,0.002,-8.67361737988404E-19));
#168=MECHANICAL_DESIGN_GEOMETRIC_PRESENTATION_REPRESENTATION('',(#90),#169);
#169=(
GEOMETRIC_REPRESENTATION_CONTEXT(3)
GLOBAL_UNCERTAINTY_ASSIGNED_CONTEXT((#170))
GLOBAL_UNIT_ASSIGNED_CONTEXT((#173,#172,#171))
REPRESENTATION_CONTEXT('shaft','TOP_LEVEL_ASSEMBLY_PART')
);
#170=UNCERTAINTY_MEASURE_WITH_UNIT(LENGTH_MEASURE(2.E-5),#173,
'DISTANCE_ACCURACY_VALUE','Maximum Tolerance applied to model');
#171=(
NAMED_UNIT(*)
SI_UNIT($,.STERADIAN.)
SOLID_ANGLE_UNIT()
);
#172=(
NAMED_UNIT(*)
PLANE_ANGLE_UNIT()
SI_UNIT($,.RADIAN.)
);
#173=(
LENGTH_UNIT()
NAMED_UNIT(*)
SI_UNIT($,.METRE.)
);
#174=PRODUCT_DEFINITION_SHAPE('','',#175);
#175=PRODUCT_DEFINITION('','',#177,#176);
#176=PRODUCT_DEFINITION_CONTEXT('',#183,'design');
#177=PRODUCT_DEFINITION_FORMATION_WITH_SPECIFIED_SOURCE('','',#179,
 .NOT_KNOWN.);
#178=PRODUCT_RELATED_PRODUCT_CATEGORY('','',(#179));
#179=PRODUCT('shaft','shaft','shaft',(#181));
#180=PRODUCT_CATEGORY('','');
#181=PRODUCT_CONTEXT('',#183,'mechanical');
#182=APPLICATION_PROTOCOL_DEFINITION('international standard',
'ap242_managed_model_based_3d_engineering',2020,#183);
#183=APPLICATION_CONTEXT('managed model based 3d engineering');
ENDSEC;
END-ISO-10303-21;
