ISO-10303-21;
HEADER;
/* Generated by software containing ST-Developer
 * from STEP Tools, Inc. (www.steptools.com) 
 */
/* OPTION: using custom renumber hook */

FILE_DESCRIPTION(
/* description */ ('STEP AP242 Edition 2',
'CAx-IF Rec.Pracs.---Representation and Presentation of Product Manufa
cturing Information (PMI)---4.0---2014-10-13',
'CAx-IF Rec.Pracs.---3D Tessellated Geometry---0.4---2014-09-14','2;1',
'CAx-IF Rec.Pracs.---User Defined Attributes---1.5---2016-08-15'),
/* implementation_level */ '2;1');

FILE_NAME(
/* name */ 'MAIN - top',
/* time_stamp */ '2025-12-27T00:10:37Z',
/* author */ (''),
/* organization */ (''),
/* preprocessor_version */ 'ST-DEVELOPER v20',
/* originating_system */ 'ONSHAPE BY PTC INC, 1.208',
/* authorisation */ '  ');

FILE_SCHEMA (('AP242_MANAGED_MODEL_BASED_3D_ENGINEERING_MIM_LF { 1 0 10303 442 3 1 4 }'));
ENDSEC;

DATA;
#10=SHAPE_REPRESENTATION_RELATIONSHIP('','',#1164,#11);
#11=ADVANCED_BREP_SHAPE_REPRESENTATION('',(#1162),#1942);
#12=PLANE('',#1189);
#13=PLANE('',#1220);
#14=PLANE('',#1223);
#15=PLANE('',#1226);
#16=PLANE('',#1229);
#17=PLANE('',#1232);
#18=PLANE('',#1235);
#19=PLANE('',#1236);
#20=PLANE('',#1239);
#21=PLANE('',#1245);
#22=PLANE('',#1248);
#23=PLANE('',#1249);
#24=PLANE('',#1252);
#25=PLANE('',#1255);
#26=PLANE('',#1258);
#27=PLANE('',#1261);
#28=PLANE('',#1264);
#29=PLANE('',#1268);
#30=PLANE('',#1271);
#31=PLANE('',#1277);
#32=PLANE('',#1280);
#33=PLANE('',#1286);
#34=PLANE('',#1288);
#35=PLANE('',#1289);
#36=CIRCLE('',#1167,0.08128);
#37=CIRCLE('',#1168,0.08128);
#38=CIRCLE('',#1169,0.08128);
#39=CIRCLE('',#1170,0.08128);
#40=CIRCLE('',#1172,0.0011);
#41=CIRCLE('',#1173,0.0011);
#42=CIRCLE('',#1175,0.0011);
#43=CIRCLE('',#1176,0.0011);
#44=CIRCLE('',#1178,0.00325);
#45=CIRCLE('',#1179,0.00325);
#46=CIRCLE('',#1181,0.0011);
#47=CIRCLE('',#1182,0.0011);
#48=CIRCLE('',#1184,0.0011);
#49=CIRCLE('',#1185,0.0011);
#50=CIRCLE('',#1187,0.00325);
#51=CIRCLE('',#1188,0.00325);
#52=CIRCLE('',#1190,0.07628);
#53=CIRCLE('',#1191,0.005);
#54=CIRCLE('',#1192,0.005);
#55=CIRCLE('',#1193,0.08128);
#56=CIRCLE('',#1194,0.005);
#57=CIRCLE('',#1195,0.005);
#58=CIRCLE('',#1196,0.08128);
#59=CIRCLE('',#1197,0.005);
#60=CIRCLE('',#1198,0.005);
#61=CIRCLE('',#1199,0.07628);
#62=CIRCLE('',#1200,0.01);
#63=CIRCLE('',#1201,0.01);
#64=CIRCLE('',#1202,0.07628);
#65=CIRCLE('',#1203,0.01);
#66=CIRCLE('',#1204,0.01);
#67=CIRCLE('',#1205,0.07628);
#68=CIRCLE('',#1206,0.01);
#69=CIRCLE('',#1207,0.01);
#70=CIRCLE('',#1209,0.0016);
#71=CIRCLE('',#1210,0.0016);
#72=CIRCLE('',#1212,0.0016);
#73=CIRCLE('',#1213,0.0016);
#74=CIRCLE('',#1215,0.0016);
#75=CIRCLE('',#1216,0.0016);
#76=CIRCLE('',#1218,0.0016);
#77=CIRCLE('',#1219,0.0016);
#78=CIRCLE('',#1222,0.005);
#79=CIRCLE('',#1225,0.005);
#80=CIRCLE('',#1228,0.08128);
#81=CIRCLE('',#1231,0.005);
#82=CIRCLE('',#1234,0.005);
#83=CIRCLE('',#1238,0.005);
#84=CIRCLE('',#1240,0.0011);
#85=CIRCLE('',#1241,0.0011);
#86=CIRCLE('',#1242,0.00325);
#87=CIRCLE('',#1244,0.005);
#88=CIRCLE('',#1247,0.08128);
#89=CIRCLE('',#1251,0.01);
#90=CIRCLE('',#1254,0.01);
#91=CIRCLE('',#1257,0.07628);
#92=CIRCLE('',#1260,0.01);
#93=CIRCLE('',#1263,0.01);
#94=CIRCLE('',#1266,0.07628);
#95=CIRCLE('',#1267,0.07628);
#96=CIRCLE('',#1270,0.01);
#97=CIRCLE('',#1272,0.0011);
#98=CIRCLE('',#1273,0.0011);
#99=CIRCLE('',#1274,0.00325);
#100=CIRCLE('',#1276,0.01);
#101=CIRCLE('',#1279,0.07628);
#102=CIRCLE('',#1285,0.07628);
#103=CIRCLE('',#1287,0.07628);
#104=ORIENTED_EDGE('',*,*,#404,.F.);
#105=ORIENTED_EDGE('',*,*,#405,.F.);
#106=ORIENTED_EDGE('',*,*,#406,.T.);
#107=ORIENTED_EDGE('',*,*,#407,.F.);
#108=ORIENTED_EDGE('',*,*,#408,.T.);
#109=ORIENTED_EDGE('',*,*,#409,.T.);
#110=ORIENTED_EDGE('',*,*,#410,.F.);
#111=ORIENTED_EDGE('',*,*,#411,.F.);
#112=ORIENTED_EDGE('',*,*,#412,.T.);
#113=ORIENTED_EDGE('',*,*,#413,.F.);
#114=ORIENTED_EDGE('',*,*,#414,.T.);
#115=ORIENTED_EDGE('',*,*,#415,.F.);
#116=ORIENTED_EDGE('',*,*,#416,.T.);
#117=ORIENTED_EDGE('',*,*,#417,.F.);
#118=ORIENTED_EDGE('',*,*,#418,.T.);
#119=ORIENTED_EDGE('',*,*,#419,.F.);
#120=ORIENTED_EDGE('',*,*,#420,.T.);
#121=ORIENTED_EDGE('',*,*,#421,.F.);
#122=ORIENTED_EDGE('',*,*,#422,.T.);
#123=ORIENTED_EDGE('',*,*,#423,.F.);
#124=ORIENTED_EDGE('',*,*,#424,.F.);
#125=ORIENTED_EDGE('',*,*,#425,.T.);
#126=ORIENTED_EDGE('',*,*,#411,.T.);
#127=ORIENTED_EDGE('',*,*,#426,.F.);
#128=ORIENTED_EDGE('',*,*,#427,.F.);
#129=ORIENTED_EDGE('',*,*,#428,.T.);
#130=ORIENTED_EDGE('',*,*,#429,.F.);
#131=ORIENTED_EDGE('',*,*,#430,.T.);
#132=ORIENTED_EDGE('',*,*,#431,.T.);
#133=ORIENTED_EDGE('',*,*,#432,.F.);
#134=ORIENTED_EDGE('',*,*,#433,.F.);
#135=ORIENTED_EDGE('',*,*,#434,.T.);
#136=ORIENTED_EDGE('',*,*,#435,.F.);
#137=ORIENTED_EDGE('',*,*,#436,.T.);
#138=ORIENTED_EDGE('',*,*,#437,.T.);
#139=ORIENTED_EDGE('',*,*,#438,.F.);
#140=ORIENTED_EDGE('',*,*,#439,.F.);
#141=ORIENTED_EDGE('',*,*,#440,.T.);
#142=ORIENTED_EDGE('',*,*,#441,.F.);
#143=ORIENTED_EDGE('',*,*,#442,.T.);
#144=ORIENTED_EDGE('',*,*,#407,.T.);
#145=ORIENTED_EDGE('',*,*,#443,.F.);
#146=ORIENTED_EDGE('',*,*,#444,.F.);
#147=ORIENTED_EDGE('',*,*,#445,.F.);
#148=ORIENTED_EDGE('',*,*,#446,.T.);
#149=ORIENTED_EDGE('',*,*,#447,.F.);
#150=ORIENTED_EDGE('',*,*,#448,.T.);
#151=ORIENTED_EDGE('',*,*,#449,.T.);
#152=ORIENTED_EDGE('',*,*,#450,.F.);
#153=ORIENTED_EDGE('',*,*,#451,.F.);
#154=ORIENTED_EDGE('',*,*,#452,.T.);
#155=ORIENTED_EDGE('',*,*,#453,.F.);
#156=ORIENTED_EDGE('',*,*,#454,.T.);
#157=ORIENTED_EDGE('',*,*,#455,.T.);
#158=ORIENTED_EDGE('',*,*,#456,.F.);
#159=ORIENTED_EDGE('',*,*,#457,.F.);
#160=ORIENTED_EDGE('',*,*,#458,.T.);
#161=ORIENTED_EDGE('',*,*,#459,.F.);
#162=ORIENTED_EDGE('',*,*,#460,.T.);
#163=ORIENTED_EDGE('',*,*,#461,.T.);
#164=ORIENTED_EDGE('',*,*,#462,.F.);
#165=ORIENTED_EDGE('',*,*,#463,.T.);
#166=ORIENTED_EDGE('',*,*,#464,.F.);
#167=ORIENTED_EDGE('',*,*,#465,.T.);
#168=ORIENTED_EDGE('',*,*,#466,.F.);
#169=ORIENTED_EDGE('',*,*,#467,.T.);
#170=ORIENTED_EDGE('',*,*,#468,.F.);
#171=ORIENTED_EDGE('',*,*,#469,.T.);
#172=ORIENTED_EDGE('',*,*,#470,.F.);
#173=ORIENTED_EDGE('',*,*,#471,.F.);
#174=ORIENTED_EDGE('',*,*,#432,.T.);
#175=ORIENTED_EDGE('',*,*,#472,.T.);
#176=ORIENTED_EDGE('',*,*,#473,.F.);
#177=ORIENTED_EDGE('',*,*,#474,.F.);
#178=ORIENTED_EDGE('',*,*,#433,.T.);
#179=ORIENTED_EDGE('',*,*,#471,.T.);
#180=ORIENTED_EDGE('',*,*,#416,.F.);
#181=ORIENTED_EDGE('',*,*,#414,.F.);
#182=ORIENTED_EDGE('',*,*,#412,.F.);
#183=ORIENTED_EDGE('',*,*,#475,.T.);
#184=ORIENTED_EDGE('',*,*,#476,.F.);
#185=ORIENTED_EDGE('',*,*,#434,.F.);
#186=ORIENTED_EDGE('',*,*,#474,.T.);
#187=ORIENTED_EDGE('',*,*,#477,.F.);
#188=ORIENTED_EDGE('',*,*,#478,.F.);
#189=ORIENTED_EDGE('',*,*,#435,.T.);
#190=ORIENTED_EDGE('',*,*,#476,.T.);
#191=ORIENTED_EDGE('',*,*,#479,.T.);
#192=ORIENTED_EDGE('',*,*,#480,.F.);
#193=ORIENTED_EDGE('',*,*,#436,.F.);
#194=ORIENTED_EDGE('',*,*,#478,.T.);
#195=ORIENTED_EDGE('',*,*,#481,.T.);
#196=ORIENTED_EDGE('',*,*,#482,.F.);
#197=ORIENTED_EDGE('',*,*,#437,.F.);
#198=ORIENTED_EDGE('',*,*,#480,.T.);
#199=ORIENTED_EDGE('',*,*,#483,.F.);
#200=ORIENTED_EDGE('',*,*,#484,.F.);
#201=ORIENTED_EDGE('',*,*,#438,.T.);
#202=ORIENTED_EDGE('',*,*,#482,.T.);
#203=ORIENTED_EDGE('',*,*,#485,.F.);
#204=ORIENTED_EDGE('',*,*,#486,.F.);
#205=ORIENTED_EDGE('',*,*,#439,.T.);
#206=ORIENTED_EDGE('',*,*,#484,.T.);
#207=ORIENTED_EDGE('',*,*,#422,.F.);
#208=ORIENTED_EDGE('',*,*,#420,.F.);
#209=ORIENTED_EDGE('',*,*,#418,.F.);
#210=ORIENTED_EDGE('',*,*,#487,.T.);
#211=ORIENTED_EDGE('',*,*,#488,.F.);
#212=ORIENTED_EDGE('',*,*,#440,.F.);
#213=ORIENTED_EDGE('',*,*,#486,.T.);
#214=ORIENTED_EDGE('',*,*,#489,.F.);
#215=ORIENTED_EDGE('',*,*,#490,.F.);
#216=ORIENTED_EDGE('',*,*,#441,.T.);
#217=ORIENTED_EDGE('',*,*,#488,.T.);
#218=ORIENTED_EDGE('',*,*,#491,.T.);
#219=ORIENTED_EDGE('',*,*,#408,.F.);
#220=ORIENTED_EDGE('',*,*,#442,.F.);
#221=ORIENTED_EDGE('',*,*,#490,.T.);
#222=ORIENTED_EDGE('',*,*,#492,.F.);
#223=ORIENTED_EDGE('',*,*,#493,.F.);
#224=ORIENTED_EDGE('',*,*,#426,.T.);
#225=ORIENTED_EDGE('',*,*,#410,.T.);
#226=ORIENTED_EDGE('',*,*,#494,.F.);
#227=ORIENTED_EDGE('',*,*,#495,.F.);
#228=ORIENTED_EDGE('',*,*,#427,.T.);
#229=ORIENTED_EDGE('',*,*,#493,.T.);
#230=ORIENTED_EDGE('',*,*,#496,.F.);
#231=ORIENTED_EDGE('',*,*,#497,.F.);
#232=ORIENTED_EDGE('',*,*,#498,.F.);
#233=ORIENTED_EDGE('',*,*,#499,.T.);
#234=ORIENTED_EDGE('',*,*,#500,.F.);
#235=ORIENTED_EDGE('',*,*,#428,.F.);
#236=ORIENTED_EDGE('',*,*,#495,.T.);
#237=ORIENTED_EDGE('',*,*,#501,.F.);
#238=ORIENTED_EDGE('',*,*,#502,.F.);
#239=ORIENTED_EDGE('',*,*,#429,.T.);
#240=ORIENTED_EDGE('',*,*,#500,.T.);
#241=ORIENTED_EDGE('',*,*,#503,.T.);
#242=ORIENTED_EDGE('',*,*,#504,.F.);
#243=ORIENTED_EDGE('',*,*,#430,.F.);
#244=ORIENTED_EDGE('',*,*,#502,.T.);
#245=ORIENTED_EDGE('',*,*,#505,.T.);
#246=ORIENTED_EDGE('',*,*,#472,.F.);
#247=ORIENTED_EDGE('',*,*,#431,.F.);
#248=ORIENTED_EDGE('',*,*,#504,.T.);
#249=ORIENTED_EDGE('',*,*,#470,.T.);
#250=ORIENTED_EDGE('',*,*,#505,.F.);
#251=ORIENTED_EDGE('',*,*,#503,.F.);
#252=ORIENTED_EDGE('',*,*,#501,.T.);
#253=ORIENTED_EDGE('',*,*,#499,.F.);
#254=ORIENTED_EDGE('',*,*,#494,.T.);
#255=ORIENTED_EDGE('',*,*,#492,.T.);
#256=ORIENTED_EDGE('',*,*,#409,.F.);
#257=ORIENTED_EDGE('',*,*,#491,.F.);
#258=ORIENTED_EDGE('',*,*,#489,.T.);
#259=ORIENTED_EDGE('',*,*,#487,.F.);
#260=ORIENTED_EDGE('',*,*,#485,.T.);
#261=ORIENTED_EDGE('',*,*,#483,.T.);
#262=ORIENTED_EDGE('',*,*,#481,.F.);
#263=ORIENTED_EDGE('',*,*,#479,.F.);
#264=ORIENTED_EDGE('',*,*,#477,.T.);
#265=ORIENTED_EDGE('',*,*,#475,.F.);
#266=ORIENTED_EDGE('',*,*,#473,.T.);
#267=ORIENTED_EDGE('',*,*,#468,.T.);
#268=ORIENTED_EDGE('',*,*,#466,.T.);
#269=ORIENTED_EDGE('',*,*,#464,.T.);
#270=ORIENTED_EDGE('',*,*,#462,.T.);
#271=ORIENTED_EDGE('',*,*,#506,.T.);
#272=ORIENTED_EDGE('',*,*,#507,.F.);
#273=ORIENTED_EDGE('',*,*,#455,.F.);
#274=ORIENTED_EDGE('',*,*,#508,.T.);
#275=ORIENTED_EDGE('',*,*,#509,.T.);
#276=ORIENTED_EDGE('',*,*,#508,.F.);
#277=ORIENTED_EDGE('',*,*,#454,.F.);
#278=ORIENTED_EDGE('',*,*,#510,.T.);
#279=ORIENTED_EDGE('',*,*,#417,.T.);
#280=ORIENTED_EDGE('',*,*,#415,.T.);
#281=ORIENTED_EDGE('',*,*,#413,.T.);
#282=ORIENTED_EDGE('',*,*,#511,.F.);
#283=ORIENTED_EDGE('',*,*,#510,.F.);
#284=ORIENTED_EDGE('',*,*,#453,.T.);
#285=ORIENTED_EDGE('',*,*,#512,.T.);
#286=ORIENTED_EDGE('',*,*,#513,.T.);
#287=ORIENTED_EDGE('',*,*,#512,.F.);
#288=ORIENTED_EDGE('',*,*,#452,.F.);
#289=ORIENTED_EDGE('',*,*,#514,.T.);
#290=ORIENTED_EDGE('',*,*,#515,.F.);
#291=ORIENTED_EDGE('',*,*,#514,.F.);
#292=ORIENTED_EDGE('',*,*,#451,.T.);
#293=ORIENTED_EDGE('',*,*,#516,.T.);
#294=ORIENTED_EDGE('',*,*,#517,.F.);
#295=ORIENTED_EDGE('',*,*,#516,.F.);
#296=ORIENTED_EDGE('',*,*,#450,.T.);
#297=ORIENTED_EDGE('',*,*,#518,.T.);
#298=ORIENTED_EDGE('',*,*,#519,.T.);
#299=ORIENTED_EDGE('',*,*,#518,.F.);
#300=ORIENTED_EDGE('',*,*,#449,.F.);
#301=ORIENTED_EDGE('',*,*,#520,.T.);
#302=ORIENTED_EDGE('',*,*,#521,.T.);
#303=ORIENTED_EDGE('',*,*,#520,.F.);
#304=ORIENTED_EDGE('',*,*,#448,.F.);
#305=ORIENTED_EDGE('',*,*,#522,.T.);
#306=ORIENTED_EDGE('',*,*,#423,.T.);
#307=ORIENTED_EDGE('',*,*,#421,.T.);
#308=ORIENTED_EDGE('',*,*,#419,.T.);
#309=ORIENTED_EDGE('',*,*,#523,.F.);
#310=ORIENTED_EDGE('',*,*,#522,.F.);
#311=ORIENTED_EDGE('',*,*,#447,.T.);
#312=ORIENTED_EDGE('',*,*,#524,.T.);
#313=ORIENTED_EDGE('',*,*,#525,.T.);
#314=ORIENTED_EDGE('',*,*,#524,.F.);
#315=ORIENTED_EDGE('',*,*,#446,.F.);
#316=ORIENTED_EDGE('',*,*,#526,.T.);
#317=ORIENTED_EDGE('',*,*,#527,.F.);
#318=ORIENTED_EDGE('',*,*,#526,.F.);
#319=ORIENTED_EDGE('',*,*,#445,.T.);
#320=ORIENTED_EDGE('',*,*,#528,.T.);
#321=ORIENTED_EDGE('',*,*,#529,.T.);
#322=ORIENTED_EDGE('',*,*,#530,.F.);
#323=ORIENTED_EDGE('',*,*,#531,.T.);
#324=ORIENTED_EDGE('',*,*,#532,.F.);
#325=ORIENTED_EDGE('',*,*,#529,.F.);
#326=ORIENTED_EDGE('',*,*,#533,.T.);
#327=ORIENTED_EDGE('',*,*,#531,.F.);
#328=ORIENTED_EDGE('',*,*,#534,.F.);
#329=ORIENTED_EDGE('',*,*,#461,.F.);
#330=ORIENTED_EDGE('',*,*,#535,.T.);
#331=ORIENTED_EDGE('',*,*,#536,.T.);
#332=ORIENTED_EDGE('',*,*,#535,.F.);
#333=ORIENTED_EDGE('',*,*,#460,.F.);
#334=ORIENTED_EDGE('',*,*,#537,.T.);
#335=ORIENTED_EDGE('',*,*,#538,.T.);
#336=ORIENTED_EDGE('',*,*,#539,.T.);
#337=ORIENTED_EDGE('',*,*,#540,.T.);
#338=ORIENTED_EDGE('',*,*,#541,.F.);
#339=ORIENTED_EDGE('',*,*,#537,.F.);
#340=ORIENTED_EDGE('',*,*,#459,.T.);
#341=ORIENTED_EDGE('',*,*,#542,.T.);
#342=ORIENTED_EDGE('',*,*,#543,.T.);
#343=ORIENTED_EDGE('',*,*,#542,.F.);
#344=ORIENTED_EDGE('',*,*,#458,.F.);
#345=ORIENTED_EDGE('',*,*,#544,.T.);
#346=ORIENTED_EDGE('',*,*,#545,.F.);
#347=ORIENTED_EDGE('',*,*,#544,.F.);
#348=ORIENTED_EDGE('',*,*,#457,.T.);
#349=ORIENTED_EDGE('',*,*,#546,.T.);
#350=ORIENTED_EDGE('',*,*,#547,.F.);
#351=ORIENTED_EDGE('',*,*,#546,.F.);
#352=ORIENTED_EDGE('',*,*,#456,.T.);
#353=ORIENTED_EDGE('',*,*,#507,.T.);
#354=ORIENTED_EDGE('',*,*,#506,.F.);
#355=ORIENTED_EDGE('',*,*,#509,.F.);
#356=ORIENTED_EDGE('',*,*,#511,.T.);
#357=ORIENTED_EDGE('',*,*,#513,.F.);
#358=ORIENTED_EDGE('',*,*,#515,.T.);
#359=ORIENTED_EDGE('',*,*,#517,.T.);
#360=ORIENTED_EDGE('',*,*,#519,.F.);
#361=ORIENTED_EDGE('',*,*,#521,.F.);
#362=ORIENTED_EDGE('',*,*,#523,.T.);
#363=ORIENTED_EDGE('',*,*,#525,.F.);
#364=ORIENTED_EDGE('',*,*,#527,.T.);
#365=ORIENTED_EDGE('',*,*,#532,.T.);
#366=ORIENTED_EDGE('',*,*,#533,.F.);
#367=ORIENTED_EDGE('',*,*,#536,.F.);
#368=ORIENTED_EDGE('',*,*,#541,.T.);
#369=ORIENTED_EDGE('',*,*,#543,.F.);
#370=ORIENTED_EDGE('',*,*,#545,.T.);
#371=ORIENTED_EDGE('',*,*,#547,.T.);
#372=ORIENTED_EDGE('',*,*,#469,.F.);
#373=ORIENTED_EDGE('',*,*,#467,.F.);
#374=ORIENTED_EDGE('',*,*,#465,.F.);
#375=ORIENTED_EDGE('',*,*,#463,.F.);
#376=ORIENTED_EDGE('',*,*,#498,.T.);
#377=ORIENTED_EDGE('',*,*,#540,.F.);
#378=ORIENTED_EDGE('',*,*,#497,.T.);
#379=ORIENTED_EDGE('',*,*,#539,.F.);
#380=ORIENTED_EDGE('',*,*,#496,.T.);
#381=ORIENTED_EDGE('',*,*,#538,.F.);
#382=ORIENTED_EDGE('',*,*,#444,.T.);
#383=ORIENTED_EDGE('',*,*,#548,.T.);
#384=ORIENTED_EDGE('',*,*,#549,.F.);
#385=ORIENTED_EDGE('',*,*,#528,.F.);
#386=ORIENTED_EDGE('',*,*,#405,.T.);
#387=ORIENTED_EDGE('',*,*,#550,.F.);
#388=ORIENTED_EDGE('',*,*,#551,.T.);
#389=ORIENTED_EDGE('',*,*,#530,.T.);
#390=ORIENTED_EDGE('',*,*,#549,.T.);
#391=ORIENTED_EDGE('',*,*,#552,.T.);
#392=ORIENTED_EDGE('',*,*,#553,.T.);
#393=ORIENTED_EDGE('',*,*,#550,.T.);
#394=ORIENTED_EDGE('',*,*,#404,.T.);
#395=ORIENTED_EDGE('',*,*,#425,.F.);
#396=ORIENTED_EDGE('',*,*,#443,.T.);
#397=ORIENTED_EDGE('',*,*,#406,.F.);
#398=ORIENTED_EDGE('',*,*,#552,.F.);
#399=ORIENTED_EDGE('',*,*,#548,.F.);
#400=ORIENTED_EDGE('',*,*,#534,.T.);
#401=ORIENTED_EDGE('',*,*,#551,.F.);
#402=ORIENTED_EDGE('',*,*,#553,.F.);
#403=ORIENTED_EDGE('',*,*,#424,.T.);
#404=EDGE_CURVE('',#554,#555,#662,.F.);
#405=EDGE_CURVE('',#556,#554,#36,.T.);
#406=EDGE_CURVE('',#556,#557,#663,.F.);
#407=EDGE_CURVE('',#558,#557,#37,.T.);
#408=EDGE_CURVE('',#558,#559,#664,.T.);
#409=EDGE_CURVE('',#559,#560,#38,.T.);
#410=EDGE_CURVE('',#561,#560,#665,.T.);
#411=EDGE_CURVE('',#555,#561,#39,.T.);
#412=EDGE_CURVE('',#562,#562,#40,.T.);
#413=EDGE_CURVE('',#563,#563,#41,.F.);
#414=EDGE_CURVE('',#564,#564,#42,.T.);
#415=EDGE_CURVE('',#565,#565,#43,.F.);
#416=EDGE_CURVE('',#566,#566,#44,.T.);
#417=EDGE_CURVE('',#567,#567,#45,.F.);
#418=EDGE_CURVE('',#568,#568,#46,.T.);
#419=EDGE_CURVE('',#569,#569,#47,.F.);
#420=EDGE_CURVE('',#570,#570,#48,.T.);
#421=EDGE_CURVE('',#571,#571,#49,.F.);
#422=EDGE_CURVE('',#572,#572,#50,.T.);
#423=EDGE_CURVE('',#573,#573,#51,.F.);
#424=EDGE_CURVE('',#574,#575,#52,.F.);
#425=EDGE_CURVE('',#574,#555,#666,.T.);
#426=EDGE_CURVE('',#576,#561,#667,.T.);
#427=EDGE_CURVE('',#577,#576,#53,.T.);
#428=EDGE_CURVE('',#577,#578,#668,.T.);
#429=EDGE_CURVE('',#579,#578,#54,.T.);
#430=EDGE_CURVE('',#579,#580,#669,.T.);
#431=EDGE_CURVE('',#580,#581,#55,.T.);
#432=EDGE_CURVE('',#582,#581,#670,.T.);
#433=EDGE_CURVE('',#583,#582,#56,.T.);
#434=EDGE_CURVE('',#583,#584,#671,.T.);
#435=EDGE_CURVE('',#585,#584,#57,.T.);
#436=EDGE_CURVE('',#585,#586,#672,.T.);
#437=EDGE_CURVE('',#586,#587,#58,.T.);
#438=EDGE_CURVE('',#588,#587,#673,.T.);
#439=EDGE_CURVE('',#589,#588,#59,.T.);
#440=EDGE_CURVE('',#589,#590,#674,.T.);
#441=EDGE_CURVE('',#591,#590,#60,.T.);
#442=EDGE_CURVE('',#591,#558,#675,.T.);
#443=EDGE_CURVE('',#592,#557,#676,.T.);
#444=EDGE_CURVE('',#593,#592,#61,.F.);
#445=EDGE_CURVE('',#594,#593,#677,.T.);
#446=EDGE_CURVE('',#594,#595,#62,.T.);
#447=EDGE_CURVE('',#596,#595,#678,.T.);
#448=EDGE_CURVE('',#596,#597,#63,.T.);
#449=EDGE_CURVE('',#597,#598,#679,.T.);
#450=EDGE_CURVE('',#599,#598,#64,.T.);
#451=EDGE_CURVE('',#600,#599,#680,.T.);
#452=EDGE_CURVE('',#600,#601,#65,.T.);
#453=EDGE_CURVE('',#602,#601,#681,.T.);
#454=EDGE_CURVE('',#602,#603,#66,.T.);
#455=EDGE_CURVE('',#603,#604,#682,.T.);
#456=EDGE_CURVE('',#605,#604,#67,.T.);
#457=EDGE_CURVE('',#606,#605,#683,.T.);
#458=EDGE_CURVE('',#606,#607,#68,.T.);
#459=EDGE_CURVE('',#608,#607,#684,.T.);
#460=EDGE_CURVE('',#608,#609,#69,.T.);
#461=EDGE_CURVE('',#609,#575,#685,.T.);
#462=EDGE_CURVE('',#610,#610,#70,.T.);
#463=EDGE_CURVE('',#611,#611,#71,.T.);
#464=EDGE_CURVE('',#612,#612,#72,.T.);
#465=EDGE_CURVE('',#613,#613,#73,.T.);
#466=EDGE_CURVE('',#614,#614,#74,.T.);
#467=EDGE_CURVE('',#615,#615,#75,.T.);
#468=EDGE_CURVE('',#616,#616,#76,.T.);
#469=EDGE_CURVE('',#617,#617,#77,.T.);
#470=EDGE_CURVE('',#618,#619,#686,.T.);
#471=EDGE_CURVE('',#582,#618,#687,.T.);
#472=EDGE_CURVE('',#581,#619,#688,.T.);
#473=EDGE_CURVE('',#620,#618,#78,.T.);
#474=EDGE_CURVE('',#583,#620,#689,.T.);
#475=EDGE_CURVE('',#620,#621,#690,.T.);
#476=EDGE_CURVE('',#584,#621,#691,.T.);
#477=EDGE_CURVE('',#622,#621,#79,.T.);
#478=EDGE_CURVE('',#585,#622,#692,.T.);
#479=EDGE_CURVE('',#622,#623,#693,.T.);
#480=EDGE_CURVE('',#586,#623,#694,.T.);
#481=EDGE_CURVE('',#623,#624,#80,.T.);
#482=EDGE_CURVE('',#587,#624,#695,.T.);
#483=EDGE_CURVE('',#625,#624,#696,.T.);
#484=EDGE_CURVE('',#588,#625,#697,.T.);
#485=EDGE_CURVE('',#626,#625,#81,.T.);
#486=EDGE_CURVE('',#589,#626,#698,.T.);
#487=EDGE_CURVE('',#626,#627,#699,.T.);
#488=EDGE_CURVE('',#590,#627,#700,.T.);
#489=EDGE_CURVE('',#628,#627,#82,.T.);
#490=EDGE_CURVE('',#591,#628,#701,.T.);
#491=EDGE_CURVE('',#628,#559,#702,.T.);
#492=EDGE_CURVE('',#629,#560,#703,.T.);
#493=EDGE_CURVE('',#576,#629,#704,.T.);
#494=EDGE_CURVE('',#630,#629,#83,.T.);
#495=EDGE_CURVE('',#577,#630,#705,.T.);
#496=EDGE_CURVE('',#631,#631,#84,.T.);
#497=EDGE_CURVE('',#632,#632,#85,.T.);
#498=EDGE_CURVE('',#633,#633,#86,.T.);
#499=EDGE_CURVE('',#630,#634,#706,.T.);
#500=EDGE_CURVE('',#578,#634,#707,.T.);
#501=EDGE_CURVE('',#635,#634,#87,.T.);
#502=EDGE_CURVE('',#579,#635,#708,.T.);
#503=EDGE_CURVE('',#635,#636,#709,.T.);
#504=EDGE_CURVE('',#580,#636,#710,.T.);
#505=EDGE_CURVE('',#636,#619,#88,.T.);
#506=EDGE_CURVE('',#637,#638,#711,.T.);
#507=EDGE_CURVE('',#604,#638,#712,.T.);
#508=EDGE_CURVE('',#603,#637,#713,.T.);
#509=EDGE_CURVE('',#639,#637,#89,.T.);
#510=EDGE_CURVE('',#602,#639,#714,.F.);
#511=EDGE_CURVE('',#639,#640,#715,.T.);
#512=EDGE_CURVE('',#601,#640,#716,.T.);
#513=EDGE_CURVE('',#641,#640,#90,.T.);
#514=EDGE_CURVE('',#600,#641,#717,.F.);
#515=EDGE_CURVE('',#641,#642,#718,.T.);
#516=EDGE_CURVE('',#599,#642,#719,.T.);
#517=EDGE_CURVE('',#642,#643,#91,.T.);
#518=EDGE_CURVE('',#598,#643,#720,.T.);
#519=EDGE_CURVE('',#644,#643,#721,.T.);
#520=EDGE_CURVE('',#597,#644,#722,.T.);
#521=EDGE_CURVE('',#645,#644,#92,.T.);
#522=EDGE_CURVE('',#596,#645,#723,.F.);
#523=EDGE_CURVE('',#645,#646,#724,.T.);
#524=EDGE_CURVE('',#595,#646,#725,.T.);
#525=EDGE_CURVE('',#647,#646,#93,.T.);
#526=EDGE_CURVE('',#594,#647,#726,.F.);
#527=EDGE_CURVE('',#647,#648,#727,.T.);
#528=EDGE_CURVE('',#593,#649,#728,.T.);
#529=EDGE_CURVE('',#649,#648,#729,.T.);
#530=EDGE_CURVE('',#650,#649,#94,.F.);
#531=EDGE_CURVE('',#650,#651,#730,.T.);
#532=EDGE_CURVE('',#648,#651,#95,.T.);
#533=EDGE_CURVE('',#652,#651,#731,.T.);
#534=EDGE_CURVE('',#575,#650,#732,.T.);
#535=EDGE_CURVE('',#609,#652,#733,.T.);
#536=EDGE_CURVE('',#653,#652,#96,.T.);
#537=EDGE_CURVE('',#608,#653,#734,.F.);
#538=EDGE_CURVE('',#654,#654,#97,.F.);
#539=EDGE_CURVE('',#655,#655,#98,.F.);
#540=EDGE_CURVE('',#656,#656,#99,.F.);
#541=EDGE_CURVE('',#653,#657,#735,.T.);
#542=EDGE_CURVE('',#607,#657,#736,.T.);
#543=EDGE_CURVE('',#658,#657,#100,.T.);
#544=EDGE_CURVE('',#606,#658,#737,.F.);
#545=EDGE_CURVE('',#658,#659,#738,.T.);
#546=EDGE_CURVE('',#605,#659,#739,.T.);
#547=EDGE_CURVE('',#659,#638,#101,.T.);
#548=EDGE_CURVE('',#592,#660,#740,.T.);
#549=EDGE_CURVE('',#649,#660,#102,.F.);
#550=EDGE_CURVE('',#661,#554,#741,.T.);
#551=EDGE_CURVE('',#661,#650,#103,.F.);
#552=EDGE_CURVE('',#660,#556,#742,.T.);
#553=EDGE_CURVE('',#574,#661,#743,.T.);
#554=VERTEX_POINT('',#1628);
#555=VERTEX_POINT('',#1629);
#556=VERTEX_POINT('',#1631);
#557=VERTEX_POINT('',#1633);
#558=VERTEX_POINT('',#1635);
#559=VERTEX_POINT('',#1637);
#560=VERTEX_POINT('',#1639);
#561=VERTEX_POINT('',#1641);
#562=VERTEX_POINT('',#1645);
#563=VERTEX_POINT('',#1647);
#564=VERTEX_POINT('',#1650);
#565=VERTEX_POINT('',#1652);
#566=VERTEX_POINT('',#1655);
#567=VERTEX_POINT('',#1657);
#568=VERTEX_POINT('',#1660);
#569=VERTEX_POINT('',#1662);
#570=VERTEX_POINT('',#1665);
#571=VERTEX_POINT('',#1667);
#572=VERTEX_POINT('',#1670);
#573=VERTEX_POINT('',#1672);
#574=VERTEX_POINT('',#1675);
#575=VERTEX_POINT('',#1676);
#576=VERTEX_POINT('',#1679);
#577=VERTEX_POINT('',#1681);
#578=VERTEX_POINT('',#1683);
#579=VERTEX_POINT('',#1685);
#580=VERTEX_POINT('',#1687);
#581=VERTEX_POINT('',#1689);
#582=VERTEX_POINT('',#1691);
#583=VERTEX_POINT('',#1693);
#584=VERTEX_POINT('',#1695);
#585=VERTEX_POINT('',#1697);
#586=VERTEX_POINT('',#1699);
#587=VERTEX_POINT('',#1701);
#588=VERTEX_POINT('',#1703);
#589=VERTEX_POINT('',#1705);
#590=VERTEX_POINT('',#1707);
#591=VERTEX_POINT('',#1709);
#592=VERTEX_POINT('',#1712);
#593=VERTEX_POINT('',#1714);
#594=VERTEX_POINT('',#1716);
#595=VERTEX_POINT('',#1718);
#596=VERTEX_POINT('',#1720);
#597=VERTEX_POINT('',#1722);
#598=VERTEX_POINT('',#1724);
#599=VERTEX_POINT('',#1726);
#600=VERTEX_POINT('',#1728);
#601=VERTEX_POINT('',#1730);
#602=VERTEX_POINT('',#1732);
#603=VERTEX_POINT('',#1734);
#604=VERTEX_POINT('',#1736);
#605=VERTEX_POINT('',#1738);
#606=VERTEX_POINT('',#1740);
#607=VERTEX_POINT('',#1742);
#608=VERTEX_POINT('',#1744);
#609=VERTEX_POINT('',#1746);
#610=VERTEX_POINT('',#1750);
#611=VERTEX_POINT('',#1752);
#612=VERTEX_POINT('',#1755);
#613=VERTEX_POINT('',#1757);
#614=VERTEX_POINT('',#1760);
#615=VERTEX_POINT('',#1762);
#616=VERTEX_POINT('',#1765);
#617=VERTEX_POINT('',#1767);
#618=VERTEX_POINT('',#1770);
#619=VERTEX_POINT('',#1771);
#620=VERTEX_POINT('',#1776);
#621=VERTEX_POINT('',#1780);
#622=VERTEX_POINT('',#1784);
#623=VERTEX_POINT('',#1788);
#624=VERTEX_POINT('',#1792);
#625=VERTEX_POINT('',#1796);
#626=VERTEX_POINT('',#1800);
#627=VERTEX_POINT('',#1804);
#628=VERTEX_POINT('',#1808);
#629=VERTEX_POINT('',#1814);
#630=VERTEX_POINT('',#1818);
#631=VERTEX_POINT('',#1822);
#632=VERTEX_POINT('',#1824);
#633=VERTEX_POINT('',#1826);
#634=VERTEX_POINT('',#1828);
#635=VERTEX_POINT('',#1832);
#636=VERTEX_POINT('',#1836);
#637=VERTEX_POINT('',#1843);
#638=VERTEX_POINT('',#1844);
#639=VERTEX_POINT('',#1849);
#640=VERTEX_POINT('',#1853);
#641=VERTEX_POINT('',#1857);
#642=VERTEX_POINT('',#1861);
#643=VERTEX_POINT('',#1865);
#644=VERTEX_POINT('',#1869);
#645=VERTEX_POINT('',#1873);
#646=VERTEX_POINT('',#1877);
#647=VERTEX_POINT('',#1881);
#648=VERTEX_POINT('',#1885);
#649=VERTEX_POINT('',#1887);
#650=VERTEX_POINT('',#1891);
#651=VERTEX_POINT('',#1893);
#652=VERTEX_POINT('',#1897);
#653=VERTEX_POINT('',#1902);
#654=VERTEX_POINT('',#1906);
#655=VERTEX_POINT('',#1908);
#656=VERTEX_POINT('',#1910);
#657=VERTEX_POINT('',#1912);
#658=VERTEX_POINT('',#1916);
#659=VERTEX_POINT('',#1920);
#660=VERTEX_POINT('',#1930);
#661=VERTEX_POINT('',#1934);
#662=LINE('',#1627,#744);
#663=LINE('',#1632,#745);
#664=LINE('',#1636,#746);
#665=LINE('',#1640,#747);
#666=LINE('',#1677,#748);
#667=LINE('',#1678,#749);
#668=LINE('',#1682,#750);
#669=LINE('',#1686,#751);
#670=LINE('',#1690,#752);
#671=LINE('',#1694,#753);
#672=LINE('',#1698,#754);
#673=LINE('',#1702,#755);
#674=LINE('',#1706,#756);
#675=LINE('',#1710,#757);
#676=LINE('',#1711,#758);
#677=LINE('',#1715,#759);
#678=LINE('',#1719,#760);
#679=LINE('',#1723,#761);
#680=LINE('',#1727,#762);
#681=LINE('',#1731,#763);
#682=LINE('',#1735,#764);
#683=LINE('',#1739,#765);
#684=LINE('',#1743,#766);
#685=LINE('',#1747,#767);
#686=LINE('',#1769,#768);
#687=LINE('',#1772,#769);
#688=LINE('',#1773,#770);
#689=LINE('',#1777,#771);
#690=LINE('',#1779,#772);
#691=LINE('',#1781,#773);
#692=LINE('',#1785,#774);
#693=LINE('',#1787,#775);
#694=LINE('',#1789,#776);
#695=LINE('',#1793,#777);
#696=LINE('',#1795,#778);
#697=LINE('',#1797,#779);
#698=LINE('',#1801,#780);
#699=LINE('',#1803,#781);
#700=LINE('',#1805,#782);
#701=LINE('',#1809,#783);
#702=LINE('',#1811,#784);
#703=LINE('',#1813,#785);
#704=LINE('',#1815,#786);
#705=LINE('',#1819,#787);
#706=LINE('',#1827,#788);
#707=LINE('',#1829,#789);
#708=LINE('',#1833,#790);
#709=LINE('',#1835,#791);
#710=LINE('',#1837,#792);
#711=LINE('',#1842,#793);
#712=LINE('',#1845,#794);
#713=LINE('',#1846,#795);
#714=LINE('',#1850,#796);
#715=LINE('',#1852,#797);
#716=LINE('',#1854,#798);
#717=LINE('',#1858,#799);
#718=LINE('',#1860,#800);
#719=LINE('',#1862,#801);
#720=LINE('',#1866,#802);
#721=LINE('',#1868,#803);
#722=LINE('',#1870,#804);
#723=LINE('',#1874,#805);
#724=LINE('',#1876,#806);
#725=LINE('',#1878,#807);
#726=LINE('',#1882,#808);
#727=LINE('',#1884,#809);
#728=LINE('',#1886,#810);
#729=LINE('',#1888,#811);
#730=LINE('',#1892,#812);
#731=LINE('',#1896,#813);
#732=LINE('',#1898,#814);
#733=LINE('',#1899,#815);
#734=LINE('',#1903,#816);
#735=LINE('',#1911,#817);
#736=LINE('',#1913,#818);
#737=LINE('',#1917,#819);
#738=LINE('',#1919,#820);
#739=LINE('',#1921,#821);
#740=LINE('',#1929,#822);
#741=LINE('',#1933,#823);
#742=LINE('',#1936,#824);
#743=LINE('',#1938,#825);
#744=VECTOR('',#1295,1.);
#745=VECTOR('',#1298,1.);
#746=VECTOR('',#1301,1.);
#747=VECTOR('',#1304,1.);
#748=VECTOR('',#1347,1.);
#749=VECTOR('',#1348,1.);
#750=VECTOR('',#1351,1.);
#751=VECTOR('',#1354,1.);
#752=VECTOR('',#1357,1.);
#753=VECTOR('',#1360,1.);
#754=VECTOR('',#1363,1.);
#755=VECTOR('',#1366,1.);
#756=VECTOR('',#1369,1.);
#757=VECTOR('',#1372,1.);
#758=VECTOR('',#1373,1.);
#759=VECTOR('',#1376,1.);
#760=VECTOR('',#1379,1.);
#761=VECTOR('',#1382,1.);
#762=VECTOR('',#1385,1.);
#763=VECTOR('',#1388,1.);
#764=VECTOR('',#1391,1.);
#765=VECTOR('',#1394,1.);
#766=VECTOR('',#1397,1.);
#767=VECTOR('',#1400,1.);
#768=VECTOR('',#1427,1.);
#769=VECTOR('',#1428,1.);
#770=VECTOR('',#1429,1.);
#771=VECTOR('',#1434,1.);
#772=VECTOR('',#1437,1.);
#773=VECTOR('',#1438,1.);
#774=VECTOR('',#1443,1.);
#775=VECTOR('',#1446,1.);
#776=VECTOR('',#1447,1.);
#777=VECTOR('',#1452,1.);
#778=VECTOR('',#1455,1.);
#779=VECTOR('',#1456,1.);
#780=VECTOR('',#1461,1.);
#781=VECTOR('',#1464,1.);
#782=VECTOR('',#1465,1.);
#783=VECTOR('',#1470,1.);
#784=VECTOR('',#1473,1.);
#785=VECTOR('',#1476,1.);
#786=VECTOR('',#1477,1.);
#787=VECTOR('',#1482,1.);
#788=VECTOR('',#1491,1.);
#789=VECTOR('',#1492,1.);
#790=VECTOR('',#1497,1.);
#791=VECTOR('',#1500,1.);
#792=VECTOR('',#1501,1.);
#793=VECTOR('',#1510,1.);
#794=VECTOR('',#1511,1.);
#795=VECTOR('',#1512,1.);
#796=VECTOR('',#1517,1.);
#797=VECTOR('',#1520,1.);
#798=VECTOR('',#1521,1.);
#799=VECTOR('',#1526,1.);
#800=VECTOR('',#1529,1.);
#801=VECTOR('',#1530,1.);
#802=VECTOR('',#1535,1.);
#803=VECTOR('',#1538,1.);
#804=VECTOR('',#1539,1.);
#805=VECTOR('',#1544,1.);
#806=VECTOR('',#1547,1.);
#807=VECTOR('',#1548,1.);
#808=VECTOR('',#1553,1.);
#809=VECTOR('',#1556,1.);
#810=VECTOR('',#1557,1.);
#811=VECTOR('',#1558,1.);
#812=VECTOR('',#1563,1.);
#813=VECTOR('',#1568,1.);
#814=VECTOR('',#1569,1.);
#815=VECTOR('',#1570,1.);
#816=VECTOR('',#1575,1.);
#817=VECTOR('',#1584,1.);
#818=VECTOR('',#1585,1.);
#819=VECTOR('',#1590,1.);
#820=VECTOR('',#1593,1.);
#821=VECTOR('',#1594,1.);
#822=VECTOR('',#1609,1.);
#823=VECTOR('',#1614,1.);
#824=VECTOR('',#1617,1.);
#825=VECTOR('',#1620,1.);
#826=EDGE_LOOP('',(#104,#105,#106,#107,#108,#109,#110,#111));
#827=EDGE_LOOP('',(#112));
#828=EDGE_LOOP('',(#113));
#829=EDGE_LOOP('',(#114));
#830=EDGE_LOOP('',(#115));
#831=EDGE_LOOP('',(#116));
#832=EDGE_LOOP('',(#117));
#833=EDGE_LOOP('',(#118));
#834=EDGE_LOOP('',(#119));
#835=EDGE_LOOP('',(#120));
#836=EDGE_LOOP('',(#121));
#837=EDGE_LOOP('',(#122));
#838=EDGE_LOOP('',(#123));
#839=EDGE_LOOP('',(#124,#125,#126,#127,#128,#129,#130,#131,#132,#133,#134,
#135,#136,#137,#138,#139,#140,#141,#142,#143,#144,#145,#146,#147,#148,#149,
#150,#151,#152,#153,#154,#155,#156,#157,#158,#159,#160,#161,#162,#163));
#840=EDGE_LOOP('',(#164));
#841=EDGE_LOOP('',(#165));
#842=EDGE_LOOP('',(#166));
#843=EDGE_LOOP('',(#167));
#844=EDGE_LOOP('',(#168));
#845=EDGE_LOOP('',(#169));
#846=EDGE_LOOP('',(#170));
#847=EDGE_LOOP('',(#171));
#848=EDGE_LOOP('',(#172,#173,#174,#175));
#849=EDGE_LOOP('',(#176,#177,#178,#179));
#850=EDGE_LOOP('',(#180));
#851=EDGE_LOOP('',(#181));
#852=EDGE_LOOP('',(#182));
#853=EDGE_LOOP('',(#183,#184,#185,#186));
#854=EDGE_LOOP('',(#187,#188,#189,#190));
#855=EDGE_LOOP('',(#191,#192,#193,#194));
#856=EDGE_LOOP('',(#195,#196,#197,#198));
#857=EDGE_LOOP('',(#199,#200,#201,#202));
#858=EDGE_LOOP('',(#203,#204,#205,#206));
#859=EDGE_LOOP('',(#207));
#860=EDGE_LOOP('',(#208));
#861=EDGE_LOOP('',(#209));
#862=EDGE_LOOP('',(#210,#211,#212,#213));
#863=EDGE_LOOP('',(#214,#215,#216,#217));
#864=EDGE_LOOP('',(#218,#219,#220,#221));
#865=EDGE_LOOP('',(#222,#223,#224,#225));
#866=EDGE_LOOP('',(#226,#227,#228,#229));
#867=EDGE_LOOP('',(#230));
#868=EDGE_LOOP('',(#231));
#869=EDGE_LOOP('',(#232));
#870=EDGE_LOOP('',(#233,#234,#235,#236));
#871=EDGE_LOOP('',(#237,#238,#239,#240));
#872=EDGE_LOOP('',(#241,#242,#243,#244));
#873=EDGE_LOOP('',(#245,#246,#247,#248));
#874=EDGE_LOOP('',(#249,#250,#251,#252,#253,#254,#255,#256,#257,#258,#259,
#260,#261,#262,#263,#264,#265,#266));
#875=EDGE_LOOP('',(#267));
#876=EDGE_LOOP('',(#268));
#877=EDGE_LOOP('',(#269));
#878=EDGE_LOOP('',(#270));
#879=EDGE_LOOP('',(#271,#272,#273,#274));
#880=EDGE_LOOP('',(#275,#276,#277,#278));
#881=EDGE_LOOP('',(#279));
#882=EDGE_LOOP('',(#280));
#883=EDGE_LOOP('',(#281));
#884=EDGE_LOOP('',(#282,#283,#284,#285));
#885=EDGE_LOOP('',(#286,#287,#288,#289));
#886=EDGE_LOOP('',(#290,#291,#292,#293));
#887=EDGE_LOOP('',(#294,#295,#296,#297));
#888=EDGE_LOOP('',(#298,#299,#300,#301));
#889=EDGE_LOOP('',(#302,#303,#304,#305));
#890=EDGE_LOOP('',(#306));
#891=EDGE_LOOP('',(#307));
#892=EDGE_LOOP('',(#308));
#893=EDGE_LOOP('',(#309,#310,#311,#312));
#894=EDGE_LOOP('',(#313,#314,#315,#316));
#895=EDGE_LOOP('',(#317,#318,#319,#320,#321));
#896=EDGE_LOOP('',(#322,#323,#324,#325));
#897=EDGE_LOOP('',(#326,#327,#328,#329,#330));
#898=EDGE_LOOP('',(#331,#332,#333,#334));
#899=EDGE_LOOP('',(#335));
#900=EDGE_LOOP('',(#336));
#901=EDGE_LOOP('',(#337));
#902=EDGE_LOOP('',(#338,#339,#340,#341));
#903=EDGE_LOOP('',(#342,#343,#344,#345));
#904=EDGE_LOOP('',(#346,#347,#348,#349));
#905=EDGE_LOOP('',(#350,#351,#352,#353));
#906=EDGE_LOOP('',(#354,#355,#356,#357,#358,#359,#360,#361,#362,#363,#364,
#365,#366,#367,#368,#369,#370,#371));
#907=EDGE_LOOP('',(#372));
#908=EDGE_LOOP('',(#373));
#909=EDGE_LOOP('',(#374));
#910=EDGE_LOOP('',(#375));
#911=EDGE_LOOP('',(#376));
#912=EDGE_LOOP('',(#377));
#913=EDGE_LOOP('',(#378));
#914=EDGE_LOOP('',(#379));
#915=EDGE_LOOP('',(#380));
#916=EDGE_LOOP('',(#381));
#917=EDGE_LOOP('',(#382,#383,#384,#385));
#918=EDGE_LOOP('',(#386,#387,#388,#389,#390,#391));
#919=EDGE_LOOP('',(#392,#393,#394,#395));
#920=EDGE_LOOP('',(#396,#397,#398,#399));
#921=EDGE_LOOP('',(#400,#401,#402,#403));
#922=FACE_BOUND('',#826,.T.);
#923=FACE_BOUND('',#827,.T.);
#924=FACE_BOUND('',#828,.T.);
#925=FACE_BOUND('',#829,.T.);
#926=FACE_BOUND('',#830,.T.);
#927=FACE_BOUND('',#831,.T.);
#928=FACE_BOUND('',#832,.T.);
#929=FACE_BOUND('',#833,.T.);
#930=FACE_BOUND('',#834,.T.);
#931=FACE_BOUND('',#835,.T.);
#932=FACE_BOUND('',#836,.T.);
#933=FACE_BOUND('',#837,.T.);
#934=FACE_BOUND('',#838,.T.);
#935=FACE_BOUND('',#839,.T.);
#936=FACE_BOUND('',#840,.T.);
#937=FACE_BOUND('',#841,.T.);
#938=FACE_BOUND('',#842,.T.);
#939=FACE_BOUND('',#843,.T.);
#940=FACE_BOUND('',#844,.T.);
#941=FACE_BOUND('',#845,.T.);
#942=FACE_BOUND('',#846,.T.);
#943=FACE_BOUND('',#847,.T.);
#944=FACE_BOUND('',#848,.T.);
#945=FACE_BOUND('',#849,.T.);
#946=FACE_BOUND('',#850,.T.);
#947=FACE_BOUND('',#851,.T.);
#948=FACE_BOUND('',#852,.T.);
#949=FACE_BOUND('',#853,.T.);
#950=FACE_BOUND('',#854,.T.);
#951=FACE_BOUND('',#855,.T.);
#952=FACE_BOUND('',#856,.T.);
#953=FACE_BOUND('',#857,.T.);
#954=FACE_BOUND('',#858,.T.);
#955=FACE_BOUND('',#859,.T.);
#956=FACE_BOUND('',#860,.T.);
#957=FACE_BOUND('',#861,.T.);
#958=FACE_BOUND('',#862,.T.);
#959=FACE_BOUND('',#863,.T.);
#960=FACE_BOUND('',#864,.T.);
#961=FACE_BOUND('',#865,.T.);
#962=FACE_BOUND('',#866,.T.);
#963=FACE_BOUND('',#867,.T.);
#964=FACE_BOUND('',#868,.T.);
#965=FACE_BOUND('',#869,.T.);
#966=FACE_BOUND('',#870,.T.);
#967=FACE_BOUND('',#871,.T.);
#968=FACE_BOUND('',#872,.T.);
#969=FACE_BOUND('',#873,.T.);
#970=FACE_BOUND('',#874,.T.);
#971=FACE_BOUND('',#875,.T.);
#972=FACE_BOUND('',#876,.T.);
#973=FACE_BOUND('',#877,.T.);
#974=FACE_BOUND('',#878,.T.);
#975=FACE_BOUND('',#879,.T.);
#976=FACE_BOUND('',#880,.T.);
#977=FACE_BOUND('',#881,.T.);
#978=FACE_BOUND('',#882,.T.);
#979=FACE_BOUND('',#883,.T.);
#980=FACE_BOUND('',#884,.T.);
#981=FACE_BOUND('',#885,.T.);
#982=FACE_BOUND('',#886,.T.);
#983=FACE_BOUND('',#887,.T.);
#984=FACE_BOUND('',#888,.T.);
#985=FACE_BOUND('',#889,.T.);
#986=FACE_BOUND('',#890,.T.);
#987=FACE_BOUND('',#891,.T.);
#988=FACE_BOUND('',#892,.T.);
#989=FACE_BOUND('',#893,.T.);
#990=FACE_BOUND('',#894,.T.);
#991=FACE_BOUND('',#895,.T.);
#992=FACE_BOUND('',#896,.T.);
#993=FACE_BOUND('',#897,.T.);
#994=FACE_BOUND('',#898,.T.);
#995=FACE_BOUND('',#899,.T.);
#996=FACE_BOUND('',#900,.T.);
#997=FACE_BOUND('',#901,.T.);
#998=FACE_BOUND('',#902,.T.);
#999=FACE_BOUND('',#903,.T.);
#1000=FACE_BOUND('',#904,.T.);
#1001=FACE_BOUND('',#905,.T.);
#1002=FACE_BOUND('',#906,.T.);
#1003=FACE_BOUND('',#907,.T.);
#1004=FACE_BOUND('',#908,.T.);
#1005=FACE_BOUND('',#909,.T.);
#1006=FACE_BOUND('',#910,.T.);
#1007=FACE_BOUND('',#911,.T.);
#1008=FACE_BOUND('',#912,.T.);
#1009=FACE_BOUND('',#913,.T.);
#1010=FACE_BOUND('',#914,.T.);
#1011=FACE_BOUND('',#915,.T.);
#1012=FACE_BOUND('',#916,.T.);
#1013=FACE_BOUND('',#917,.T.);
#1014=FACE_BOUND('',#918,.T.);
#1015=FACE_BOUND('',#919,.T.);
#1016=FACE_BOUND('',#920,.T.);
#1017=FACE_BOUND('',#921,.T.);
#1018=CYLINDRICAL_SURFACE('',#1166,0.08128);
#1019=CYLINDRICAL_SURFACE('',#1171,0.0011);
#1020=CYLINDRICAL_SURFACE('',#1174,0.0011);
#1021=CYLINDRICAL_SURFACE('',#1177,0.00325);
#1022=CYLINDRICAL_SURFACE('',#1180,0.0011);
#1023=CYLINDRICAL_SURFACE('',#1183,0.0011);
#1024=CYLINDRICAL_SURFACE('',#1186,0.00325);
#1025=CYLINDRICAL_SURFACE('',#1208,0.0016);
#1026=CYLINDRICAL_SURFACE('',#1211,0.0016);
#1027=CYLINDRICAL_SURFACE('',#1214,0.0016);
#1028=CYLINDRICAL_SURFACE('',#1217,0.0016);
#1029=CYLINDRICAL_SURFACE('',#1221,0.005);
#1030=CYLINDRICAL_SURFACE('',#1224,0.005);
#1031=CYLINDRICAL_SURFACE('',#1227,0.08128);
#1032=CYLINDRICAL_SURFACE('',#1230,0.005);
#1033=CYLINDRICAL_SURFACE('',#1233,0.005);
#1034=CYLINDRICAL_SURFACE('',#1237,0.005);
#1035=CYLINDRICAL_SURFACE('',#1243,0.005);
#1036=CYLINDRICAL_SURFACE('',#1246,0.08128);
#1037=CYLINDRICAL_SURFACE('',#1250,0.01);
#1038=CYLINDRICAL_SURFACE('',#1253,0.01);
#1039=CYLINDRICAL_SURFACE('',#1256,0.07628);
#1040=CYLINDRICAL_SURFACE('',#1259,0.01);
#1041=CYLINDRICAL_SURFACE('',#1262,0.01);
#1042=CYLINDRICAL_SURFACE('',#1265,0.07628);
#1043=CYLINDRICAL_SURFACE('',#1269,0.01);
#1044=CYLINDRICAL_SURFACE('',#1275,0.01);
#1045=CYLINDRICAL_SURFACE('',#1278,0.07628);
#1046=CYLINDRICAL_SURFACE('',#1281,0.00325);
#1047=CYLINDRICAL_SURFACE('',#1282,0.0011);
#1048=CYLINDRICAL_SURFACE('',#1283,0.0011);
#1049=CYLINDRICAL_SURFACE('',#1284,0.07628);
#1050=CYLINDRICAL_SURFACE('',#1290,0.07628);
#1051=OVER_RIDING_STYLED_ITEM('',(#1124),#1064,#1122);
#1052=OVER_RIDING_STYLED_ITEM('',(#1125),#1081,#1122);
#1053=OVER_RIDING_STYLED_ITEM('',(#1126),#1089,#1122);
#1054=OVER_RIDING_STYLED_ITEM('',(#1127),#1092,#1122);
#1055=OVER_RIDING_STYLED_ITEM('',(#1128),#1108,#1122);
#1056=SURFACE_STYLE_RENDERING_WITH_PROPERTIES(.CONSTANT_SHADING.,#1160,
(#1060));
#1057=SURFACE_STYLE_RENDERING_WITH_PROPERTIES(.CONSTANT_SHADING.,#1160,
(#1061));
#1058=SURFACE_STYLE_RENDERING_WITH_PROPERTIES(.CONSTANT_SHADING.,#1160,
(#1062));
#1059=SURFACE_STYLE_RENDERING_WITH_PROPERTIES(.CONSTANT_SHADING.,#1160,
(#1063));
#1060=SURFACE_STYLE_TRANSPARENT(0.32156862745098);
#1061=SURFACE_STYLE_TRANSPARENT(0.32156862745098);
#1062=SURFACE_STYLE_TRANSPARENT(0.32156862745098);
#1063=SURFACE_STYLE_TRANSPARENT(0.32156862745098);
#1064=ADVANCED_FACE('',(#922),#1018,.T.);
#1065=ADVANCED_FACE('',(#923,#924),#1019,.F.);
#1066=ADVANCED_FACE('',(#925,#926),#1020,.F.);
#1067=ADVANCED_FACE('',(#927,#928),#1021,.F.);
#1068=ADVANCED_FACE('',(#929,#930),#1022,.F.);
#1069=ADVANCED_FACE('',(#931,#932),#1023,.F.);
#1070=ADVANCED_FACE('',(#933,#934),#1024,.F.);
#1071=ADVANCED_FACE('',(#935),#12,.T.);
#1072=ADVANCED_FACE('',(#936,#937),#1025,.F.);
#1073=ADVANCED_FACE('',(#938,#939),#1026,.F.);
#1074=ADVANCED_FACE('',(#940,#941),#1027,.F.);
#1075=ADVANCED_FACE('',(#942,#943),#1028,.F.);
#1076=ADVANCED_FACE('',(#944),#13,.T.);
#1077=ADVANCED_FACE('',(#945),#1029,.F.);
#1078=ADVANCED_FACE('',(#946,#947,#948,#949),#14,.F.);
#1079=ADVANCED_FACE('',(#950),#1030,.F.);
#1080=ADVANCED_FACE('',(#951),#15,.F.);
#1081=ADVANCED_FACE('',(#952),#1031,.T.);
#1082=ADVANCED_FACE('',(#953),#16,.T.);
#1083=ADVANCED_FACE('',(#954),#1032,.F.);
#1084=ADVANCED_FACE('',(#955,#956,#957,#958),#17,.F.);
#1085=ADVANCED_FACE('',(#959),#1033,.F.);
#1086=ADVANCED_FACE('',(#960),#18,.F.);
#1087=ADVANCED_FACE('',(#961),#19,.T.);
#1088=ADVANCED_FACE('',(#962),#1034,.F.);
#1089=ADVANCED_FACE('',(#963,#964,#965,#966),#20,.F.);
#1090=ADVANCED_FACE('',(#967),#1035,.F.);
#1091=ADVANCED_FACE('',(#968),#21,.F.);
#1092=ADVANCED_FACE('',(#969),#1036,.T.);
#1093=ADVANCED_FACE('',(#970,#971,#972,#973,#974),#22,.F.);
#1094=ADVANCED_FACE('',(#975),#23,.F.);
#1095=ADVANCED_FACE('',(#976),#1037,.T.);
#1096=ADVANCED_FACE('',(#977,#978,#979,#980),#24,.T.);
#1097=ADVANCED_FACE('',(#981),#1038,.T.);
#1098=ADVANCED_FACE('',(#982),#25,.T.);
#1099=ADVANCED_FACE('',(#983),#1039,.F.);
#1100=ADVANCED_FACE('',(#984),#26,.F.);
#1101=ADVANCED_FACE('',(#985),#1040,.T.);
#1102=ADVANCED_FACE('',(#986,#987,#988,#989),#27,.T.);
#1103=ADVANCED_FACE('',(#990),#1041,.T.);
#1104=ADVANCED_FACE('',(#991),#28,.T.);
#1105=ADVANCED_FACE('',(#992),#1042,.F.);
#1106=ADVANCED_FACE('',(#993),#29,.F.);
#1107=ADVANCED_FACE('',(#994),#1043,.T.);
#1108=ADVANCED_FACE('',(#995,#996,#997,#998),#30,.T.);
#1109=ADVANCED_FACE('',(#999),#1044,.T.);
#1110=ADVANCED_FACE('',(#1000),#31,.T.);
#1111=ADVANCED_FACE('',(#1001),#1045,.F.);
#1112=ADVANCED_FACE('',(#1002,#1003,#1004,#1005,#1006),#32,.T.);
#1113=ADVANCED_FACE('',(#1007,#1008),#1046,.F.);
#1114=ADVANCED_FACE('',(#1009,#1010),#1047,.F.);
#1115=ADVANCED_FACE('',(#1011,#1012),#1048,.F.);
#1116=ADVANCED_FACE('',(#1013),#1049,.T.);
#1117=ADVANCED_FACE('',(#1014),#33,.T.);
#1118=ADVANCED_FACE('',(#1015),#34,.T.);
#1119=ADVANCED_FACE('',(#1016),#35,.F.);
#1120=ADVANCED_FACE('',(#1017),#1050,.T.);
#1121=CLOSED_SHELL('',(#1064,#1065,#1066,#1067,#1068,#1069,#1070,#1071,
#1072,#1073,#1074,#1075,#1076,#1077,#1078,#1079,#1080,#1081,#1082,#1083,
#1084,#1085,#1086,#1087,#1088,#1089,#1090,#1091,#1092,#1093,#1094,#1095,
#1096,#1097,#1098,#1099,#1100,#1101,#1102,#1103,#1104,#1105,#1106,#1107,
#1108,#1109,#1110,#1111,#1112,#1113,#1114,#1115,#1116,#1117,#1118,#1119,
#1120));
#1122=STYLED_ITEM('',(#1123),#1162);
#1123=PRESENTATION_STYLE_ASSIGNMENT((#1129));
#1124=PRESENTATION_STYLE_ASSIGNMENT((#1130));
#1125=PRESENTATION_STYLE_ASSIGNMENT((#1131));
#1126=PRESENTATION_STYLE_ASSIGNMENT((#1132));
#1127=PRESENTATION_STYLE_ASSIGNMENT((#1133));
#1128=PRESENTATION_STYLE_ASSIGNMENT((#1134));
#1129=SURFACE_STYLE_USAGE(.BOTH.,#1135);
#1130=SURFACE_STYLE_USAGE(.BOTH.,#1136);
#1131=SURFACE_STYLE_USAGE(.BOTH.,#1137);
#1132=SURFACE_STYLE_USAGE(.BOTH.,#1138);
#1133=SURFACE_STYLE_USAGE(.BOTH.,#1139);
#1134=SURFACE_STYLE_USAGE(.BOTH.,#1140);
#1135=SURFACE_SIDE_STYLE('',(#1141));
#1136=SURFACE_SIDE_STYLE('',(#1142,#1056));
#1137=SURFACE_SIDE_STYLE('',(#1143));
#1138=SURFACE_SIDE_STYLE('',(#1144,#1057));
#1139=SURFACE_SIDE_STYLE('',(#1145,#1058));
#1140=SURFACE_SIDE_STYLE('',(#1146,#1059));
#1141=SURFACE_STYLE_FILL_AREA(#1147);
#1142=SURFACE_STYLE_FILL_AREA(#1148);
#1143=SURFACE_STYLE_FILL_AREA(#1149);
#1144=SURFACE_STYLE_FILL_AREA(#1150);
#1145=SURFACE_STYLE_FILL_AREA(#1151);
#1146=SURFACE_STYLE_FILL_AREA(#1152);
#1147=FILL_AREA_STYLE('',(#1153));
#1148=FILL_AREA_STYLE('',(#1154));
#1149=FILL_AREA_STYLE('',(#1155));
#1150=FILL_AREA_STYLE('',(#1156));
#1151=FILL_AREA_STYLE('',(#1157));
#1152=FILL_AREA_STYLE('',(#1158));
#1153=FILL_AREA_STYLE_COLOUR('',#1159);
#1154=FILL_AREA_STYLE_COLOUR('',#1160);
#1155=FILL_AREA_STYLE_COLOUR('',#1161);
#1156=FILL_AREA_STYLE_COLOUR('',#1160);
#1157=FILL_AREA_STYLE_COLOUR('',#1160);
#1158=FILL_AREA_STYLE_COLOUR('',#1160);
#1159=COLOUR_RGB('',0.541176470588235,0.682352941176471,0.83921568627451);
#1160=COLOUR_RGB('',0.654901960784314,0.823529411764706,0.576470588235294);
#1161=COLOUR_RGB('',0.874509803921569,0.447058823529412,0.31764705882353);
#1162=MANIFOLD_SOLID_BREP('top',#1121);
#1163=SHAPE_DEFINITION_REPRESENTATION(#1947,#1164);
#1164=SHAPE_REPRESENTATION('top',(#1165),#1942);
#1165=AXIS2_PLACEMENT_3D('',#1625,#1291,#1292);
#1166=AXIS2_PLACEMENT_3D('',#1626,#1293,#1294);
#1167=AXIS2_PLACEMENT_3D('',#1630,#1296,#1297);
#1168=AXIS2_PLACEMENT_3D('',#1634,#1299,#1300);
#1169=AXIS2_PLACEMENT_3D('',#1638,#1302,#1303);
#1170=AXIS2_PLACEMENT_3D('',#1642,#1305,#1306);
#1171=AXIS2_PLACEMENT_3D('',#1643,#1307,#1308);
#1172=AXIS2_PLACEMENT_3D('',#1644,#1309,#1310);
#1173=AXIS2_PLACEMENT_3D('',#1646,#1311,#1312);
#1174=AXIS2_PLACEMENT_3D('',#1648,#1313,#1314);
#1175=AXIS2_PLACEMENT_3D('',#1649,#1315,#1316);
#1176=AXIS2_PLACEMENT_3D('',#1651,#1317,#1318);
#1177=AXIS2_PLACEMENT_3D('',#1653,#1319,#1320);
#1178=AXIS2_PLACEMENT_3D('',#1654,#1321,#1322);
#1179=AXIS2_PLACEMENT_3D('',#1656,#1323,#1324);
#1180=AXIS2_PLACEMENT_3D('',#1658,#1325,#1326);
#1181=AXIS2_PLACEMENT_3D('',#1659,#1327,#1328);
#1182=AXIS2_PLACEMENT_3D('',#1661,#1329,#1330);
#1183=AXIS2_PLACEMENT_3D('',#1663,#1331,#1332);
#1184=AXIS2_PLACEMENT_3D('',#1664,#1333,#1334);
#1185=AXIS2_PLACEMENT_3D('',#1666,#1335,#1336);
#1186=AXIS2_PLACEMENT_3D('',#1668,#1337,#1338);
#1187=AXIS2_PLACEMENT_3D('',#1669,#1339,#1340);
#1188=AXIS2_PLACEMENT_3D('',#1671,#1341,#1342);
#1189=AXIS2_PLACEMENT_3D('',#1673,#1343,#1344);
#1190=AXIS2_PLACEMENT_3D('',#1674,#1345,#1346);
#1191=AXIS2_PLACEMENT_3D('',#1680,#1349,#1350);
#1192=AXIS2_PLACEMENT_3D('',#1684,#1352,#1353);
#1193=AXIS2_PLACEMENT_3D('',#1688,#1355,#1356);
#1194=AXIS2_PLACEMENT_3D('',#1692,#1358,#1359);
#1195=AXIS2_PLACEMENT_3D('',#1696,#1361,#1362);
#1196=AXIS2_PLACEMENT_3D('',#1700,#1364,#1365);
#1197=AXIS2_PLACEMENT_3D('',#1704,#1367,#1368);
#1198=AXIS2_PLACEMENT_3D('',#1708,#1370,#1371);
#1199=AXIS2_PLACEMENT_3D('',#1713,#1374,#1375);
#1200=AXIS2_PLACEMENT_3D('',#1717,#1377,#1378);
#1201=AXIS2_PLACEMENT_3D('',#1721,#1380,#1381);
#1202=AXIS2_PLACEMENT_3D('',#1725,#1383,#1384);
#1203=AXIS2_PLACEMENT_3D('',#1729,#1386,#1387);
#1204=AXIS2_PLACEMENT_3D('',#1733,#1389,#1390);
#1205=AXIS2_PLACEMENT_3D('',#1737,#1392,#1393);
#1206=AXIS2_PLACEMENT_3D('',#1741,#1395,#1396);
#1207=AXIS2_PLACEMENT_3D('',#1745,#1398,#1399);
#1208=AXIS2_PLACEMENT_3D('',#1748,#1401,#1402);
#1209=AXIS2_PLACEMENT_3D('',#1749,#1403,#1404);
#1210=AXIS2_PLACEMENT_3D('',#1751,#1405,#1406);
#1211=AXIS2_PLACEMENT_3D('',#1753,#1407,#1408);
#1212=AXIS2_PLACEMENT_3D('',#1754,#1409,#1410);
#1213=AXIS2_PLACEMENT_3D('',#1756,#1411,#1412);
#1214=AXIS2_PLACEMENT_3D('',#1758,#1413,#1414);
#1215=AXIS2_PLACEMENT_3D('',#1759,#1415,#1416);
#1216=AXIS2_PLACEMENT_3D('',#1761,#1417,#1418);
#1217=AXIS2_PLACEMENT_3D('',#1763,#1419,#1420);
#1218=AXIS2_PLACEMENT_3D('',#1764,#1421,#1422);
#1219=AXIS2_PLACEMENT_3D('',#1766,#1423,#1424);
#1220=AXIS2_PLACEMENT_3D('',#1768,#1425,#1426);
#1221=AXIS2_PLACEMENT_3D('',#1774,#1430,#1431);
#1222=AXIS2_PLACEMENT_3D('',#1775,#1432,#1433);
#1223=AXIS2_PLACEMENT_3D('',#1778,#1435,#1436);
#1224=AXIS2_PLACEMENT_3D('',#1782,#1439,#1440);
#1225=AXIS2_PLACEMENT_3D('',#1783,#1441,#1442);
#1226=AXIS2_PLACEMENT_3D('',#1786,#1444,#1445);
#1227=AXIS2_PLACEMENT_3D('',#1790,#1448,#1449);
#1228=AXIS2_PLACEMENT_3D('',#1791,#1450,#1451);
#1229=AXIS2_PLACEMENT_3D('',#1794,#1453,#1454);
#1230=AXIS2_PLACEMENT_3D('',#1798,#1457,#1458);
#1231=AXIS2_PLACEMENT_3D('',#1799,#1459,#1460);
#1232=AXIS2_PLACEMENT_3D('',#1802,#1462,#1463);
#1233=AXIS2_PLACEMENT_3D('',#1806,#1466,#1467);
#1234=AXIS2_PLACEMENT_3D('',#1807,#1468,#1469);
#1235=AXIS2_PLACEMENT_3D('',#1810,#1471,#1472);
#1236=AXIS2_PLACEMENT_3D('',#1812,#1474,#1475);
#1237=AXIS2_PLACEMENT_3D('',#1816,#1478,#1479);
#1238=AXIS2_PLACEMENT_3D('',#1817,#1480,#1481);
#1239=AXIS2_PLACEMENT_3D('',#1820,#1483,#1484);
#1240=AXIS2_PLACEMENT_3D('',#1821,#1485,#1486);
#1241=AXIS2_PLACEMENT_3D('',#1823,#1487,#1488);
#1242=AXIS2_PLACEMENT_3D('',#1825,#1489,#1490);
#1243=AXIS2_PLACEMENT_3D('',#1830,#1493,#1494);
#1244=AXIS2_PLACEMENT_3D('',#1831,#1495,#1496);
#1245=AXIS2_PLACEMENT_3D('',#1834,#1498,#1499);
#1246=AXIS2_PLACEMENT_3D('',#1838,#1502,#1503);
#1247=AXIS2_PLACEMENT_3D('',#1839,#1504,#1505);
#1248=AXIS2_PLACEMENT_3D('',#1840,#1506,#1507);
#1249=AXIS2_PLACEMENT_3D('',#1841,#1508,#1509);
#1250=AXIS2_PLACEMENT_3D('',#1847,#1513,#1514);
#1251=AXIS2_PLACEMENT_3D('',#1848,#1515,#1516);
#1252=AXIS2_PLACEMENT_3D('',#1851,#1518,#1519);
#1253=AXIS2_PLACEMENT_3D('',#1855,#1522,#1523);
#1254=AXIS2_PLACEMENT_3D('',#1856,#1524,#1525);
#1255=AXIS2_PLACEMENT_3D('',#1859,#1527,#1528);
#1256=AXIS2_PLACEMENT_3D('',#1863,#1531,#1532);
#1257=AXIS2_PLACEMENT_3D('',#1864,#1533,#1534);
#1258=AXIS2_PLACEMENT_3D('',#1867,#1536,#1537);
#1259=AXIS2_PLACEMENT_3D('',#1871,#1540,#1541);
#1260=AXIS2_PLACEMENT_3D('',#1872,#1542,#1543);
#1261=AXIS2_PLACEMENT_3D('',#1875,#1545,#1546);
#1262=AXIS2_PLACEMENT_3D('',#1879,#1549,#1550);
#1263=AXIS2_PLACEMENT_3D('',#1880,#1551,#1552);
#1264=AXIS2_PLACEMENT_3D('',#1883,#1554,#1555);
#1265=AXIS2_PLACEMENT_3D('',#1889,#1559,#1560);
#1266=AXIS2_PLACEMENT_3D('',#1890,#1561,#1562);
#1267=AXIS2_PLACEMENT_3D('',#1894,#1564,#1565);
#1268=AXIS2_PLACEMENT_3D('',#1895,#1566,#1567);
#1269=AXIS2_PLACEMENT_3D('',#1900,#1571,#1572);
#1270=AXIS2_PLACEMENT_3D('',#1901,#1573,#1574);
#1271=AXIS2_PLACEMENT_3D('',#1904,#1576,#1577);
#1272=AXIS2_PLACEMENT_3D('',#1905,#1578,#1579);
#1273=AXIS2_PLACEMENT_3D('',#1907,#1580,#1581);
#1274=AXIS2_PLACEMENT_3D('',#1909,#1582,#1583);
#1275=AXIS2_PLACEMENT_3D('',#1914,#1586,#1587);
#1276=AXIS2_PLACEMENT_3D('',#1915,#1588,#1589);
#1277=AXIS2_PLACEMENT_3D('',#1918,#1591,#1592);
#1278=AXIS2_PLACEMENT_3D('',#1922,#1595,#1596);
#1279=AXIS2_PLACEMENT_3D('',#1923,#1597,#1598);
#1280=AXIS2_PLACEMENT_3D('',#1924,#1599,#1600);
#1281=AXIS2_PLACEMENT_3D('',#1925,#1601,#1602);
#1282=AXIS2_PLACEMENT_3D('',#1926,#1603,#1604);
#1283=AXIS2_PLACEMENT_3D('',#1927,#1605,#1606);
#1284=AXIS2_PLACEMENT_3D('',#1928,#1607,#1608);
#1285=AXIS2_PLACEMENT_3D('',#1931,#1610,#1611);
#1286=AXIS2_PLACEMENT_3D('',#1932,#1612,#1613);
#1287=AXIS2_PLACEMENT_3D('',#1935,#1615,#1616);
#1288=AXIS2_PLACEMENT_3D('',#1937,#1618,#1619);
#1289=AXIS2_PLACEMENT_3D('',#1939,#1621,#1622);
#1290=AXIS2_PLACEMENT_3D('',#1940,#1623,#1624);
#1291=DIRECTION('',(0.,0.,1.));
#1292=DIRECTION('',(1.,0.,0.));
#1293=DIRECTION('',(0.,0.,-1.));
#1294=DIRECTION('',(-1.,0.,0.));
#1295=DIRECTION('',(0.,0.,-1.));
#1296=DIRECTION('',(-1.20466908053945E-16,0.,1.));
#1297=DIRECTION('',(1.,0.,1.20466908053945E-16));
#1298=DIRECTION('',(0.,0.,-1.));
#1299=DIRECTION('',(0.,0.,1.));
#1300=DIRECTION('',(1.,0.,0.));
#1301=DIRECTION('',(0.,0.,-1.));
#1302=DIRECTION('',(0.,0.,1.));
#1303=DIRECTION('',(1.,0.,0.));
#1304=DIRECTION('',(0.,0.,-1.));
#1305=DIRECTION('',(0.,0.,1.));
#1306=DIRECTION('',(1.,0.,0.));
#1307=DIRECTION('',(-1.22124532708767E-15,1.,0.));
#1308=DIRECTION('',(-1.,-1.22124532708767E-15,0.));
#1309=DIRECTION('',(-1.16573417585641E-15,1.,0.));
#1310=DIRECTION('',(-1.,-1.16573417585641E-15,0.));
#1311=DIRECTION('',(1.16573417585641E-15,-1.,0.));
#1312=DIRECTION('',(1.,1.16573417585641E-15,0.));
#1313=DIRECTION('',(-1.22124532708767E-15,1.,0.));
#1314=DIRECTION('',(-1.,-1.22124532708767E-15,0.));
#1315=DIRECTION('',(-1.16573417585641E-15,1.,0.));
#1316=DIRECTION('',(-1.,-1.16573417585641E-15,0.));
#1317=DIRECTION('',(1.16573417585641E-15,-1.,0.));
#1318=DIRECTION('',(1.,1.16573417585641E-15,0.));
#1319=DIRECTION('',(-1.22124532708767E-15,1.,0.));
#1320=DIRECTION('',(-1.,-1.22124532708767E-15,0.));
#1321=DIRECTION('',(-1.16573417585641E-15,1.,0.));
#1322=DIRECTION('',(-1.,-1.16573417585641E-15,0.));
#1323=DIRECTION('',(1.16573417585641E-15,-1.,0.));
#1324=DIRECTION('',(1.,1.16573417585641E-15,0.));
#1325=DIRECTION('',(-0.866025403784438,-0.5,0.));
#1326=DIRECTION('',(0.5,-0.866025403784438,0.));
#1327=DIRECTION('',(-0.866025403784438,-0.5,0.));
#1328=DIRECTION('',(0.5,-0.866025403784438,0.));
#1329=DIRECTION('',(0.866025403784438,0.5,0.));
#1330=DIRECTION('',(-0.5,0.866025403784438,0.));
#1331=DIRECTION('',(-0.866025403784438,-0.5,0.));
#1332=DIRECTION('',(0.5,-0.866025403784438,0.));
#1333=DIRECTION('',(-0.866025403784438,-0.5,0.));
#1334=DIRECTION('',(0.5,-0.866025403784438,0.));
#1335=DIRECTION('',(0.866025403784438,0.5,0.));
#1336=DIRECTION('',(-0.5,0.866025403784438,0.));
#1337=DIRECTION('',(-0.866025403784438,-0.5,0.));
#1338=DIRECTION('',(0.5,-0.866025403784438,0.));
#1339=DIRECTION('',(-0.866025403784438,-0.5,0.));
#1340=DIRECTION('',(0.5,-0.866025403784438,0.));
#1341=DIRECTION('',(0.866025403784438,0.5,0.));
#1342=DIRECTION('',(-0.5,0.866025403784438,0.));
#1343=DIRECTION('',(0.,0.,1.));
#1344=DIRECTION('',(1.,0.,0.));
#1345=DIRECTION('',(0.,0.,1.));
#1346=DIRECTION('',(1.,0.,0.));
#1347=DIRECTION('',(0.,-1.,0.));
#1348=DIRECTION('',(0.866025403784439,-0.5,0.));
#1349=DIRECTION('',(0.,0.,1.));
#1350=DIRECTION('',(1.,0.,0.));
#1351=DIRECTION('',(0.5,0.866025403784439,0.));
#1352=DIRECTION('',(0.,0.,1.));
#1353=DIRECTION('',(1.,0.,0.));
#1354=DIRECTION('',(0.866025403784439,-0.5,0.));
#1355=DIRECTION('',(0.,0.,1.));
#1356=DIRECTION('',(1.,0.,0.));
#1357=DIRECTION('',(0.,1.,0.));
#1358=DIRECTION('',(0.,0.,1.));
#1359=DIRECTION('',(1.,0.,0.));
#1360=DIRECTION('',(-1.,-5.50487418001367E-16,0.));
#1361=DIRECTION('',(0.,0.,1.));
#1362=DIRECTION('',(1.,0.,0.));
#1363=DIRECTION('',(0.,1.,0.));
#1364=DIRECTION('',(0.,0.,1.));
#1365=DIRECTION('',(1.,0.,0.));
#1366=DIRECTION('',(-0.866025403784439,-0.5,0.));
#1367=DIRECTION('',(0.,0.,1.));
#1368=DIRECTION('',(1.,0.,0.));
#1369=DIRECTION('',(0.5,-0.866025403784439,0.));
#1370=DIRECTION('',(0.,0.,1.));
#1371=DIRECTION('',(1.,0.,0.));
#1372=DIRECTION('',(-0.866025403784439,-0.5,0.));
#1373=DIRECTION('',(0.,-1.,0.));
#1374=DIRECTION('',(0.,0.,1.));
#1375=DIRECTION('',(1.,0.,0.));
#1376=DIRECTION('',(-0.866025403784439,-0.5,0.));
#1377=DIRECTION('',(0.,0.,1.));
#1378=DIRECTION('',(1.,0.,0.));
#1379=DIRECTION('',(0.5,-0.866025403784439,0.));
#1380=DIRECTION('',(0.,0.,1.));
#1381=DIRECTION('',(1.,0.,0.));
#1382=DIRECTION('',(-0.866025403784439,-0.5,0.));
#1383=DIRECTION('',(0.,0.,1.));
#1384=DIRECTION('',(1.,0.,0.));
#1385=DIRECTION('',(0.,1.,0.));
#1386=DIRECTION('',(0.,0.,1.));
#1387=DIRECTION('',(1.,0.,0.));
#1388=DIRECTION('',(-1.,-5.50487418001367E-16,0.));
#1389=DIRECTION('',(0.,0.,1.));
#1390=DIRECTION('',(1.,0.,0.));
#1391=DIRECTION('',(0.,1.,0.));
#1392=DIRECTION('',(0.,0.,1.));
#1393=DIRECTION('',(1.,0.,0.));
#1394=DIRECTION('',(0.866025403784439,-0.5,0.));
#1395=DIRECTION('',(0.,0.,1.));
#1396=DIRECTION('',(1.,0.,0.));
#1397=DIRECTION('',(0.5,0.866025403784439,0.));
#1398=DIRECTION('',(0.,0.,1.));
#1399=DIRECTION('',(1.,0.,0.));
#1400=DIRECTION('',(0.866025403784439,-0.5,0.));
#1401=DIRECTION('',(0.,0.,-1.));
#1402=DIRECTION('',(-1.,0.,0.));
#1403=DIRECTION('',(0.,0.,1.));
#1404=DIRECTION('',(1.,0.,0.));
#1405=DIRECTION('',(0.,0.,1.));
#1406=DIRECTION('',(1.,0.,0.));
#1407=DIRECTION('',(0.,0.,-1.));
#1408=DIRECTION('',(-1.,0.,0.));
#1409=DIRECTION('',(0.,0.,1.));
#1410=DIRECTION('',(1.,0.,0.));
#1411=DIRECTION('',(0.,0.,1.));
#1412=DIRECTION('',(1.,0.,0.));
#1413=DIRECTION('',(0.,0.,-1.));
#1414=DIRECTION('',(-1.,0.,0.));
#1415=DIRECTION('',(0.,0.,1.));
#1416=DIRECTION('',(1.,0.,0.));
#1417=DIRECTION('',(0.,0.,1.));
#1418=DIRECTION('',(1.,0.,0.));
#1419=DIRECTION('',(0.,0.,-1.));
#1420=DIRECTION('',(-1.,0.,0.));
#1421=DIRECTION('',(0.,0.,1.));
#1422=DIRECTION('',(1.,0.,0.));
#1423=DIRECTION('',(0.,0.,1.));
#1424=DIRECTION('',(1.,0.,0.));
#1425=DIRECTION('',(-1.,0.,0.));
#1426=DIRECTION('',(0.,0.,1.));
#1427=DIRECTION('',(0.,1.,0.));
#1428=DIRECTION('',(0.,0.,-1.));
#1429=DIRECTION('',(0.,0.,-1.));
#1430=DIRECTION('',(0.,0.,-1.));
#1431=DIRECTION('',(-1.,0.,0.));
#1432=DIRECTION('',(0.,0.,1.));
#1433=DIRECTION('',(1.,0.,0.));
#1434=DIRECTION('',(0.,0.,-1.));
#1435=DIRECTION('',(5.50487418001367E-16,-1.,0.));
#1436=DIRECTION('',(1.,5.50487418001367E-16,0.));
#1437=DIRECTION('',(-1.,-5.50487418001367E-16,0.));
#1438=DIRECTION('',(0.,0.,-1.));
#1439=DIRECTION('',(0.,0.,-1.));
#1440=DIRECTION('',(-1.,0.,0.));
#1441=DIRECTION('',(0.,0.,1.));
#1442=DIRECTION('',(1.,0.,0.));
#1443=DIRECTION('',(0.,0.,-1.));
#1444=DIRECTION('',(-1.,0.,0.));
#1445=DIRECTION('',(0.,0.,1.));
#1446=DIRECTION('',(0.,1.,0.));
#1447=DIRECTION('',(0.,0.,-1.));
#1448=DIRECTION('',(0.,0.,-1.));
#1449=DIRECTION('',(-1.,0.,0.));
#1450=DIRECTION('',(0.,0.,1.));
#1451=DIRECTION('',(1.,0.,0.));
#1452=DIRECTION('',(0.,0.,-1.));
#1453=DIRECTION('',(0.5,-0.866025403784439,0.));
#1454=DIRECTION('',(0.866025403784439,0.5,0.));
#1455=DIRECTION('',(-0.866025403784439,-0.5,0.));
#1456=DIRECTION('',(0.,0.,-1.));
#1457=DIRECTION('',(0.,0.,-1.));
#1458=DIRECTION('',(-1.,0.,0.));
#1459=DIRECTION('',(0.,0.,1.));
#1460=DIRECTION('',(1.,0.,0.));
#1461=DIRECTION('',(0.,0.,-1.));
#1462=DIRECTION('',(0.866025403784439,0.5,0.));
#1463=DIRECTION('',(-0.5,0.866025403784439,0.));
#1464=DIRECTION('',(0.5,-0.866025403784439,0.));
#1465=DIRECTION('',(0.,0.,-1.));
#1466=DIRECTION('',(0.,0.,-1.));
#1467=DIRECTION('',(-1.,0.,0.));
#1468=DIRECTION('',(0.,0.,1.));
#1469=DIRECTION('',(1.,0.,0.));
#1470=DIRECTION('',(0.,0.,-1.));
#1471=DIRECTION('',(0.5,-0.866025403784439,0.));
#1472=DIRECTION('',(0.866025403784439,0.5,0.));
#1473=DIRECTION('',(-0.866025403784439,-0.5,0.));
#1474=DIRECTION('',(0.5,0.866025403784439,0.));
#1475=DIRECTION('',(-0.866025403784439,0.5,0.));
#1476=DIRECTION('',(0.866025403784439,-0.5,0.));
#1477=DIRECTION('',(0.,0.,-1.));
#1478=DIRECTION('',(0.,0.,-1.));
#1479=DIRECTION('',(-1.,0.,0.));
#1480=DIRECTION('',(0.,0.,1.));
#1481=DIRECTION('',(1.,0.,0.));
#1482=DIRECTION('',(0.,0.,-1.));
#1483=DIRECTION('',(-0.866025403784439,0.5,0.));
#1484=DIRECTION('',(-0.5,-0.866025403784439,0.));
#1485=DIRECTION('',(0.866025403784439,-0.5,0.));
#1486=DIRECTION('',(0.5,0.866025403784439,0.));
#1487=DIRECTION('',(0.866025403784439,-0.5,0.));
#1488=DIRECTION('',(0.5,0.866025403784439,0.));
#1489=DIRECTION('',(0.866025403784439,-0.5,0.));
#1490=DIRECTION('',(0.5,0.866025403784439,0.));
#1491=DIRECTION('',(0.5,0.866025403784439,0.));
#1492=DIRECTION('',(0.,0.,-1.));
#1493=DIRECTION('',(0.,0.,-1.));
#1494=DIRECTION('',(-1.,0.,0.));
#1495=DIRECTION('',(0.,0.,1.));
#1496=DIRECTION('',(1.,0.,0.));
#1497=DIRECTION('',(0.,0.,-1.));
#1498=DIRECTION('',(0.5,0.866025403784439,0.));
#1499=DIRECTION('',(-0.866025403784439,0.5,0.));
#1500=DIRECTION('',(0.866025403784439,-0.5,0.));
#1501=DIRECTION('',(0.,0.,-1.));
#1502=DIRECTION('',(0.,0.,-1.));
#1503=DIRECTION('',(-1.,0.,0.));
#1504=DIRECTION('',(0.,0.,1.));
#1505=DIRECTION('',(1.,0.,0.));
#1506=DIRECTION('',(0.,0.,1.));
#1507=DIRECTION('',(1.,0.,0.));
#1508=DIRECTION('',(-1.,0.,0.));
#1509=DIRECTION('',(0.,0.,1.));
#1510=DIRECTION('',(0.,1.,0.));
#1511=DIRECTION('',(0.,0.,-1.));
#1512=DIRECTION('',(0.,0.,-1.));
#1513=DIRECTION('',(0.,0.,-1.));
#1514=DIRECTION('',(-1.,0.,0.));
#1515=DIRECTION('',(0.,0.,1.));
#1516=DIRECTION('',(1.,0.,0.));
#1517=DIRECTION('',(0.,0.,1.));
#1518=DIRECTION('',(5.50487418001367E-16,-1.,0.));
#1519=DIRECTION('',(1.,5.50487418001367E-16,0.));
#1520=DIRECTION('',(-1.,-5.50487418001367E-16,0.));
#1521=DIRECTION('',(0.,0.,-1.));
#1522=DIRECTION('',(0.,0.,-1.));
#1523=DIRECTION('',(-1.,0.,0.));
#1524=DIRECTION('',(0.,0.,1.));
#1525=DIRECTION('',(1.,0.,0.));
#1526=DIRECTION('',(0.,0.,1.));
#1527=DIRECTION('',(-1.,0.,0.));
#1528=DIRECTION('',(0.,0.,1.));
#1529=DIRECTION('',(0.,1.,0.));
#1530=DIRECTION('',(0.,0.,-1.));
#1531=DIRECTION('',(0.,0.,-1.));
#1532=DIRECTION('',(-1.,0.,0.));
#1533=DIRECTION('',(0.,0.,1.));
#1534=DIRECTION('',(1.,0.,0.));
#1535=DIRECTION('',(0.,0.,-1.));
#1536=DIRECTION('',(0.5,-0.866025403784439,0.));
#1537=DIRECTION('',(0.866025403784439,0.5,0.));
#1538=DIRECTION('',(-0.866025403784439,-0.5,0.));
#1539=DIRECTION('',(0.,0.,-1.));
#1540=DIRECTION('',(0.,0.,-1.));
#1541=DIRECTION('',(-1.,0.,0.));
#1542=DIRECTION('',(0.,0.,1.));
#1543=DIRECTION('',(1.,0.,0.));
#1544=DIRECTION('',(0.,0.,1.));
#1545=DIRECTION('',(0.866025403784439,0.5,0.));
#1546=DIRECTION('',(-0.5,0.866025403784439,0.));
#1547=DIRECTION('',(0.5,-0.866025403784439,0.));
#1548=DIRECTION('',(0.,0.,-1.));
#1549=DIRECTION('',(0.,0.,-1.));
#1550=DIRECTION('',(-1.,0.,0.));
#1551=DIRECTION('',(0.,0.,1.));
#1552=DIRECTION('',(1.,0.,0.));
#1553=DIRECTION('',(0.,0.,1.));
#1554=DIRECTION('',(0.5,-0.866025403784439,0.));
#1555=DIRECTION('',(0.866025403784439,0.5,0.));
#1556=DIRECTION('',(-0.866025403784439,-0.5,0.));
#1557=DIRECTION('',(0.,0.,-1.));
#1558=DIRECTION('',(0.,0.,-1.));
#1559=DIRECTION('',(0.,0.,-1.));
#1560=DIRECTION('',(-1.,0.,0.));
#1561=DIRECTION('',(-1.20466908053945E-16,0.,1.));
#1562=DIRECTION('',(1.,0.,1.20466908053945E-16));
#1563=DIRECTION('',(0.,0.,-1.));
#1564=DIRECTION('',(0.,0.,1.));
#1565=DIRECTION('',(1.,0.,0.));
#1566=DIRECTION('',(0.5,0.866025403784439,0.));
#1567=DIRECTION('',(-0.866025403784439,0.5,0.));
#1568=DIRECTION('',(0.866025403784439,-0.5,0.));
#1569=DIRECTION('',(0.,0.,-1.));
#1570=DIRECTION('',(0.,0.,-1.));
#1571=DIRECTION('',(0.,0.,-1.));
#1572=DIRECTION('',(-1.,0.,0.));
#1573=DIRECTION('',(0.,0.,1.));
#1574=DIRECTION('',(1.,0.,0.));
#1575=DIRECTION('',(0.,0.,1.));
#1576=DIRECTION('',(-0.866025403784439,0.5,0.));
#1577=DIRECTION('',(-0.5,-0.866025403784439,0.));
#1578=DIRECTION('',(-0.866025403784439,0.5,0.));
#1579=DIRECTION('',(-0.5,-0.866025403784439,0.));
#1580=DIRECTION('',(-0.866025403784439,0.5,0.));
#1581=DIRECTION('',(-0.5,-0.866025403784439,0.));
#1582=DIRECTION('',(-0.866025403784439,0.5,0.));
#1583=DIRECTION('',(-0.5,-0.866025403784439,0.));
#1584=DIRECTION('',(0.5,0.866025403784439,0.));
#1585=DIRECTION('',(0.,0.,-1.));
#1586=DIRECTION('',(0.,0.,-1.));
#1587=DIRECTION('',(-1.,0.,0.));
#1588=DIRECTION('',(0.,0.,1.));
#1589=DIRECTION('',(1.,0.,0.));
#1590=DIRECTION('',(0.,0.,1.));
#1591=DIRECTION('',(0.5,0.866025403784439,0.));
#1592=DIRECTION('',(-0.866025403784439,0.5,0.));
#1593=DIRECTION('',(0.866025403784439,-0.5,0.));
#1594=DIRECTION('',(0.,0.,-1.));
#1595=DIRECTION('',(0.,0.,-1.));
#1596=DIRECTION('',(-1.,0.,0.));
#1597=DIRECTION('',(0.,0.,1.));
#1598=DIRECTION('',(1.,0.,0.));
#1599=DIRECTION('',(0.,0.,1.));
#1600=DIRECTION('',(1.,0.,0.));
#1601=DIRECTION('',(0.866025403784439,-0.5,0.));
#1602=DIRECTION('',(0.5,0.866025403784439,0.));
#1603=DIRECTION('',(0.866025403784439,-0.5,0.));
#1604=DIRECTION('',(0.5,0.866025403784439,0.));
#1605=DIRECTION('',(0.866025403784439,-0.5,0.));
#1606=DIRECTION('',(0.5,0.866025403784439,0.));
#1607=DIRECTION('',(0.,0.,-1.));
#1608=DIRECTION('',(-1.,0.,0.));
#1609=DIRECTION('',(0.,0.,-1.));
#1610=DIRECTION('',(-1.20466908053945E-16,0.,1.));
#1611=DIRECTION('',(1.,0.,1.20466908053945E-16));
#1612=DIRECTION('',(-1.20466908053945E-16,0.,1.));
#1613=DIRECTION('',(1.,0.,1.20466908053945E-16));
#1614=DIRECTION('',(0.,-1.,0.));
#1615=DIRECTION('',(-1.20466908053945E-16,0.,1.));
#1616=DIRECTION('',(1.,0.,1.20466908053945E-16));
#1617=DIRECTION('',(0.,-1.,0.));
#1618=DIRECTION('',(-1.,0.,0.));
#1619=DIRECTION('',(0.,0.,1.));
#1620=DIRECTION('',(0.,0.,-1.));
#1621=DIRECTION('',(-1.,0.,0.));
#1622=DIRECTION('',(0.,0.,1.));
#1623=DIRECTION('',(0.,0.,-1.));
#1624=DIRECTION('',(-1.,0.,0.));
#1625=CARTESIAN_POINT('',(0.,0.,0.));
#1626=CARTESIAN_POINT('',(1.38777878078145E-17,-6.93889390390723E-18,0.0215));
#1627=CARTESIAN_POINT('',(0.045,-0.0676863235816513,0.0215));
#1628=CARTESIAN_POINT('',(0.045,-0.0676863235816513,-0.00167210355951146));
#1629=CARTESIAN_POINT('',(0.045,-0.0676863235816513,0.0215));
#1630=CARTESIAN_POINT('',(1.38777878078145E-17,-6.93889390390723E-18,-0.00167210355951146));
#1631=CARTESIAN_POINT('',(-0.045,-0.0676863235816513,-0.00167210355951147));
#1632=CARTESIAN_POINT('',(-0.045,-0.0676863235816513,0.0215));
#1633=CARTESIAN_POINT('',(-0.045,-0.0676863235816513,0.0215));
#1634=CARTESIAN_POINT('',(1.38777878078145E-17,-6.93889390390723E-18,0.0215));
#1635=CARTESIAN_POINT('',(-0.0502428823298812,-0.0638912449024568,0.0215));
#1636=CARTESIAN_POINT('',(-0.0502428823298812,-0.0638912449024568,0.0215));
#1637=CARTESIAN_POINT('',(-0.0502428823298812,-0.0638912449024568,-0.0215));
#1638=CARTESIAN_POINT('',(1.38777878078145E-17,-6.93889390390723E-18,-0.0215));
#1639=CARTESIAN_POINT('',(0.0502428823298812,-0.0638912449024568,-0.0215));
#1640=CARTESIAN_POINT('',(0.0502428823298812,-0.0638912449024568,0.0215));
#1641=CARTESIAN_POINT('',(0.0502428823298812,-0.0638912449024568,0.0215));
#1642=CARTESIAN_POINT('',(1.38777878078145E-17,-6.93889390390723E-18,0.0215));
#1643=CARTESIAN_POINT('',(0.0052500000000001,-0.081282,6.73555739531044E-20));
#1644=CARTESIAN_POINT('',(0.00524999999999992,0.0618149917026983,6.73555739531044E-20));
#1645=CARTESIAN_POINT('',(0.00414999999999992,0.0618149917026983,6.73555739531044E-20));
#1646=CARTESIAN_POINT('',(0.00524999999999993,0.0568149917026982,6.73555739531044E-20));
#1647=CARTESIAN_POINT('',(0.00634999999999993,0.0568149917026982,6.73555739531044E-20));
#1648=CARTESIAN_POINT('',(-0.00524999999999991,-0.081282,8.00006164035299E-19));
#1649=CARTESIAN_POINT('',(-0.00525000000000007,0.0618149917026983,8.00006164035299E-19));
#1650=CARTESIAN_POINT('',(-0.00635000000000007,0.0618149917026983,8.00006164035299E-19));
#1651=CARTESIAN_POINT('',(-0.00525000000000007,0.0568149917026982,8.00006164035299E-19));
#1652=CARTESIAN_POINT('',(-0.00415000000000007,0.0568149917026982,8.00006164035299E-19));
#1653=CARTESIAN_POINT('',(9.0205620750794E-17,-0.081282,1.99005104861445E-19));
#1654=CARTESIAN_POINT('',(-7.63278329429795E-17,0.0618149917026983,1.99005104861445E-19));
#1655=CARTESIAN_POINT('',(-0.00325000000000008,0.0618149917026983,1.99005104861445E-19));
#1656=CARTESIAN_POINT('',(-7.28583859910259E-17,0.0568149917026982,1.99005104861445E-19));
#1657=CARTESIAN_POINT('',(0.00324999999999993,0.0568149917026982,1.99005104861445E-19));
#1658=CARTESIAN_POINT('',(0.0677672768704068,0.0451876333698684,6.73555739531044E-20));
#1659=CARTESIAN_POINT('',(-0.056158353149261,-0.0263608624814809,6.73555739531044E-20));
#1660=CARTESIAN_POINT('',(-0.055608353149261,-0.0273134904256438,6.73555739531044E-20));
#1661=CARTESIAN_POINT('',(-0.0518282261303387,-0.0238608624814808,6.73555739531044E-20));
#1662=CARTESIAN_POINT('',(-0.0523782261303387,-0.022908234537318,6.73555739531044E-20));
#1663=CARTESIAN_POINT('',(0.0730172768704068,0.0360943666301318,8.00006164035299E-19));
#1664=CARTESIAN_POINT('',(-0.0509083531492609,-0.0354541292212174,8.00006164035299E-19));
#1665=CARTESIAN_POINT('',(-0.0503583531492609,-0.0364067571653803,8.00006164035299E-19));
#1666=CARTESIAN_POINT('',(-0.0465782261303388,-0.0329541292212175,8.00006164035299E-19));
#1667=CARTESIAN_POINT('',(-0.0471282261303388,-0.0320015012770546,8.00006164035299E-19));
#1668=CARTESIAN_POINT('',(0.0703922768704068,0.040641,1.99005104861445E-19));
#1669=CARTESIAN_POINT('',(-0.0535333531492609,-0.0309074958513492,1.99005104861445E-19));
#1670=CARTESIAN_POINT('',(-0.0519083531492609,-0.0337220784136486,1.99005104861445E-19));
#1671=CARTESIAN_POINT('',(-0.0492032261303387,-0.0284074958513492,1.99005104861445E-19));
#1672=CARTESIAN_POINT('',(-0.0508282261303387,-0.0255929132890497,1.99005104861445E-19));
#1673=CARTESIAN_POINT('',(0.,0.00961499393657346,0.0215));
#1674=CARTESIAN_POINT('',(1.38777878078145E-17,-6.93889390390723E-18,0.0215));
#1675=CARTESIAN_POINT('',(0.045,-0.0615925190262584,0.0215));
#1676=CARTESIAN_POINT('',(0.040996797967298,-0.0643265182986656,0.0215));
#1677=CARTESIAN_POINT('',(0.045,0.00961499393657346,0.0215));
#1678=CARTESIAN_POINT('',(0.0465006812490322,-0.0617306841010669,0.0215));
#1679=CARTESIAN_POINT('',(0.0427584801681832,-0.059570123299677,0.0215));
#1680=CARTESIAN_POINT('',(0.0452584801681832,-0.0552399962807548,0.0215));
#1681=CARTESIAN_POINT('',(0.040928353149261,-0.0527399962807548,0.0215));
#1682=CARTESIAN_POINT('',(0.053533353149261,-0.0309074958513491,0.0215));
#1683=CARTESIAN_POINT('',(0.0661383531492609,-0.0090749954219434,0.0215));
#1684=CARTESIAN_POINT('',(0.0704684801681832,-0.0115749954219434,0.0215));
#1685=CARTESIAN_POINT('',(0.0729684801681832,-0.0072448684030212,0.0215));
#1686=CARTESIAN_POINT('',(0.0767106812490322,-0.0094054292044111,0.0215));
#1687=CARTESIAN_POINT('',(0.0804528823298812,-0.011565990005801,0.0215));
#1688=CARTESIAN_POINT('',(-8.67361737988404E-18,9.54097911787244E-18,0.0215));
#1689=CARTESIAN_POINT('',(0.03021,0.0754572349082578,0.0215));
#1690=CARTESIAN_POINT('',(0.03021,0.071136113305478,0.0215));
#1691=CARTESIAN_POINT('',(0.03021,0.0668149917026982,0.0215));
#1692=CARTESIAN_POINT('',(0.02521,0.0668149917026982,0.0215));
#1693=CARTESIAN_POINT('',(0.02521,0.0618149917026983,0.0215));
#1694=CARTESIAN_POINT('',(1.04083408558608E-17,0.0618149917026982,0.0215));
#1695=CARTESIAN_POINT('',(-0.02521,0.0618149917026982,0.0215));
#1696=CARTESIAN_POINT('',(-0.02521,0.0668149917026982,0.0215));
#1697=CARTESIAN_POINT('',(-0.03021,0.0668149917026982,0.0215));
#1698=CARTESIAN_POINT('',(-0.03021,0.071136113305478,0.0215));
#1699=CARTESIAN_POINT('',(-0.03021,0.0754572349082578,0.0215));
#1700=CARTESIAN_POINT('',(5.20417042793042E-18,-9.54097911787244E-18,0.0215));
#1701=CARTESIAN_POINT('',(-0.0804528823298812,-0.011565990005801,0.0215));
#1702=CARTESIAN_POINT('',(-0.0767106812490322,-0.0094054292044111,0.0215));
#1703=CARTESIAN_POINT('',(-0.0729684801681832,-0.0072448684030212,0.0215));
#1704=CARTESIAN_POINT('',(-0.0704684801681832,-0.0115749954219434,0.0215));
#1705=CARTESIAN_POINT('',(-0.066138353149261,-0.0090749954219434,0.0215));
#1706=CARTESIAN_POINT('',(-0.053533353149261,-0.0309074958513491,0.0215));
#1707=CARTESIAN_POINT('',(-0.040928353149261,-0.0527399962807548,0.0215));
#1708=CARTESIAN_POINT('',(-0.0452584801681832,-0.0552399962807548,0.0215));
#1709=CARTESIAN_POINT('',(-0.0427584801681831,-0.059570123299677,0.0215));
#1710=CARTESIAN_POINT('',(-0.0465006812490322,-0.0617306841010669,0.0215));
#1711=CARTESIAN_POINT('',(-0.045,0.00961499393657346,0.0215));
#1712=CARTESIAN_POINT('',(-0.045,-0.0615925190262584,0.0215));
#1713=CARTESIAN_POINT('',(1.38777878078145E-17,-6.93889390390723E-18,0.0215));
#1714=CARTESIAN_POINT('',(-0.0409967979672979,-0.0643265182986656,0.0215));
#1715=CARTESIAN_POINT('',(-0.0440006812490322,-0.0660608111199891,0.0215));
#1716=CARTESIAN_POINT('',(-0.0402584801681831,-0.0639002503185992,0.0215));
#1717=CARTESIAN_POINT('',(-0.0452584801681832,-0.0552399962807548,0.0215));
#1718=CARTESIAN_POINT('',(-0.0365982261303388,-0.0502399962807548,0.0215));
#1719=CARTESIAN_POINT('',(-0.0492032261303388,-0.0284074958513491,0.0215));
#1720=CARTESIAN_POINT('',(-0.0618082261303388,-0.00657499542194339,0.0215));
#1721=CARTESIAN_POINT('',(-0.0704684801681832,-0.0115749954219434,0.0215));
#1722=CARTESIAN_POINT('',(-0.0754684801681832,-0.00291474138409902,0.0215));
#1723=CARTESIAN_POINT('',(-0.0792106812490322,-0.00507530218548891,0.0215));
#1724=CARTESIAN_POINT('',(-0.0762067979672979,-0.0033410093641654,0.0215));
#1725=CARTESIAN_POINT('',(5.20417042793042E-18,-9.54097911787244E-18,0.0215));
#1726=CARTESIAN_POINT('',(-0.03521,0.067667527662831,0.0215));
#1727=CARTESIAN_POINT('',(-0.03521,0.071136113305478,0.0215));
#1728=CARTESIAN_POINT('',(-0.03521,0.0668149917026982,0.0215));
#1729=CARTESIAN_POINT('',(-0.02521,0.0668149917026982,0.0215));
#1730=CARTESIAN_POINT('',(-0.02521,0.0568149917026982,0.0215));
#1731=CARTESIAN_POINT('',(1.31607779458677E-17,0.0568149917026982,0.0215));
#1732=CARTESIAN_POINT('',(0.02521,0.0568149917026982,0.0215));
#1733=CARTESIAN_POINT('',(0.02521,0.0668149917026982,0.0215));
#1734=CARTESIAN_POINT('',(0.03521,0.0668149917026982,0.0215));
#1735=CARTESIAN_POINT('',(0.03521,0.071136113305478,0.0215));
#1736=CARTESIAN_POINT('',(0.03521,0.0676675276628311,0.0215));
#1737=CARTESIAN_POINT('',(-8.67361737988404E-18,9.54097911787244E-18,0.0215));
#1738=CARTESIAN_POINT('',(0.0762067979672979,-0.00334100936416539,0.0215));
#1739=CARTESIAN_POINT('',(0.0792106812490322,-0.0050753021854889,0.0215));
#1740=CARTESIAN_POINT('',(0.0754684801681831,-0.002914741384099,0.0215));
#1741=CARTESIAN_POINT('',(0.0704684801681832,-0.0115749954219434,0.0215));
#1742=CARTESIAN_POINT('',(0.0618082261303388,-0.00657499542194341,0.0215));
#1743=CARTESIAN_POINT('',(0.0492032261303388,-0.0284074958513491,0.0215));
#1744=CARTESIAN_POINT('',(0.0365982261303388,-0.0502399962807548,0.0215));
#1745=CARTESIAN_POINT('',(0.0452584801681832,-0.0552399962807548,0.0215));
#1746=CARTESIAN_POINT('',(0.0402584801681832,-0.0639002503185992,0.0215));
#1747=CARTESIAN_POINT('',(0.0440006812490322,-0.0660608111199891,0.0215));
#1748=CARTESIAN_POINT('',(0.00519944754492751,-0.0614200538466573,0.0215));
#1749=CARTESIAN_POINT('',(0.00519944754492751,-0.0614200538466573,-0.0215));
#1750=CARTESIAN_POINT('',(0.00679944754492751,-0.0614200538466573,-0.0215));
#1751=CARTESIAN_POINT('',(0.00519944754492751,-0.0614200538466573,-0.0165));
#1752=CARTESIAN_POINT('',(0.00679944754492751,-0.0614200538466573,-0.0165));
#1753=CARTESIAN_POINT('',(-0.00607994615334274,-0.0623005524550725,0.0215));
#1754=CARTESIAN_POINT('',(-0.00607994615334274,-0.0623005524550725,-0.0215));
#1755=CARTESIAN_POINT('',(-0.00447994615334274,-0.0623005524550725,-0.0215));
#1756=CARTESIAN_POINT('',(-0.00607994615334274,-0.0623005524550725,-0.0165));
#1757=CARTESIAN_POINT('',(-0.00447994615334274,-0.0623005524550725,-0.0165));
#1758=CARTESIAN_POINT('',(-0.00519944754492749,-0.0735799461533428,0.0215));
#1759=CARTESIAN_POINT('',(-0.00519944754492749,-0.0735799461533428,-0.0215));
#1760=CARTESIAN_POINT('',(-0.00359944754492749,-0.0735799461533428,-0.0215));
#1761=CARTESIAN_POINT('',(-0.00519944754492749,-0.0735799461533428,-0.0165));
#1762=CARTESIAN_POINT('',(-0.00359944754492749,-0.0735799461533428,-0.0165));
#1763=CARTESIAN_POINT('',(0.00607994615334277,-0.0726994475449275,0.0215));
#1764=CARTESIAN_POINT('',(0.00607994615334277,-0.0726994475449275,-0.0215));
#1765=CARTESIAN_POINT('',(0.00767994615334277,-0.0726994475449275,-0.0215));
#1766=CARTESIAN_POINT('',(0.00607994615334277,-0.0726994475449275,-0.0165));
#1767=CARTESIAN_POINT('',(0.00767994615334277,-0.0726994475449275,-0.0165));
#1768=CARTESIAN_POINT('',(0.03021,0.071136113305478,0.0215));
#1769=CARTESIAN_POINT('',(0.03021,0.071136113305478,-0.0215));
#1770=CARTESIAN_POINT('',(0.03021,0.0668149917026982,-0.0215));
#1771=CARTESIAN_POINT('',(0.03021,0.0754572349082578,-0.0215));
#1772=CARTESIAN_POINT('',(0.03021,0.0668149917026982,0.0215));
#1773=CARTESIAN_POINT('',(0.03021,0.0754572349082578,0.0215));
#1774=CARTESIAN_POINT('',(0.02521,0.0668149917026982,0.0215));
#1775=CARTESIAN_POINT('',(0.02521,0.0668149917026982,-0.0215));
#1776=CARTESIAN_POINT('',(0.02521,0.0618149917026983,-0.0215));
#1777=CARTESIAN_POINT('',(0.02521,0.0618149917026983,0.0215));
#1778=CARTESIAN_POINT('',(1.04083408558608E-17,0.0618149917026982,0.0215));
#1779=CARTESIAN_POINT('',(1.04083408558608E-17,0.0618149917026982,-0.0215));
#1780=CARTESIAN_POINT('',(-0.02521,0.0618149917026982,-0.0215));
#1781=CARTESIAN_POINT('',(-0.02521,0.0618149917026982,0.0215));
#1782=CARTESIAN_POINT('',(-0.02521,0.0668149917026982,0.0215));
#1783=CARTESIAN_POINT('',(-0.02521,0.0668149917026982,-0.0215));
#1784=CARTESIAN_POINT('',(-0.03021,0.0668149917026982,-0.0215));
#1785=CARTESIAN_POINT('',(-0.03021,0.0668149917026982,0.0215));
#1786=CARTESIAN_POINT('',(-0.03021,0.071136113305478,0.0215));
#1787=CARTESIAN_POINT('',(-0.03021,0.071136113305478,-0.0215));
#1788=CARTESIAN_POINT('',(-0.03021,0.0754572349082578,-0.0215));
#1789=CARTESIAN_POINT('',(-0.03021,0.0754572349082578,0.0215));
#1790=CARTESIAN_POINT('',(5.20417042793042E-18,-9.54097911787244E-18,0.0215));
#1791=CARTESIAN_POINT('',(5.20417042793042E-18,-9.54097911787244E-18,-0.0215));
#1792=CARTESIAN_POINT('',(-0.0804528823298812,-0.011565990005801,-0.0215));
#1793=CARTESIAN_POINT('',(-0.0804528823298812,-0.011565990005801,0.0215));
#1794=CARTESIAN_POINT('',(-0.0767106812490322,-0.0094054292044111,0.0215));
#1795=CARTESIAN_POINT('',(-0.0767106812490322,-0.0094054292044111,-0.0215));
#1796=CARTESIAN_POINT('',(-0.0729684801681832,-0.0072448684030212,-0.0215));
#1797=CARTESIAN_POINT('',(-0.0729684801681832,-0.0072448684030212,0.0215));
#1798=CARTESIAN_POINT('',(-0.0704684801681832,-0.0115749954219434,0.0215));
#1799=CARTESIAN_POINT('',(-0.0704684801681832,-0.0115749954219434,-0.0215));
#1800=CARTESIAN_POINT('',(-0.066138353149261,-0.0090749954219434,-0.0215));
#1801=CARTESIAN_POINT('',(-0.066138353149261,-0.0090749954219434,0.0215));
#1802=CARTESIAN_POINT('',(-0.053533353149261,-0.0309074958513491,0.0215));
#1803=CARTESIAN_POINT('',(-0.053533353149261,-0.0309074958513491,-0.0215));
#1804=CARTESIAN_POINT('',(-0.040928353149261,-0.0527399962807548,-0.0215));
#1805=CARTESIAN_POINT('',(-0.040928353149261,-0.0527399962807548,0.0215));
#1806=CARTESIAN_POINT('',(-0.0452584801681832,-0.0552399962807548,0.0215));
#1807=CARTESIAN_POINT('',(-0.0452584801681832,-0.0552399962807548,-0.0215));
#1808=CARTESIAN_POINT('',(-0.0427584801681831,-0.059570123299677,-0.0215));
#1809=CARTESIAN_POINT('',(-0.0427584801681831,-0.059570123299677,0.0215));
#1810=CARTESIAN_POINT('',(-0.0465006812490322,-0.0617306841010669,0.0215));
#1811=CARTESIAN_POINT('',(-0.0465006812490322,-0.0617306841010669,-0.0215));
#1812=CARTESIAN_POINT('',(0.0465006812490322,-0.0617306841010669,0.0215));
#1813=CARTESIAN_POINT('',(0.0465006812490322,-0.0617306841010669,-0.0215));
#1814=CARTESIAN_POINT('',(0.0427584801681832,-0.059570123299677,-0.0215));
#1815=CARTESIAN_POINT('',(0.0427584801681832,-0.059570123299677,0.0215));
#1816=CARTESIAN_POINT('',(0.0452584801681832,-0.0552399962807548,0.0215));
#1817=CARTESIAN_POINT('',(0.0452584801681832,-0.0552399962807548,-0.0215));
#1818=CARTESIAN_POINT('',(0.040928353149261,-0.0527399962807548,-0.0215));
#1819=CARTESIAN_POINT('',(0.040928353149261,-0.0527399962807548,0.0215));
#1820=CARTESIAN_POINT('',(0.053533353149261,-0.0309074958513491,0.0215));
#1821=CARTESIAN_POINT('',(0.050908353149261,-0.0354541292212174,6.73555739531044E-20));
#1822=CARTESIAN_POINT('',(0.051458353149261,-0.0345015012770545,6.73555739531044E-20));
#1823=CARTESIAN_POINT('',(0.056158353149261,-0.0263608624814808,8.00006164035299E-19));
#1824=CARTESIAN_POINT('',(0.056708353149261,-0.0254082345373179,8.00006164035299E-19));
#1825=CARTESIAN_POINT('',(0.053533353149261,-0.0309074958513491,1.99005104861445E-19));
#1826=CARTESIAN_POINT('',(0.055158353149261,-0.0280929132890497,1.99005104861445E-19));
#1827=CARTESIAN_POINT('',(0.053533353149261,-0.0309074958513491,-0.0215));
#1828=CARTESIAN_POINT('',(0.0661383531492609,-0.0090749954219434,-0.0215));
#1829=CARTESIAN_POINT('',(0.0661383531492609,-0.0090749954219434,0.0215));
#1830=CARTESIAN_POINT('',(0.0704684801681832,-0.0115749954219434,0.0215));
#1831=CARTESIAN_POINT('',(0.0704684801681832,-0.0115749954219434,-0.0215));
#1832=CARTESIAN_POINT('',(0.0729684801681832,-0.0072448684030212,-0.0215));
#1833=CARTESIAN_POINT('',(0.0729684801681832,-0.0072448684030212,0.0215));
#1834=CARTESIAN_POINT('',(0.0767106812490322,-0.0094054292044111,0.0215));
#1835=CARTESIAN_POINT('',(0.0767106812490322,-0.0094054292044111,-0.0215));
#1836=CARTESIAN_POINT('',(0.0804528823298812,-0.011565990005801,-0.0215));
#1837=CARTESIAN_POINT('',(0.0804528823298812,-0.011565990005801,0.0215));
#1838=CARTESIAN_POINT('',(-8.67361737988404E-18,9.54097911787244E-18,0.0215));
#1839=CARTESIAN_POINT('',(-8.67361737988404E-18,9.54097911787244E-18,-0.0215));
#1840=CARTESIAN_POINT('',(0.,0.00961499393657346,-0.0215));
#1841=CARTESIAN_POINT('',(0.03521,0.071136113305478,0.0215));
#1842=CARTESIAN_POINT('',(0.03521,0.071136113305478,-0.0165));
#1843=CARTESIAN_POINT('',(0.03521,0.0668149917026982,-0.0165));
#1844=CARTESIAN_POINT('',(0.03521,0.0676675276628311,-0.0165));
#1845=CARTESIAN_POINT('',(0.03521,0.0676675276628311,0.0215));
#1846=CARTESIAN_POINT('',(0.03521,0.0668149917026982,0.0215));
#1847=CARTESIAN_POINT('',(0.02521,0.0668149917026982,0.0215));
#1848=CARTESIAN_POINT('',(0.02521,0.0668149917026982,-0.0165));
#1849=CARTESIAN_POINT('',(0.02521,0.0568149917026983,-0.0165));
#1850=CARTESIAN_POINT('',(0.02521,0.0568149917026983,0.0215));
#1851=CARTESIAN_POINT('',(1.31607779458677E-17,0.0568149917026982,0.0215));
#1852=CARTESIAN_POINT('',(1.31607779458677E-17,0.0568149917026982,-0.0165));
#1853=CARTESIAN_POINT('',(-0.02521,0.0568149917026982,-0.0165));
#1854=CARTESIAN_POINT('',(-0.02521,0.0568149917026982,0.0215));
#1855=CARTESIAN_POINT('',(-0.02521,0.0668149917026982,0.0215));
#1856=CARTESIAN_POINT('',(-0.02521,0.0668149917026982,-0.0165));
#1857=CARTESIAN_POINT('',(-0.03521,0.0668149917026982,-0.0165));
#1858=CARTESIAN_POINT('',(-0.03521,0.0668149917026982,0.0215));
#1859=CARTESIAN_POINT('',(-0.03521,0.071136113305478,0.0215));
#1860=CARTESIAN_POINT('',(-0.03521,0.071136113305478,-0.0165));
#1861=CARTESIAN_POINT('',(-0.03521,0.067667527662831,-0.0165));
#1862=CARTESIAN_POINT('',(-0.03521,0.067667527662831,0.0215));
#1863=CARTESIAN_POINT('',(5.20417042793042E-18,-9.54097911787244E-18,0.0215));
#1864=CARTESIAN_POINT('',(5.20417042793042E-18,-9.54097911787244E-18,-0.0165));
#1865=CARTESIAN_POINT('',(-0.0762067979672979,-0.0033410093641654,-0.0165));
#1866=CARTESIAN_POINT('',(-0.0762067979672979,-0.0033410093641654,0.0215));
#1867=CARTESIAN_POINT('',(-0.0792106812490322,-0.00507530218548891,0.0215));
#1868=CARTESIAN_POINT('',(-0.0792106812490322,-0.00507530218548891,-0.0165));
#1869=CARTESIAN_POINT('',(-0.0754684801681832,-0.00291474138409901,-0.0165));
#1870=CARTESIAN_POINT('',(-0.0754684801681832,-0.00291474138409901,0.0215));
#1871=CARTESIAN_POINT('',(-0.0704684801681832,-0.0115749954219434,0.0215));
#1872=CARTESIAN_POINT('',(-0.0704684801681832,-0.0115749954219434,-0.0165));
#1873=CARTESIAN_POINT('',(-0.0618082261303388,-0.0065749954219434,-0.0165));
#1874=CARTESIAN_POINT('',(-0.0618082261303388,-0.0065749954219434,0.0215));
#1875=CARTESIAN_POINT('',(-0.0492032261303388,-0.0284074958513491,0.0215));
#1876=CARTESIAN_POINT('',(-0.0492032261303388,-0.0284074958513491,-0.0165));
#1877=CARTESIAN_POINT('',(-0.0365982261303388,-0.0502399962807548,-0.0165));
#1878=CARTESIAN_POINT('',(-0.0365982261303388,-0.0502399962807548,0.0215));
#1879=CARTESIAN_POINT('',(-0.0452584801681832,-0.0552399962807548,0.0215));
#1880=CARTESIAN_POINT('',(-0.0452584801681832,-0.0552399962807548,-0.0165));
#1881=CARTESIAN_POINT('',(-0.0402584801681831,-0.0639002503185992,-0.0165));
#1882=CARTESIAN_POINT('',(-0.0402584801681831,-0.0639002503185992,0.0215));
#1883=CARTESIAN_POINT('',(-0.0440006812490322,-0.0660608111199891,0.0215));
#1884=CARTESIAN_POINT('',(-0.0440006812490322,-0.0660608111199891,-0.0165));
#1885=CARTESIAN_POINT('',(-0.040996797967298,-0.0643265182986656,-0.0165));
#1886=CARTESIAN_POINT('',(-0.040996797967298,-0.0643265182986656,0.0215));
#1887=CARTESIAN_POINT('',(-0.0409967979672979,-0.0643265182986656,-0.00167210355951147));
#1888=CARTESIAN_POINT('',(-0.040996797967298,-0.0643265182986656,0.0215));
#1889=CARTESIAN_POINT('',(1.38777878078145E-17,-6.93889390390723E-18,0.0215));
#1890=CARTESIAN_POINT('',(1.38777878078145E-17,-6.93889390390723E-18,-0.00167210355951146));
#1891=CARTESIAN_POINT('',(0.040996797967298,-0.0643265182986656,-0.00167210355951146));
#1892=CARTESIAN_POINT('',(0.040996797967298,-0.0643265182986656,0.0215));
#1893=CARTESIAN_POINT('',(0.040996797967298,-0.0643265182986656,-0.0165));
#1894=CARTESIAN_POINT('',(1.38777878078145E-17,-6.93889390390723E-18,-0.0165));
#1895=CARTESIAN_POINT('',(0.0440006812490322,-0.0660608111199891,0.0215));
#1896=CARTESIAN_POINT('',(0.0440006812490322,-0.0660608111199891,-0.0165));
#1897=CARTESIAN_POINT('',(0.0402584801681832,-0.0639002503185992,-0.0165));
#1898=CARTESIAN_POINT('',(0.040996797967298,-0.0643265182986656,0.0215));
#1899=CARTESIAN_POINT('',(0.0402584801681832,-0.0639002503185992,0.0215));
#1900=CARTESIAN_POINT('',(0.0452584801681832,-0.0552399962807548,0.0215));
#1901=CARTESIAN_POINT('',(0.0452584801681832,-0.0552399962807548,-0.0165));
#1902=CARTESIAN_POINT('',(0.0365982261303388,-0.0502399962807548,-0.0165));
#1903=CARTESIAN_POINT('',(0.0365982261303388,-0.0502399962807548,0.0215));
#1904=CARTESIAN_POINT('',(0.0492032261303388,-0.0284074958513491,0.0215));
#1905=CARTESIAN_POINT('',(0.0465782261303388,-0.0329541292212174,6.73555739531044E-20));
#1906=CARTESIAN_POINT('',(0.0460282261303388,-0.0339067571653803,6.73555739531044E-20));
#1907=CARTESIAN_POINT('',(0.0518282261303388,-0.0238608624814808,8.00006164035299E-19));
#1908=CARTESIAN_POINT('',(0.0512782261303388,-0.0248134904256437,8.00006164035299E-19));
#1909=CARTESIAN_POINT('',(0.0492032261303388,-0.0284074958513491,1.99005104861445E-19));
#1910=CARTESIAN_POINT('',(0.0475782261303388,-0.0312220784136485,1.99005104861445E-19));
#1911=CARTESIAN_POINT('',(0.0492032261303388,-0.0284074958513491,-0.0165));
#1912=CARTESIAN_POINT('',(0.0618082261303387,-0.00657499542194341,-0.0165));
#1913=CARTESIAN_POINT('',(0.0618082261303387,-0.00657499542194341,0.0215));
#1914=CARTESIAN_POINT('',(0.0704684801681832,-0.0115749954219434,0.0215));
#1915=CARTESIAN_POINT('',(0.0704684801681832,-0.0115749954219434,-0.0165));
#1916=CARTESIAN_POINT('',(0.0754684801681832,-0.002914741384099,-0.0165));
#1917=CARTESIAN_POINT('',(0.0754684801681832,-0.002914741384099,0.0215));
#1918=CARTESIAN_POINT('',(0.0792106812490322,-0.0050753021854889,0.0215));
#1919=CARTESIAN_POINT('',(0.0792106812490322,-0.0050753021854889,-0.0165));
#1920=CARTESIAN_POINT('',(0.0762067979672979,-0.00334100936416539,-0.0165));
#1921=CARTESIAN_POINT('',(0.0762067979672979,-0.00334100936416539,0.0215));
#1922=CARTESIAN_POINT('',(-8.67361737988404E-18,9.54097911787244E-18,0.0215));
#1923=CARTESIAN_POINT('',(-8.67361737988404E-18,9.54097911787244E-18,-0.0165));
#1924=CARTESIAN_POINT('',(0.,0.00961499393657346,-0.0165));
#1925=CARTESIAN_POINT('',(-0.0703922768704068,0.040641,1.99005104861445E-19));
#1926=CARTESIAN_POINT('',(-0.0677672768704068,0.0451876333698683,8.00006164035299E-19));
#1927=CARTESIAN_POINT('',(-0.0730172768704068,0.0360943666301317,6.73555739531044E-20));
#1928=CARTESIAN_POINT('',(1.38777878078145E-17,-6.93889390390723E-18,0.0215));
#1929=CARTESIAN_POINT('',(-0.045,-0.0615925190262584,0.0215));
#1930=CARTESIAN_POINT('',(-0.045,-0.0615925190262584,-0.00167210355951147));
#1931=CARTESIAN_POINT('',(1.38777878078145E-17,-6.93889390390723E-18,-0.00167210355951146));
#1932=CARTESIAN_POINT('',(0.,0.076282,-0.00167210355951146));
#1933=CARTESIAN_POINT('',(0.045,0.076282,-0.00167210355951146));
#1934=CARTESIAN_POINT('',(0.045,-0.0615925190262584,-0.00167210355951146));
#1935=CARTESIAN_POINT('',(1.38777878078145E-17,-6.93889390390723E-18,-0.00167210355951146));
#1936=CARTESIAN_POINT('',(-0.045,0.076282,-0.00167210355951147));
#1937=CARTESIAN_POINT('',(0.045,0.076282,0.0108278964404885));
#1938=CARTESIAN_POINT('',(0.045,-0.0615925190262584,0.0215));
#1939=CARTESIAN_POINT('',(-0.045,0.076282,0.0108278964404885));
#1940=CARTESIAN_POINT('',(1.38777878078145E-17,-6.93889390390723E-18,0.0215));
#1941=MECHANICAL_DESIGN_GEOMETRIC_PRESENTATION_REPRESENTATION('',(#1122,
#1051,#1052,#1053,#1054,#1055),#1942);
#1942=(
GEOMETRIC_REPRESENTATION_CONTEXT(3)
GLOBAL_UNCERTAINTY_ASSIGNED_CONTEXT((#1943))
GLOBAL_UNIT_ASSIGNED_CONTEXT((#1946,#1945,#1944))
REPRESENTATION_CONTEXT('top','TOP_LEVEL_ASSEMBLY_PART')
);
#1943=UNCERTAINTY_MEASURE_WITH_UNIT(LENGTH_MEASURE(1.E-8),#1946,
'DISTANCE_ACCURACY_VALUE','Maximum Tolerance applied to model');
#1944=(
NAMED_UNIT(*)
SI_UNIT($,.STERADIAN.)
SOLID_ANGLE_UNIT()
);
#1945=(
NAMED_UNIT(*)
PLANE_ANGLE_UNIT()
SI_UNIT($,.RADIAN.)
);
#1946=(
LENGTH_UNIT()
NAMED_UNIT(*)
SI_UNIT($,.METRE.)
);
#1947=PRODUCT_DEFINITION_SHAPE('','',#1948);
#1948=PRODUCT_DEFINITION('','',#1950,#1949);
#1949=PRODUCT_DEFINITION_CONTEXT('',#1956,'design');
#1950=PRODUCT_DEFINITION_FORMATION_WITH_SPECIFIED_SOURCE('','',#1952,
 .NOT_KNOWN.);
#1951=PRODUCT_RELATED_PRODUCT_CATEGORY('','',(#1952));
#1952=PRODUCT('top','top','top',(#1954));
#1953=PRODUCT_CATEGORY('','');
#1954=PRODUCT_CONTEXT('',#1956,'mechanical');
#1955=APPLICATION_PROTOCOL_DEFINITION('international standard',
'ap242_managed_model_based_3d_engineering',2020,#1956);
#1956=APPLICATION_CONTEXT('managed model based 3d engineering');
ENDSEC;
END-ISO-10303-21;
